<?xml version="1.0" standalone="no"?>
<!DOCTYPE svg PUBLIC "-//W3C//DTD SVG 1.1//EN" "http://www.w3.org/Graphics/SVG/1.1/DTD/svg11.dtd" >
<svg>
<metadata>
Created by FontForge 20120731 at Wed Dec 23 11:42:28 2015
 By root
Copyright (c) 2010 - 2012, Matt McInerney (matt@pixelspread.com), Pablo Impallari(impallari@gmail.com), Rodrigo Fuenzalida (hello@rfuenzalida.com) with Reserved Font Name "Raleway"
</metadata>
<defs>
<font id="Raleway-ExtraBold" horiz-adv-x="268" >
  <font-face 
    font-family="Raleway"
    font-weight="800"
    font-stretch="normal"
    units-per-em="1000"
    panose-1="2 11 0 3 3 1 1 6 0 3"
    ascent="800"
    descent="-200"
    x-height="525"
    cap-height="710"
    bbox="-195 -231 1180 920"
    underline-thickness="50"
    underline-position="-50"
    stemh="144"
    stemv="164"
    unicode-range="U+0020-FB06"
  />
<missing-glyph horiz-adv-x="0" 
 />
    <glyph glyph-name="f_f" unicode="ff" horiz-adv-x="675" 
d="M660 589c-18.3945 7.3584 -44.9795 16 -70 16c-44.5049 0 -64 -30.457 -64 -74v-67h127v-121h-127v-343h-160v343h-115v-343h-160v343h-67v121h67v28c0 97.2637 41.5234 165.945 108.5 197c23 10.667 49.167 16 78.5 16c50.7676 0 94.9697 -12.9883 135 -29
c30.6221 37.001 76.71 64 143 64c51.7959 0 94.2686 -15.3486 134 -31zM311 570c-41.4023 0 -60 -31.9414 -60 -72v-34h115v54c0 9.45801 0.0341797 34.9922 5 40c-15.5811 6.67773 -39.4336 12 -60 12z" />
    <glyph glyph-name="f_i" unicode="fi" horiz-adv-x="595" 
d="M327 605c-47.5732 0 -76.001 -28.4482 -75.999 -74v-67h290v-464h-160v343h-130v-343h-160v343h-67v121h67v61c0 102.968 56.8721 169.999 133 199c28 10.667 59 16 93 16c88.9834 0 150.315 -32.9756 210 -72l-62 -121c-32.8232 28.4463 -82.5498 58 -138.001 58z" />
    <glyph glyph-name="f_l" unicode="fl" horiz-adv-x="691" 
d="M565 192c0 -28.7002 15.1758 -57.999 46 -57.999c18.0566 0 37.6738 6.94727 51 12.5c4 1.66699 6.33301 2.5 7 2.5l20 -129c-6.88086 -6.88086 -30.8838 -11.2529 -45.5 -15.001c-25.2373 -6.4707 -60.8037 -13 -92.5 -13c-65.8838 0 -115.222 27.8164 -136 72.5
c-6.66699 14.333 -10 29.5 -10 45.5v379c0 61.5342 -15.7568 116 -78 116c-55.8848 0 -76 -47.2139 -76 -103v-38h79v-121h-79v-343h-160v343h-67v121h67v76c0 138.773 95.6533 200 235 200c147.79 0 239 -66.418 239 -212v-336z" />
    <glyph glyph-name="f_f_i" unicode="ffi" horiz-adv-x="870" 
d="M606 605c-50.9463 0 -80 -26.3672 -80 -74v-67h290v-464h-161v343h-129v-343h-160v343h-115v-343h-160v343h-67v121h67v28c0 97.2637 41.5234 165.945 108.5 197c23 10.667 49.167 16 78.5 16c50.7676 0 94.9697 -12.9883 135 -29c38.4932 38.4932 98.8506 64 175.999 64
c85.5459 0 152.383 -34.1191 213 -72l-62 -121c-30.7637 27.5781 -81.7646 58 -133.999 58zM311 570c-41.4023 0 -60 -31.9414 -60 -72v-34h115v55c0 9.30664 0.0878906 34.0459 5 39c-15.5811 6.67773 -39.4336 12 -60 12z" />
    <glyph glyph-name="f_f_l" unicode="ffl" horiz-adv-x="965" 
d="M840 192c0 -28.7002 15.1758 -57.999 46 -57.999c18.0566 0 37.6738 6.94727 51 12.5c4 1.66699 6.33301 2.5 7 2.5l20 -129c-6.88086 -6.88086 -30.8838 -11.2529 -45.5 -15.001c-25.2373 -6.4707 -60.8037 -13 -92.5 -13c-66.9443 0 -114.946 27.2354 -136 72.5
c-6.66699 14.333 -10 29.5 -10 45.5v379c0 60.7002 -16.2139 116 -78 116c-55.8848 0 -76 -47.2139 -76 -103v-38h79v-121h-79v-343h-160v343h-115v-343h-160v343h-67v121h67v30c0 98.0752 41.4785 164.939 109.5 195.5c23 10.333 48.5 15.5 76.5 15.5
c53.6387 0 94.3564 -12.3428 136 -29c40.7217 42.0352 104.777 64 187 64c150.704 0 240 -70.4316 240 -212v-336zM313 570.001c-42.7188 0 -62 -28.5166 -62 -71v-35h115v54.5c0 12.1895 -0.273438 31.9541 4 40.5c-15.3594 6.58301 -37.0918 11 -57 11z" />
    <glyph glyph-name=".notdef" horiz-adv-x="0" 
 />
    <glyph glyph-name="space" unicode=" " horiz-adv-x="233" 
 />
    <glyph glyph-name="exclam" unicode="!" horiz-adv-x="307" 
d="M74 282v435h160v-435h-160zM74 0v166h160v-166h-160z" />
    <glyph glyph-name="quotedbl" unicode="&#x22;" horiz-adv-x="428" 
d="M55 519v207h136v-207h-136zM237 519v207h135v-207h-135z" />
    <glyph glyph-name="numbersign" unicode="#" horiz-adv-x="739" 
d="M702 412h-151l-27 -114h129v-119h-158l-43 -179h-128l44 179h-92l-43 -179h-128l44 179h-112v119h141l27 114h-119v110h146l46 188h128l-47 -188h92l46 188h128l-47 -188h124v-110zM397 298l26 114h-91l-27 -114h92z" />
    <glyph glyph-name="dollar" unicode="$" horiz-adv-x="641" 
d="M603 209c0 -145.207 -103.596 -210.229 -241.998 -215.996v-116h-70v117c-97.5283 8.48047 -191.519 42.9092 -258.001 85.999l72 143c12.1787 -15.2236 43.4209 -29.6475 67 -41c35.4727 -17.0801 83.5615 -34.7295 131 -40v133l-48 14
c-100.225 30.6807 -192 68.4795 -192 195.999c0 142.519 98.8428 215.546 228 229v101h70v-101c84.7959 -7.70898 162.437 -43.1074 219.999 -76l-71 -136c-9.24414 12.3252 -36.4668 23.6172 -55.5 32.499c-29.1514 13.6035 -68.2334 28.1758 -105.5 33.5v-136l32 -8
c115.414 -31.6826 222 -69.8545 222 -215.001zM426.002 193.003c0 41.1719 -41.5459 54.8447 -77 67v-120c51.333 2 77 19.667 77 53zM233.002 511.003c0 -40.5713 34.168 -52.7148 70 -65v123c-46.667 -4 -70 -23.333 -70 -58z" />
    <glyph glyph-name="percent" unicode="%" horiz-adv-x="820" 
d="M207 411c-77.2646 0 -133.452 40.6846 -158 94.501c-8.66699 19 -13 39.167 -13 60.5c0 74.1719 49.1357 120.762 104 142c20.667 8 43 12 67 12c77.0762 0 133.24 -40.6719 158 -94c8.66699 -18.667 13 -38.667 13 -60c0 -74.6201 -48.8408 -121.648 -104 -143.001
c-20.667 -8 -43 -12 -67 -12zM147.001 566.001c0 -38.1455 23.5449 -77 59.999 -77c36.4375 0 60 38.875 60 77c0 37.6318 -24.3828 76 -60 76c-35.8965 0 -59.999 -38.6104 -59.999 -76zM613 -9.99902c-77.0732 0 -133.245 40.6709 -158 94
c-8.66699 18.667 -13 38.667 -13 60c0 74.6191 48.8398 121.647 104 143c20.667 8 43 12 67 12c77.2549 0 133.468 -40.6826 158 -94.5c8.66699 -19 13 -39.167 13 -60.5c0 -74.1719 -49.1357 -120.762 -104 -142c-20.667 -8 -43 -12 -67 -12zM553 144.001
c0 -38.21 23.5234 -76 60 -76c35.9023 0 60 38.6104 60 76c0 37.5625 -24.4111 77 -60 77c-36.4375 0 -60 -38.875 -60 -77zM105 56.001l282 324l256 339l72 -64l-273 -316l-266 -348z" />
    <glyph glyph-name="ampersand" unicode="&#x26;" horiz-adv-x="733" 
d="M475 49c-51.2051 -33.749 -114.65 -59.0029 -193 -59.0029c-114.907 0 -193.497 56.6318 -227.499 137c-11 26 -16.5 53 -16.5 81c0 93.918 57.1758 149.483 112 190c-32.5977 39.8408 -67 76.6963 -67 145c0 114.899 86.0908 176 201 176
c86.4971 0 149.467 -33.9219 181 -90.5c11.333 -20.333 17 -44.5 17 -72.5c0 -86.5176 -53.9414 -139.455 -108 -179.999l111 -118c17.1875 39.6631 28 86.4473 28 143.001h130c-1.34863 -99.7793 -25.6934 -177.587 -64.001 -240.999l153 -160h-210zM248 291.997
c-26.9648 -20.7422 -56 -44.1084 -56 -85c0 -56.5957 49.3467 -92 107 -92c30.667 0 60.667 9 90 27zM284 601.997c-32.9658 0 -56 -20.9697 -56 -53.001c0 -10.667 3.33301 -20.5 10 -29.5s18.667 -22.167 36 -39.5c20.667 13.333 36 25.333 46 36
c10 10.6709 15 23.3379 15 38.001c0 29.7354 -21.0039 48 -51 48z" />
    <glyph glyph-name="quotesingle" unicode="'" horiz-adv-x="242" 
d="M54 522v204h135v-204h-135z" />
    <glyph glyph-name="parenleft" unicode="(" horiz-adv-x="324" 
d="M179 344c0 -54 11.333 -109.501 34 -166.501s51.667 -116.833 87 -179.5l-117 -57c-58.5615 86.8984 -113.053 186.223 -140.5 301.5c-38.8496 163.168 22.3418 306.309 79.5 414.5c18.667 35.333 38.667 71 60 107l122 -50
c-44.4814 -69.8994 -86.0762 -166.673 -110.5 -261c-9.66699 -37.333 -14.5 -73.666 -14.5 -108.999z" />
    <glyph glyph-name="parenright" unicode=")" horiz-adv-x="324" 
d="M294 347c0 -78.9424 -21.3096 -147.948 -46 -208.5c-28.5166 -69.9346 -67.8682 -137.949 -108 -197.5l-116 57c35.333 62.667 64.333 122.5 87 179.5s34 112.5 34 166.5c0 78.3555 -25.4795 156.023 -49 216c-21.3975 54.5635 -49.9238 113.023 -76 154l122 50
c56.6621 -95.6172 113.375 -194.706 140.5 -315c7.66699 -34 11.5 -68 11.5 -102z" />
    <glyph glyph-name="asterisk" unicode="*" horiz-adv-x="354" 
d="M71 510l47 75l-71 21l21 67l73 -34l-6 80h83l-6 -80l74 34l21 -67l-71 -21l47 -75l-59 -39l-47 79l-47 -79z" />
    <glyph glyph-name="plus" unicode="+" horiz-adv-x="426" 
d="M379 419v-128h-94v-104h-144v104h-95v128h95v104h144v-104h94z" />
    <glyph glyph-name="comma" unicode="," horiz-adv-x="249" 
d="M23 -19c22.3555 0 36.1816 13.1768 38 35v147h130v-177c0 -86.9775 -82.2295 -118 -168 -118v113z" />
    <glyph glyph-name="hyphen" unicode="-" horiz-adv-x="415" 
d="M54 203v144h308v-144h-308z" />
    <glyph glyph-name="period" unicode="." horiz-adv-x="238" 
d="M54 0v163h130v-163h-130z" />
    <glyph glyph-name="slash" unicode="/" horiz-adv-x="734" 
d="M709 710l-505 -710h-176l504 710h177z" />
    <glyph glyph-name="zero" unicode="0" horiz-adv-x="614" 
d="M569 293c0 -136.961 -64.1035 -236.486 -158 -280.5c-32 -15 -66.667 -22.5 -104 -22.5c-128.699 0 -205.992 84.3535 -241 181.5c-13.333 37 -20 77.5 -20 121.5c0 137.233 64.4111 235.926 157.5 281c31.667 15.333 66.167 23 103.5 23
c128.697 0 206.998 -85.3701 242 -182.5c13.333 -37 20 -77.5 20 -121.5zM307 136.999c69.293 0 100 79.4697 100 156c0 76.5166 -30.709 157 -100 157c-70.2178 0 -101 -79.8809 -101 -157c0 -77.2842 30.7021 -156 101 -156z" />
    <glyph glyph-name="one" unicode="1" horiz-adv-x="518" 
d="M494 144l0.00195312 -144.001h-432v144h142v255c-22.7539 -30.3379 -76.1855 -53.2734 -118.501 -64.5c-16.333 -4.33301 -30.833 -6.5 -43.5 -6.5v148c30.5986 0 68.7969 23.1172 91.999 37.5c22.8447 14.1641 59.709 36.9229 70 57.501h163v-427h127z" />
    <glyph glyph-name="two" unicode="2" horiz-adv-x="584" 
d="M305 581c127.765 0 223.999 -54.6318 223.999 -174c0 -161.287 -177.007 -170.282 -245 -263h256v-144h-503c0 143.734 59.2646 207.326 154 259c50.1504 26.6758 90.3623 45.5635 129 72c18.8662 12.9082 35 23.8604 35 49c0 41.4385 -33.9199 62 -78 62
c-63.7822 0 -100.165 -36.6367 -133 -74l-101 118c52.0752 58.584 152.125 95 262.001 95z" />
    <glyph glyph-name="three" unicode="3" horiz-adv-x="568" 
d="M394 237c82.8271 -16.0312 138.999 -81.5684 138.999 -179.999c0 -108.185 -72.7295 -164.481 -159 -189.5c-33.333 -9.66699 -70.666 -14.5 -111.999 -14.5c-100.667 0 -179.667 29.667 -237 89l86 114c33.1758 -35.7285 76.9502 -57 144 -57
c74.667 0 112 27.667 112 83c0 71.1318 -59.0889 91 -139 91h-29v115h33c62.9629 0 118 25.96 118 84c0 46.2607 -36.4512 67 -84 67c-62.5264 0 -104.593 -33.666 -131 -75l-101 116c46.5 61.0312 143.214 96 250 96c104.427 0 185.333 -36.3164 221 -104.5
c11.333 -21.668 17 -45.835 17 -72.501c0 -86.5693 -54.2773 -148.835 -128 -162z" />
    <glyph glyph-name="four" unicode="4" horiz-adv-x="574" 
d="M296 -127v137h-276v143l327 418h109v-417h88v-144h-88v-137h-160zM314 154v177l-135 -177h135z" />
    <glyph glyph-name="five" unicode="5" horiz-adv-x="556" 
d="M221 304c13.2061 13.2041 40.6006 18 70.999 18c109.676 0 184.775 -57.46 217.5 -136c11.667 -28 17.5 -59 17.5 -93c0 -119.094 -70.7754 -192.779 -160.5 -224.5c-33 -11.667 -68.833 -17.5 -107.5 -17.5c-108.94 0 -193.537 47.6377 -235 118l90 99
c31.6758 -38.2295 82.7354 -77 146 -77c60.5127 0 103 38.7217 103 99c0 56.0498 -38.5947 95 -94 95c-39.6943 0 -71.4736 -19.7256 -86.999 -46h-139c0 0.666992 1.33301 7.5 4 20.5c29.0898 141.808 49.959 261.244 79 411.5h353v-146h-237z" />
    <glyph glyph-name="six" unicode="6" horiz-adv-x="607" 
d="M191 416c25.876 34.9326 69.9668 56.999 130 56.999c114.769 0 193.072 -61.1367 229 -141.5c12.667 -28.333 19 -59.166 19 -92.499c0 -117.93 -72.1885 -194.64 -158 -229.501c-32 -13 -66.667 -19.5 -104 -19.5c-139.013 0 -214.17 83.9766 -246.001 194.5
c-12 41.667 -18 89.167 -18 142.5c0 172.026 50.0234 306.513 163 363.001c34.667 17.333 73.667 26 117 26c100.514 0 172.257 -46.002 222.001 -105l-90 -102c-28.4717 36.4434 -74.1279 68 -134 68c-87.6172 0 -127.633 -69.8545 -130 -161zM307 346.999
c-62.6943 0 -110 -45.3633 -110 -108c0 -51.7637 31.5664 -88.6045 68 -105c13.333 -6 27.333 -9 42 -9c63.2031 0 110 51.0801 110 114c0 61.8135 -48.5469 108 -110 108z" />
    <glyph glyph-name="seven" unicode="7" horiz-adv-x="584" 
d="M34 438v146h550l-350 -710h-181l279 564h-298z" />
    <glyph glyph-name="eight" unicode="8" horiz-adv-x="608" 
d="M467 379c51.126 -31.2432 100.002 -82.0625 100.002 -163.999c0 -112.53 -75.8516 -179.284 -162 -208c-32 -10.667 -66 -16 -102 -16c-116.488 0 -201.838 56.2422 -241.001 135.5c-14 28.333 -21 59.833 -21 94.5c0 79.5908 51.3447 126.517 100 157.999
c-38.5957 21.0527 -79 70.0566 -79 127c0 104.791 77.2686 165.154 158 190.5c28.667 9 56.667 13.5 84 13.5c101.588 0 180.515 -49.1592 219.499 -115c15 -25.333 22.5 -54.333 22.5 -87c0 -61.874 -38.5664 -106.252 -79 -129zM304.002 136c55.2695 0 100 34.3359 100 89
c0 54.9297 -46.0449 88 -100 88c-55.0225 0 -100 -34.0234 -100 -89c0 -53.8242 45.959 -88 100 -88zM304.002 569c-42.1826 0 -79 -25.1338 -79 -66c0 -44.5488 35.1025 -70 79 -70c43.4883 0 80 26.1787 80 70c0 40.3652 -38.7031 66 -80 66z" />
    <glyph glyph-name="nine" unicode="9" horiz-adv-x="590" 
d="M408 145c-25.876 -34.9326 -69.9668 -56.998 -130 -56.998c-114.769 0 -193.072 61.1367 -228.999 141.5c-12.667 28.334 -19 59.167 -19 92.5c0 117.93 72.1865 194.638 158 229.499c32 13 66.667 19.5 104 19.5c187.152 0 264 -147.981 264 -337
c0 -172.026 -50.0234 -306.513 -163 -363.001c-34.667 -17.333 -73.667 -26 -117 -26c-100.514 0 -172.257 46.002 -222.001 105l90 102c28.4717 -36.4434 74.1279 -68 134 -68c87.6172 0 127.633 69.8545 130 161zM292 436.002c-63.2031 0 -110 -51.0801 -110 -114
c0 -63.1465 47.2188 -108 110 -108c50.0615 0 84.8271 30.459 101 65.5c6 13 9 27.167 9 42.5c0 51.7637 -31.5664 88.6045 -68 105c-13.333 6 -27.333 9 -42 9z" />
    <glyph glyph-name="colon" unicode=":" horiz-adv-x="261" 
d="M65 356v163h131v-163h-131zM65 0v163h131v-163h-131z" />
    <glyph glyph-name="semicolon" unicode=";" horiz-adv-x="265" 
d="M68 356v163h130v-163h-130zM30 -19c21.3867 0 36.248 13.9814 38 35v147h130v-177c0 -86.9775 -82.2295 -118 -168 -118v113z" />
    <glyph glyph-name="less" unicode="&#x3c;" horiz-adv-x="511" 
d="M32 293l422 256v-170l-190 -120l190 -113v-179l-422 250v76z" />
    <glyph glyph-name="equal" unicode="=" horiz-adv-x="435" 
d="M59 124v102h318v-102h-318zM59 326v102h318v-102h-318z" />
    <glyph glyph-name="greater" unicode="&#x3e;" horiz-adv-x="511" 
d="M479 217l-423 -250v179l190 113l-190 120v170l423 -256v-76z" />
    <glyph glyph-name="question" unicode="?" horiz-adv-x="494" 
d="M36 590c31.7764 74.5537 108.027 129 210 129c94.6611 0 161.368 -42.7373 194 -108c12.667 -25.333 19 -56 19 -92c0 -104.661 -64.4062 -151.114 -136.5 -188c-26.4365 -13.5254 -51.3906 -28.332 -68 -50c-7.66699 -10 -11.5 -22 -11.5 -36h-131
c0 79.248 27.041 123.488 80 152c39.4453 21.2393 85.0635 44.4824 112 79.5c10 13 15 27.5 15 43.5c0 42.917 -35.9502 70 -78 70c-53.9736 0 -79.709 -40.1562 -102 -72zM115 0v150h131v-150h-131z" />
    <glyph glyph-name="at" unicode="@" horiz-adv-x="840" 
d="M581 -106c-49.6768 -23.6553 -108.7 -40.0029 -177 -40.0029c-110.654 0 -197.58 44.6748 -256.5 103c-62.1836 61.5557 -106.5 153.657 -106.5 274.001c0 184.31 101.699 299.275 238.5 347.5c46.333 16.333 94.833 24.5 145.5 24.5
c175.184 0 290.583 -88.4756 345.5 -214c21 -48 31.5 -104 31.5 -168c0 -120.571 -35.7363 -237 -158 -237c-58.8926 0 -91.3623 28.3555 -99 78c-39.5723 -39.5723 -97.584 -71 -174 -71c-95.46 0 -158 52.1084 -158 146c0 107.093 87.3887 153 193 153
c46.2432 0 82.0615 -11.0264 110 -23c0 74.4609 -34.3125 108 -110 108c-56.3945 0 -100.727 -16.6748 -131 -43l-28 83c45.5664 31.1768 102.055 50 174 50c110.117 0 174.93 -46.0938 185 -140.5c2.66699 -25 4 -48.5 4 -70.5v-82c0 -52.2061 -1.125 -119 50 -119
c67.207 0 78 105.114 78 172c0 150.357 -79.0479 248.507 -187.5 293c-39 16 -82.5 24 -130.5 24c-150.91 0 -249.85 -77.334 -292 -187.499c-14.667 -38.333 -22 -80.166 -22 -125.499c0 -144.804 72.1562 -244.321 174.5 -289.5c37 -16.333 78.833 -24.5 125.5 -24.5
c69.8818 0 106.525 16.7471 157 38zM310 142.997c0 -42.2607 26.2891 -66 70 -66c63.6602 0 135 28.8994 135 90v28c-24.3701 8.70312 -68.8955 19 -106 19c-54.7305 0 -99 -17.6621 -99 -71z" />
    <glyph glyph-name="A" unicode="A" horiz-adv-x="673" 
d="M-2 0l273 710h133l272 -710h-174l-55 159h-221l-54 -159h-174zM337 536l-85 -264h167z" />
    <glyph glyph-name="B" unicode="B" horiz-adv-x="684" 
d="M523 364c77.9951 -23.0146 132 -82.7793 132 -181.999c0 -128.664 -112.379 -182 -241 -182h-346v710h395c79.9014 0 129.287 -55.5508 150.5 -115.5c7.66699 -21.667 11.5 -43.834 11.5 -66.501c0 -78.8047 -43.2363 -137.499 -102 -164zM414 139.001
c43.4482 0 74 31.9404 74 76c0 41.3711 -26.6201 79 -67 79h-189v-155h182zM462 497.001c0 41.6641 -24.0254 73 -63 73h-167v-147h161c41.502 0 69 28.9814 69 74z" />
    <glyph glyph-name="C" unicode="C" horiz-adv-x="663" 
d="M367 140c74.4492 0 124.11 41.5986 145 98l135 -79c-32.5244 -79.2773 -109.607 -131.521 -198.501 -154c-29 -7.33301 -57.5 -11 -85.5 -11c-108.353 0 -188.664 53.2598 -241.5 115c-51.334 59.9863 -94.5 148.562 -94.5 252c0 157.244 88.3574 268.718 197.5 322
c42.333 20.667 90.5 31 144.5 31c129.984 0 225.502 -66.7207 269 -155l-126 -88c-22.2979 56.7588 -70.9023 97 -146.999 97c-114.343 0 -171 -99.6152 -171 -213c0 -91.9277 41.6602 -164.501 102 -197.5c21.333 -11.667 45 -17.5 71 -17.5z" />
    <glyph glyph-name="D" unicode="D" horiz-adv-x="717" 
d="M68 0v710h265c175.045 0 286.27 -86.8398 331.5 -216.5c15 -43 22.5 -88.833 22.5 -137.5c0 -171.848 -83.5049 -281.838 -208.5 -330.5c-43.667 -17 -92.167 -25.5 -145.5 -25.5h-265zM520 356c0 123.954 -63.5586 210 -187 210h-101v-422h101
c123.112 0 187 89.1338 187 212z" />
    <glyph glyph-name="E" unicode="E" horiz-adv-x="601" 
d="M567 144v-144h-499v710h490v-144h-326v-138h280v-133h-280v-151h335z" />
    <glyph glyph-name="F" unicode="F" horiz-adv-x="565" 
d="M68 0v710h482v-144h-318v-153h262v-133h-262v-280h-164z" />
    <glyph glyph-name="G" unicode="G" horiz-adv-x="705" 
d="M528 69c-43.4912 -43.4912 -94.3926 -74 -173.002 -74c-101.012 0 -179.341 52.5186 -230.499 110c-52.7812 59.3047 -96.5 148.987 -96.5 255c0 163.254 91.4746 275.278 206 327c41.333 18.667 86 28 134 28c131.129 0 227.001 -64.4883 271 -155l-123 -92
c-25.1045 54.7725 -79.1396 101 -152.999 101c-86.4482 0 -135.117 -63.1309 -156 -131c-8 -26 -12 -54 -12 -84c0 -94.5391 40.6641 -165.331 104 -197c21.334 -10.667 44.667 -16 70 -16c73.3506 0 121.662 40.0605 159 87v24h-137v119h273v-371h-136v69z" />
    <glyph glyph-name="H" unicode="H" horiz-adv-x="747" 
d="M679 710v-710h-164v291h-283v-291h-164v710h164v-275h283v275h164z" />
    <glyph glyph-name="I" unicode="I" horiz-adv-x="300" 
d="M68 0v710h164v-710h-164z" />
    <glyph glyph-name="J" unicode="J" horiz-adv-x="498" 
d="M44 167c21.2715 -17.0176 74.167 -32 118 -32c112.323 0 112 99.4727 112 214v361h164v-361c0 -162.591 -18.5898 -281.807 -129 -334c-36.667 -17.333 -85.667 -26 -147 -26c-60 0 -111.333 14.667 -154 44z" />
    <glyph glyph-name="K" unicode="K" horiz-adv-x="677" 
d="M68 0v710h164v-320l274 320h170l-266 -317l284 -393h-173l-208 301l-81 -88v-213h-164z" />
    <glyph glyph-name="L" unicode="L" horiz-adv-x="589" 
d="M68 0v710h164v-566h344v-144h-508z" />
    <glyph glyph-name="M" unicode="M" horiz-adv-x="860" 
d="M628 0v425l-154 -309h-88l-154 309v-425h-164v710h178l184 -371l185 371h177v-710h-164z" />
    <glyph glyph-name="N" unicode="N" horiz-adv-x="759" 
d="M232 0h-164v710h128l331 -417v417h164v-710h-132l-327 406v-406z" />
    <glyph glyph-name="O" unicode="O" horiz-adv-x="734" 
d="M366 -6c-109.557 0 -190.745 51.498 -244.5 112.5c-52.0137 59.0273 -93.5 145.69 -93.5 249.5c0 104.519 43.1543 191.464 96.5 249.5c54.4736 59.2627 136.581 108.5 244.5 108.5c109.805 0 190.834 -51.4951 244.5 -113c51.3691 -58.873 92.5 -145.683 92.5 -248
c0 -104.252 -43.166 -191.383 -96 -249.5c-53.9219 -59.3145 -136.374 -109.5 -244 -109.5zM195.001 354c0 -91.2529 38.6572 -162.857 98.499 -196c21.667 -12 46.5 -18 74.5 -18c114.611 0 171 101.969 171 216c0 91.4092 -38.9512 161.667 -99 194.5
c-21.333 11.667 -45.666 17.5 -72.999 17.5c-90.8594 0 -140.562 -63.9639 -161 -135.5c-7.33301 -25.667 -11 -51.834 -11 -78.5z" />
    <glyph glyph-name="P" unicode="P" horiz-adv-x="620" 
d="M68 0l-0.000976562 710.001h303c110.697 0 181.979 -73.0908 214.501 -153c11.667 -28.667 17.5 -57.667 17.5 -87c0 -107.146 -59.5225 -185.535 -134 -221.001c-28 -13.333 -59 -20 -93 -20h-144v-229h-164zM436.999 470.001c0 53.501 -25.3262 96 -77 96h-128v-194
h134c47.085 0 71 45.1797 71 98z" />
    <glyph glyph-name="Q" unicode="Q" horiz-adv-x="736" 
d="M537 43c-46.2842 -28.0137 -100.71 -48.001 -171 -48.001c-109.631 0 -190.695 50.4404 -244.5 111.5c-52.0137 59.0273 -93.5 145.69 -93.5 249.5c0 104.734 43.2441 191.478 96.5 250.001c54.3887 59.7676 136.326 109 244.5 109
c109.729 0 190.885 -52.5537 244.5 -114c51.3691 -58.873 92.5 -145.683 92.5 -248c0 -97.9385 -36.7734 -175.92 -83 -234l108 -119h-155zM368 140.999c25.334 0 47.666 5.00098 66.999 15.001l-112 124h154l37 -41c16.667 36.667 25 75.667 25 117
c0 91.8418 -39.2373 161.383 -99 195c-21.333 12 -45.666 18 -72.999 18c-91.3057 0 -140.469 -64.6357 -161 -136.5c-7.33301 -25.667 -11 -51.834 -11 -78.5c0 -91.4473 38.5752 -161.812 98.5 -195.001c21.667 -12 46.5 -18 74.5 -18z" />
    <glyph glyph-name="R" unicode="R" horiz-adv-x="680" 
d="M620 470c0 -100.183 -50.3936 -169.552 -116 -206l163 -264h-185l-143 229h-107v-229h-164v710h320c109.528 0 182.264 -73.7764 214.5 -153c11.667 -28.667 17.5 -57.667 17.5 -87zM453 470c0 49.2979 -31.207 96 -76 96h-145v-194h150c44.7852 0 71 49.4521 71 98z" />
    <glyph glyph-name="S" unicode="S" horiz-adv-x="616" 
d="M588 209c0 -152.868 -115.231 -216.997 -266.997 -216.997c-91.584 0 -169.192 22.543 -235 51c-24.667 10.667 -47.334 23 -68.001 37l72 143c16.5176 -16.5195 52.3203 -34.4541 80.999 -47.001c40.0244 -17.5107 96.6504 -36 153 -36c58 0 87 17.667 87 53
c0 31.5117 -24.4814 45.3066 -49 56.5c-35.9434 16.4092 -78.6846 26.6221 -122 39.5c-100.225 30.6807 -192 68.4795 -192 195.999c0 117.696 71.1787 187.478 161.5 216c31.667 10 65.167 15 100.5 15c105.518 0 189.52 -37.5547 256 -78l-71 -136
c-13.6777 13.6777 -43.0205 27.3418 -67 37.999c-32.7637 14.5615 -77.5479 30 -123.001 30c-48.0723 0 -87 -14.8633 -87 -59c0 -44.2275 47.498 -58.2354 84.5 -69c134.08 -39.0049 285.5 -61.9756 285.5 -233z" />
    <glyph glyph-name="T" unicode="T" horiz-adv-x="622" 
d="M609 566h-216v-566h-164v566h-217v144h597v-144z" />
    <glyph glyph-name="U" unicode="U" horiz-adv-x="745" 
d="M221 347c0 -111.656 39.3906 -207 151.001 -207c112.168 0 151 95.2861 151 207v363h164v-363c0 -161.051 -61.7432 -273.848 -173.5 -325.5c-39.667 -18.333 -86.834 -27.5 -141.501 -27.5c-212.732 0 -315 142.806 -315 353v363h164v-363z" />
    <glyph glyph-name="V" unicode="V" horiz-adv-x="672" 
d="M169 710l168 -504l165 504h173l-270 -710h-137l-272 710h173z" />
    <glyph glyph-name="W" unicode="W" horiz-adv-x="1056" 
d="M304 709h152l71 -227l73 227h151l-119 -330l72 -191l179 522h178l-283 -710h-138l-112 278l-113 -278h-137l-283 710h177l180 -522l70 191z" />
    <glyph glyph-name="X" unicode="X" horiz-adv-x="649" 
d="M170 710l155 -245l155 245h177l-246 -360l238 -350h-177l-147 235l-147 -235h-178l238 350l-246 360h178z" />
    <glyph glyph-name="Y" unicode="Y" horiz-adv-x="648" 
d="M405 0h-164v244l-249 466h178l153 -326l156 326h178l-252 -468v-242z" />
    <glyph glyph-name="Z" unicode="Z" horiz-adv-x="623" 
d="M41 566v144h545v-123l-353 -443h357v-144h-563v123l369 443h-355z" />
    <glyph glyph-name="bracketleft" unicode="[" horiz-adv-x="321" 
d="M67 -40v780h214v-127h-67v-526h67v-127h-214z" />
    <glyph glyph-name="backslash" unicode="\" horiz-adv-x="666" 
d="M203 710l435 -710h-176l-436 710h177z" />
    <glyph glyph-name="bracketright" unicode="]" horiz-adv-x="321" 
d="M40 -40v127h67v526h-67v127h215v-780h-215z" />
    <glyph glyph-name="asciicircum" unicode="^" horiz-adv-x="604" 
d="M38 303l198 407h133l197 -407h-130l-133 275l-137 -275h-128z" />
    <glyph glyph-name="underscore" unicode="_" horiz-adv-x="370" 
d="M5 -144v144h360v-144h-360z" />
    <glyph glyph-name="grave" unicode="`" horiz-adv-x="269" 
d="M46 730h145l52 -130l-101 -28z" />
    <glyph glyph-name="a" unicode="a" horiz-adv-x="590" 
d="M390 83c-39.8252 -51.2041 -102.398 -93 -185.999 -93c-84.2793 0 -141.189 42.0908 -168 100.5c-9.33301 20.333 -14 42.5 -14 66.5c0 90.4014 63.3652 139.604 134 162c27.333 8.66699 57.666 13 90.999 13c44.0576 0 88.1182 -7.70898 118 -22v24
c0 60.667 -35 91 -105 91c-70.291 0 -116.039 -25.6543 -164 -58l-47 100c61.9678 40.5176 131.819 68 227 68c152.365 0 249 -70.7725 249 -220v-135c0 -32.668 10.6484 -42.3613 41 -44.999v-135c-25.3477 -5.51074 -49.9512 -8 -77 -8
c-55.1475 1.25293 -87.4502 21.3994 -96 66.999zM173.001 171c0 -40.877 35.7832 -66 78.001 -66c36.7158 0 71.4561 14.6777 91 33c15.333 12 23 24.667 23 38v50c-24.3066 9.25977 -59.4316 17 -91.001 17c-51.0137 0 -101 -24.1553 -101 -72z" />
    <glyph glyph-name="b" unicode="b" horiz-adv-x="639" 
d="M214 439c32.252 55.8213 87.9834 96 173 96c113.961 0 180.518 -79.9209 210 -167.5c11.333 -33.667 17 -69.5 17 -107.5c0 -123.036 -62.3965 -210.503 -148 -249.5c-30 -13.667 -62.333 -20.5 -97 -20.5c-85.4678 0 -142.932 40.2646 -175 97v-87h-140v730h160v-291z
M214.001 198c18.8799 -37.7598 58.1982 -73 109.999 -73c78.0264 0 126 57.0342 126 135c0 61.8096 -29.1064 106.822 -70.5 128c-14.333 7.33301 -30.166 11 -47.499 11c-57.8184 0 -99.0674 -47.5664 -118 -91v-110z" />
    <glyph glyph-name="c" unicode="c" horiz-adv-x="570" 
d="M553 129c-38.5908 -81.1729 -126.535 -139 -246.999 -139c-134.664 0 -225.498 71.7979 -263 169.5c-12.667 33 -19 67.5 -19 103.5c0 126.907 70.5332 211.462 162.5 250c35 14.667 74.833 22 119.5 22c122.088 0 205.245 -57.4912 246 -139l-156 -47
c-20.667 33.333 -51 50 -91 50c-72.1201 0 -117 -60.373 -117 -136c0 -63.3281 28.2021 -107.861 71.5 -128c14.333 -6.66699 29.5 -10 45.5 -10c42.0928 0.000976562 77.1621 23.5625 91.999 52z" />
    <glyph glyph-name="d" unicode="d" horiz-adv-x="660" 
d="M450 87c-33.5215 -56.6396 -93.7471 -97 -177.001 -97c-121.23 0 -195.848 74.457 -229.5 164.5c-12.333 33 -18.5 69.167 -18.5 108.5c0 122.079 56.0283 210.249 138.5 251c28.333 14 59.5 21 93.5 21c78.2393 0 139.13 -43.0703 168.001 -96v291h160v-550
c0 -32.668 10.6484 -42.3613 41 -44.999v-135c-27.582 -5.5166 -48.8037 -8 -77 -8c-56 1.33301 -88 23.666 -96 66.999zM425.999 308c-16.5947 44.2529 -61.8906 91 -118 91c-73.8711 0 -118 -64.9619 -118 -139c0 -76.5938 50.1719 -135 126 -135
c51.752 0 91.1436 35.2881 110 73v110z" />
    <glyph glyph-name="e" unicode="e" horiz-adv-x="604" 
d="M558 130c-40.6855 -81.3711 -130.103 -139.999 -252 -139.999c-134.584 0 -225.024 68.5625 -263 165.5c-12.667 32.333 -19 66.166 -19 101.499c0 130.092 68.6172 216.658 162.5 256c35 14.667 74.833 22 119.5 22c135.174 0 224.409 -69.7598 261.5 -168
c12.333 -32.667 18.5 -67 18.5 -103c0 -17.3086 -1.20703 -37.0371 -4 -51h-388c4.84473 -64.1895 51.8711 -108 117 -108c48.7627 0 97.2373 26.7158 111 63zM417 312.001c-6.18359 61.8408 -47.5508 108 -113 108c-65.8096 0 -106.73 -46.5586 -113 -108h226z" />
    <glyph glyph-name="f" unicode="f" horiz-adv-x="395" 
d="M382 589c-18.5449 8.11328 -46.8096 16 -72 16c-39.333 0 -59 -24.667 -59 -74v-67h122v-121h-122v-343h-160v343h-67v121h67v61c0 98.8945 39.3555 169.716 108 200c22.667 10 48 15 76 15c43.334 0 88.667 -10.333 136 -31z" />
    <glyph glyph-name="g" unicode="g" horiz-adv-x="639" 
d="M425 87c-28.7129 -52.6406 -89.9854 -89 -166.999 -89c-114.986 0 -184.319 75.3721 -215 162c-11.333 32 -17 66.333 -17 103c0 123.673 59.6465 211.168 145 251c30 14 63 21 99 21c84.4971 0 142.977 -40.9619 175.999 -96v86h139v-489
c0 -131.663 -79.4766 -208.367 -181 -241c-37.333 -12 -78.333 -18 -123 -18c-118.876 0 -192.674 40.0303 -250 105l85 87c34.8213 -39.624 93.9072 -72 165 -72c88.8887 0 144 48.6279 144 139v51zM425 308c-17.6582 46.3516 -60.6006 91 -119 91
c-73.8184 0 -117 -66.3301 -117 -140c0 -77.0479 48.4736 -134 125 -134c54.2842 0.000976562 91.0781 35.5 111 73v110z" />
    <glyph glyph-name="h" unicode="h" horiz-adv-x="611" 
d="M396 535c121.747 0 165.001 -79.7861 165.001 -199v-336h-160v295c0 59.0693 -22.0742 99 -76 99c-41.0908 0 -71.8271 -29.9277 -91 -55c-8.66699 -11.333 -15.334 -24 -20.001 -38v-301h-160v730h160v-293c34.5693 56.0264 96.4141 98 182 98z" />
    <glyph glyph-name="i" unicode="i" 
d="M54 0v525h160v-525h-160zM54 585v145h160v-145h-160z" />
    <glyph glyph-name="j" unicode="j" 
d="M1 -64c31.5205 0 53 22.8633 53 55v534h160v-522c0 -95.958 -48.2148 -160.949 -116 -190c-23.333 -10 -49 -15 -77 -15c-59.0332 0 -105.966 20.6602 -140 50l67 109c11.7324 -12.9053 30.0654 -21 53 -21zM54 585v145h160v-145h-160z" />
    <glyph glyph-name="k" unicode="k" horiz-adv-x="568" 
d="M214 0h-160v730h160v-423l178 218h170l-189 -226l204 -299h-170l-137 211l-56 -58v-153z" />
    <glyph glyph-name="l" unicode="l" horiz-adv-x="339" 
d="M197 -9c-91.3203 0 -144 48.9287 -144 140v599h160v-534c0 -40 17.333 -60 52 -60c17.5635 0 39.1562 7.57812 52 14l21 -129c-34.7969 -16.2383 -92.373 -30 -141 -30z" />
    <glyph glyph-name="m" unicode="m" horiz-adv-x="934" 
d="M728 535c117.07 0 156.001 -84.1719 156.001 -199v-336h-160v295c0 57.1973 -17.6553 99 -68 99c-52.0186 0 -92.2744 -49.8643 -107 -93v-301h-160v295c0 57.1973 -17.6553 99 -68 99c-52.5566 0 -92.2969 -48.8906 -107 -93v-301h-160v525h144v-88
c36.2822 60.0537 101.793 98 195 98c79.2949 0 129.938 -38.7373 145 -102c35.3828 59.7852 99.0264 102 189.999 102z" />
    <glyph glyph-name="n" unicode="n" horiz-adv-x="611" 
d="M402 535c119.023 0 159.002 -82.4121 159.002 -199.001v-336h-160v295c0 57.9746 -19.5381 99 -71 99c-44.3438 0 -75.627 -29.3584 -96 -56c-8.66699 -11.333 -15.334 -23.666 -20.001 -36.999v-301h-160v525h144v-88c37.0303 60.0156 108.816 98 203.999 98z" />
    <glyph glyph-name="o" unicode="o" horiz-adv-x="609" 
d="M305 -10c-135.727 0 -225.514 69.5342 -262.501 168.501c-12.333 33 -18.5 67.5 -18.5 103.5c0 127.781 69.4941 211.068 161.5 250.499c35 15 74.833 22.5 119.5 22.5c135.413 0 224.344 -71.3936 262.001 -169.5c12.667 -33 19 -67.5 19 -103.5
c0 -127.406 -69.1943 -211.319 -161.5 -250c-35 -14.667 -74.833 -22 -119.5 -22zM304.998 399.001c-74.8223 0 -117 -61.1904 -117 -137c0 -76.1592 44.0107 -137 117 -137c74.5547 0.000976562 116 62.0938 116 137c0 75.5752 -43.8926 137 -116 137z" />
    <glyph glyph-name="p" unicode="p" horiz-adv-x="638" 
d="M194 440c35.4668 55.0352 88.6279 95 175.001 95c119.229 0 193.341 -75.7783 226.499 -164.5c12.333 -33 18.5 -68.5 18.5 -106.5c0 -122.775 -54.5156 -211.514 -136.5 -253c-27.667 -14 -57.834 -21 -90.5 -21c-84.5859 0 -141.808 38.8535 -173 95v-298h-160v738h140
v-85zM214.002 219c17.6309 -44.0752 60.9941 -94 118 -94c74.3301 0.000976562 118 65.5059 118 140c0 77.6582 -48.6777 134 -126 134c-51.2695 0 -91.0488 -35.2129 -110 -72v-108z" />
    <glyph glyph-name="q" unicode="q" horiz-adv-x="638" 
d="M536 -213c-63.1816 0 -112 39.9824 -112 103v195c-36 -63.333 -93.333 -95 -172 -95c-114.203 0 -180.264 78.54 -210 166c-11.333 33.333 -17 69.333 -17 108c0 122.723 62.0547 210.149 146.5 250c29.667 14 62.167 21 97.5 21c85.7402 0 140.498 -42.1357 176 -96v86
h139v-550c0 -32.1611 10.1904 -42.6602 41 -44v-136c-24.4521 -4.65723 -61.2178 -8 -89 -8zM313 125c53.4834 0 88.5781 35.126 111 71v111c-14.5166 45.9707 -57.2002 92 -116 92c-73.9834 0 -120 -65.002 -120 -139c0 -76.5869 49.1553 -135 125 -135z" />
    <glyph glyph-name="r" unicode="r" horiz-adv-x="401" 
d="M387 388c-76.3057 -1.31543 -143.658 -24.9863 -173 -73v-315h-160v525h147v-106c30.7266 58.1611 84.1709 110.799 161 114c13.335 0 21.668 -0.333008 25 -1v-144z" />
    <glyph glyph-name="s" unicode="s" horiz-adv-x="517" 
d="M256 424c-35.291 0 -68.999 -10.5 -68.999 -44c0 -28.8525 27.2861 -37.3457 52 -44.5c75.166 -21.7734 159.015 -38.2715 210 -76c30.2344 -22.374 47 -50.3633 47 -99.5c0 -119.372 -101.428 -170 -222 -170c-101.385 0 -197.942 26.9639 -262 67l63 108
c56.0479 -32.335 118.53 -62 195 -62c37.7969 0 72 9.52148 72 43c0 14 -8.33301 24.833 -25 32.5c-96.6562 44.4639 -278 41.6436 -278 178.5c0 90.7812 60.5596 141.987 130.5 165c26.333 8.66699 55.166 13 86.499 13c86.4561 0 162.694 -29.1475 225 -62l-63 -101
c-51.8691 28.5801 -96.0312 52 -162 52z" />
    <glyph glyph-name="t" unicode="t" horiz-adv-x="401" 
d="M394 28c-42.0898 -17.8564 -101.646 -38 -161 -38c-91.8887 0 -146 46.8486 -146 140v274h-67v121h67v167h160v-167h107v-121h-107v-219c0 -31.7139 17.3047 -49 47 -49c24.4238 0 52.541 10.8525 70 19z" />
    <glyph glyph-name="u" unicode="u" horiz-adv-x="633" 
d="M214 -10c-114.982 0 -164 78.5186 -164 199v336h160v-301c0 -56.3311 20.5996 -99 73 -99c57.1113 0 91.0342 32.2373 115 76v324h160v-345c0 -32.668 10.6484 -42.3613 41 -45v-135c-27.0586 -5.41211 -48.6768 -8 -76 -8c-56 0.666992 -88.333 23 -97 67l-3 32
c-43.041 -62.1699 -110.392 -101 -209 -101z" />
    <glyph glyph-name="v" unicode="v" horiz-adv-x="549" 
d="M188 0l-186 525h164l115 -397l116 397h150l-186 -525h-173z" />
    <glyph glyph-name="w" unicode="w" horiz-adv-x="856" 
d="M706 525h151l-217 -525h-131l-81 216l-80 -216h-131l-217 525h151l142 -377l49 143l-92 234h128l50 -158l51 158h128l-93 -234l50 -143z" />
    <glyph glyph-name="x" unicode="x" horiz-adv-x="539" 
d="M165 525l95 -148l10 -19c30.9775 59.3564 69.8457 110.821 104 167h164l-182 -263l185 -262h-163l-99 147l-9 19l-9 -19l-99 -147h-164l185 262l-181 263h163z" />
    <glyph glyph-name="y" unicode="y" horiz-adv-x="545" 
d="M52 -79c23.5068 -7.47949 46.7422 -13 72.999 -13c46.8916 0 59.416 42.9277 70 92l-199 525h164l123 -388l105 388h149l-201 -610c-26.5488 -79.6475 -95.9775 -144.551 -195.999 -146c-33.4307 0 -61.7061 5.43848 -88 15v137z" />
    <glyph glyph-name="z" unicode="z" horiz-adv-x="492" 
d="M37 414v111h422v-96l-267 -318h273v-111h-442v96l268 318h-254z" />
    <glyph glyph-name="braceleft" unicode="{" horiz-adv-x="328" 
d="M88 710c0 17.8633 8.94824 30 23 30h176v-127h-55v-181c0 -33.4424 -19.0918 -55.4551 -38 -72c17.8984 -16.7051 38 -39.0615 38 -72v-192h55v-127h-176c-14.0166 0 -23 12.1553 -23 30v235c0 37.0459 -25.9512 65.084 -55 72v110c31.6426 0 55 38.1719 55 70v224z" />
    <glyph glyph-name="bar" unicode="|" horiz-adv-x="264" 
d="M65 -130v905h135v-905h-135z" />
    <glyph glyph-name="braceright" unicode="}" horiz-adv-x="328" 
d="M134 360c-18.9248 16.5596 -38 38.54 -38 72v181h-55v127h176c13.3057 0 23 -12.6631 23 -30v-224c0 -32.1924 22.6338 -70 54 -70v-110c-28.1455 -7.03613 -54 -35.4561 -54 -72v-235c0 -17.8633 -8.94824 -30 -23 -30h-176v127h55v192c0 33.4424 19.0918 55.4551 38 72
z" />
    <glyph glyph-name="asciitilde" unicode="~" horiz-adv-x="584" 
d="M201 273c-34.834 0 -63.999 -19.4971 -63.999 -50.999h-87c0 27.9658 17.1885 61.127 32.5 83c23.5898 33.7002 61.4902 62 119.5 62c56.6973 0 96.2031 -27.582 138 -44.5c14 -5.66699 28.667 -8.5 44 -8.5c33.6826 0 57.2852 17.7627 65.999 41
c2 5.33594 3 8.66895 3 9.99902h85c0 -24.3164 -18.498 -57.8594 -33 -78c-24.3662 -33.8418 -62.8613 -65 -122 -65c-57.1104 0 -96.4492 26.79 -139 43c-14 5.33301 -28.333 8 -43 8z" />
    <glyph glyph-name="uni00A0" unicode="&#xa0;" horiz-adv-x="233" 
 />
    <glyph glyph-name="exclamdown" unicode="&#xa1;" horiz-adv-x="307" 
d="M234 429v-435h-160v435h160zM234 711v-166h-160v166h160z" />
    <glyph glyph-name="cent" unicode="&#xa2;" horiz-adv-x="606" 
d="M347 129c27.6436 7.53906 55.9863 24.5928 66.999 48.001l156 -48c-29.3174 -64.1318 -93.8203 -111.327 -166 -130.5c-21.333 -5.66699 -40.333 -8.5 -57 -8.5v-110h-69v111c-75.5176 5.69922 -132.825 44.7041 -171.999 89.999c-36.8418 42.5977 -67 103.513 -67 177
c0 118.293 58.0957 196.145 135.5 240.5c29.667 17 64.167 28.5 103.5 34.5v112h69v-112c106.044 -3.07422 180.479 -59.4336 221 -137l-155 -47c-12.6152 21.79 -36.9961 41.9473 -66 45v-265zM277.999 387.001c-46.3604 -14.5703 -74 -68.1328 -74 -129.001
c0 -57.126 32.0059 -103.002 74 -120.999v250z" />
    <glyph glyph-name="sterling" unicode="&#xa3;" horiz-adv-x="564" 
d="M217 16c-45.3965 0 -96.6465 -12.9473 -134.999 -25.001l-34 114c48.0479 34.6396 92.7061 90.7725 98.999 160h-90v119h64c-20.0879 43.7197 -48.001 90.9707 -48.001 150c0 88.4775 64.1553 143.131 131.5 167c26.333 9.33301 54.5 14 84.5 14
c96.0039 0 172.039 -47.5498 218.001 -105l-82 -98c-27.6611 34.0439 -81.041 74 -137 74c-41.8916 0 -73 -27.3389 -73 -69c0 -20.667 5.66699 -41.667 17 -63s22 -44.666 32 -69.999h187v-119h-167c-6.7832 -62.7422 -36.6104 -100.422 -76 -142
c25.791 8.9707 47.0039 14 77 14c45.6504 0 87.3486 -16 133 -16c27.7207 0 45.7666 5.86816 69 14l39 -118c-27.0264 -16.4512 -75.1787 -32 -117 -32c-69.5381 0 -121.668 31 -192 31z" />
    <glyph glyph-name="yen" unicode="&#xa5;" horiz-adv-x="726" 
d="M603 416v-103h-122l-38 -71v-31h161v-103h-161v-108h-163v108h-160v103h160v33l-37 69h-122v103h70l-160 294h177l153 -326l156 326h179l-162 -294h69z" />
    <glyph glyph-name="brokenbar" unicode="&#xa6;" 
d="M202 260v-390h-135v390h135zM202 775v-390h-135v390h135z" />
    <glyph glyph-name="section" unicode="&#xa7;" horiz-adv-x="541" 
d="M471 223c20.207 -21.7617 30 -55.8652 30 -101.002c0 -110.85 -68.4316 -175.623 -154.499 -199c-27 -7.33301 -52.167 -11 -75.5 -11c-101.718 0 -176.357 54.584 -223 109l102 98c30.4512 -31.501 61.377 -55 113 -55c36.4463 0 72 16.0381 72 52
c0 34.5391 -29.8682 37.8867 -61 41c-120.868 9.12207 -212 65.666 -212 184c0 31.3018 8.02637 51.4033 15 70c-18.6094 20.3018 -36 64.1631 -36 107c0 92.668 63.043 152.321 130.5 180.5c26.333 11 55.166 16.5 86.499 16.5c115.116 0 175.312 -67.9727 222.999 -134
l-122 -58c-16.5859 28.0684 -47.043 50 -91 50c-36.6436 0 -66 -17.6816 -66 -52c0 -37.8613 27.6211 -46.999 65 -46.999c91.3203 -2.40332 163.708 -32.7725 200.501 -92c13.667 -22 20.5 -49 20.5 -81c0 -30.3271 -6.80469 -61.6865 -17 -77.999zM274 345.999
c-13.7617 0 -35.8066 2.90332 -44 7c-8.66699 -7.33301 -13 -18.666 -13 -33.999c0 -40.7812 37.6699 -49.9551 75.5 -52c12.333 -0.674805 22.5 -2.3418 30.5 -5c8.25 5.89258 14 20.5273 14 33.999c0 34.0859 -29.4258 50 -63 50z" />
    <glyph glyph-name="dieresis" unicode="&#xa8;" horiz-adv-x="508" 
d="M83 593v129h132v-129h-132zM293 593v129h132v-129h-132z" />
    <glyph glyph-name="copyright" unicode="&#xa9;" horiz-adv-x="845" 
d="M419 -7c-175.677 0 -295.784 93.6084 -349.499 218.001c-19 44 -28.5 92 -28.5 144c0 172.28 101.519 282.65 227.5 332.499c46.333 18.333 96.5 27.5 150.5 27.5c177.573 0 301.107 -92.0723 356 -217c19.333 -44 29 -91.667 29 -143
c0 -113.914 -47.6523 -200.25 -109.5 -258.5c-63.3564 -59.666 -157.144 -103.5 -275.501 -103.5zM419.001 49.001c148.784 0 252.362 76.5322 299 181c16.667 37.333 25 78.666 25 123.999c0 144.697 -89.1406 239.337 -195 281.5c-39.333 15.667 -82.333 23.5 -129 23.5
c-147.18 0 -247.931 -80.2773 -293 -184.5c-16 -37 -24 -76.833 -24 -119.5c0 -144.845 86.3154 -238.682 191 -281.999c38.667 -16 80.667 -24 126 -24zM662.001 250.001c-39.5566 -79.0928 -115.423 -135.999 -234 -135.999c-122.403 0 -206.084 59.7021 -242 146.5
c-12 29 -18 60.167 -18 93.5c0 113.393 63.5332 186.786 146.5 220.999c32.333 13.333 69.833 20 112.5 20c115.459 0 195.447 -56.0088 233 -135l-155 -48c-15.3154 28.4443 -40.4648 48 -79.001 48c-57.7139 0 -94 -47.2725 -94 -106c0 -59.4385 36.8848 -105 95 -105
c36.9551 0 65.3086 21.7588 79.001 48z" />
    <glyph glyph-name="ordfeminine" unicode="&#xaa;" horiz-adv-x="448" 
d="M281 401c-25.9316 -36.0791 -66.5215 -65 -123.001 -65c-69.7793 0 -121 46.5146 -121 116c0 80.9219 68.5947 122 150 122c29.0664 0 57.5498 -4.47461 76 -15v15c0 41.333 -22.333 62 -67 62c-47.499 0 -76.7031 -17.7266 -109 -40l-33 71c46 31.333 97 47 153 47
c104.574 0 169 -50.1328 169 -153v-89c0 -22.7725 6.55078 -30.666 28 -32v-97c-16.2617 -3.25195 -35.7197 -6 -53 -6c-39.333 0.666992 -61.666 16.667 -66.999 48zM142.999 462c0 -25.3105 22.873 -43.001 49 -43.001c21.5938 0 44.1943 10.375 56 21
c10 6.66699 15 15.334 15 26.001v33c-13.8008 6.90039 -36.418 12 -56 12c-33.5615 0 -64 -16.9951 -64 -49z" />
    <glyph glyph-name="guillemotleft" unicode="&#xab;" horiz-adv-x="677" 
d="M34 293l269 193v-129l-143 -98l143 -91v-129l-269 178v76zM352 293l270 193v-129l-143 -98l143 -91v-129l-270 178v76z" />
    <glyph glyph-name="logicalnot" unicode="&#xac;" horiz-adv-x="625" 
d="M563 415v-317h-135v173h-372v144h507z" />
    <glyph glyph-name="uni00AD" unicode="&#xad;" horiz-adv-x="615" 
d="M54 203v144h507v-144h-507z" />
    <glyph glyph-name="registered" unicode="&#xae;" horiz-adv-x="845" 
d="M420 -7c-176.533 0 -296.572 93.1152 -350.5 218.001c-19 44 -28.5 92 -28.5 144c0 172.28 101.519 282.65 227.5 332.499c46.333 18.333 96.833 27.5 151.5 27.5c176.723 0 300.321 -92.5586 355 -217c19.333 -44 29 -91.667 29 -143
c0 -113.914 -47.6523 -200.25 -109.5 -258.5c-63.0186 -59.3477 -157.056 -103.5 -274.5 -103.5zM421 48.001c147.064 0 248.997 78.9941 294.5 183c16.333 37.333 24.5 78 24.5 122c0 145.037 -86.3496 238.862 -191.5 282.001c-39 16 -81.5 24 -127.5 24
c-147.639 0 -247.039 -80.4971 -291.5 -185.5c-15.667 -37 -23.5 -76.833 -23.5 -119.5c0 -143.661 84.0742 -238.997 188 -282.001c38.667 -16 81 -24 127 -24zM594 426.001c0 -56.375 -33.6523 -104.626 -72 -125l100 -161h-125l-87 140h-43v-140h-112v434h197
c67.334 0 112.073 -45.4697 131.5 -94.5c7 -17.667 10.5 -35.5 10.5 -53.5zM484 426.001c0 31.8828 -16.7793 50 -45 50h-72v-100h74c28.6846 0 43 19.0361 43 50z" />
    <glyph glyph-name="macron" unicode="&#xaf;" horiz-adv-x="428" 
d="M62 621v97h304v-97h-304z" />
    <glyph glyph-name="degree" unicode="&#xb0;" horiz-adv-x="295" 
d="M37 618c0 61.1436 47.9785 106 110 106c62.8896 0 110 -44.3281 110 -106c0 -67.4824 -43.4277 -114 -110 -114c-65.1885 0 -110 47.917 -110 114zM147 648c-18.8633 0 -35 -13.9805 -35 -34c0 -20.0762 17.3896 -35 35 -35c19.3438 0 35 14.75 35 35
c0 19.0352 -14.9414 34 -35 34z" />
    <glyph glyph-name="plusminus" unicode="&#xb1;" horiz-adv-x="476" 
d="M55 16v127h366v-127h-366zM421 445v-127h-111v-121h-143v121h-112v127h112v121h143v-121h111z" />
    <glyph glyph-name="twosuperior" unicode="&#xb2;" horiz-adv-x="428" 
d="M225 731c102.34 0 171.999 -41.8125 171.999 -139c0 -84.8232 -65.2168 -116.858 -129 -137c-57.333 -16.667 -86 -39.334 -86 -68h200v-91h-353c0 120.74 46.0469 167.81 132 204c41.6797 17.3662 91.4102 31.376 118.501 62c7.66699 8.66699 11.5 19 11.5 31
c0 37.9668 -37.5049 47 -79 47c-52.4951 0 -96.1426 -21.5781 -122.001 -46l-59 68c32.7979 41.4287 111.28 69 194.001 69z" />
    <glyph glyph-name="threesuperior" unicode="&#xb3;" horiz-adv-x="415" 
d="M276 524c58.8301 -8.23633 107 -48.1123 107 -110.999c0 -93.0029 -96.7578 -124 -190 -124c-79.2734 0 -143.188 22.7744 -167 76l50 70c15.9453 -31.9219 66.7539 -52 116 -52c40.0225 0 96 8.10742 96 44c0 45.7842 -88.4268 49 -148 49h-25v85h24
c54.3262 0 134 3.26758 134 47c0 29.3018 -45.6631 37 -76 37c-54.0967 0 -85.4648 -19.1387 -112 -47l-59 75c33.5195 39.1055 97.8896 58 170 58c74.6426 0 134.899 -25.9502 163.5 -71.5c9 -14.333 13.5 -29.833 13.5 -46.5c0 -54 -46.8164 -80.0859 -97 -89.001z" />
    <glyph glyph-name="acute" unicode="&#xb4;" horiz-adv-x="269" 
d="M148 572l-102 28l52 130h145z" />
    <glyph glyph-name="mu" unicode="&#xb5;" horiz-adv-x="652" 
d="M615 0c-27.582 -5.5166 -48.8037 -7.99902 -77 -7.99902c-56 1.33301 -88 23.666 -96 66.999l-3 32c-15.793 -39.4814 -59.1787 -72.9307 -98.5 -90.5c-15.667 -7 -31.5 -10.5 -47.5 -10.5c-35.6201 0 -71.332 19.6602 -77 48l10 -251h-160v738h160v-301
c0 -58.7617 20.9131 -99 77 -99c53.2852 0 88.0342 34.0635 111 76v324h160v-345c0 -32.668 10.6484 -42.3613 41 -45v-135z" />
    <glyph glyph-name="paragraph" unicode="&#xb6;" horiz-adv-x="674" 
d="M35 451c0 170.499 108.243 259 282 259h316v-119h-70v-671h-135v279h-42v-279h-135v279c-108.794 0 -172.712 65.1357 -200.5 148.5c-10.333 31 -15.5 65.5 -15.5 103.5zM251 591c-58.3457 -4.48828 -84 -68.8555 -84 -136.001c0 -68.1846 29.2969 -130.185 84 -137.999
v274zM428 591h-42v-274h42v274z" />
    <glyph glyph-name="periodcentered" unicode="&#xb7;" horiz-adv-x="238" 
d="M54 240v166h130v-166h-130z" />
    <glyph glyph-name="cedilla" unicode="&#xb8;" horiz-adv-x="343" 
d="M51 -127c17.085 -10.873 59.8887 -20 90 -20c27.7881 0 56 5.72949 56 32c0 25.3633 -26.7305 32 -54 32c-23.0322 0 -62.2783 -6.43945 -79 -11l62 126l60 -18l-36 -52c8.66699 2 18.667 3 30 3c49.2949 0 90 -23.2637 90 -74c0 -67.0479 -62.8369 -95 -140 -95
c-43.3945 0 -79.4854 9.19434 -109 21z" />
    <glyph glyph-name="onesuperior" unicode="&#xb9;" horiz-adv-x="309" 
d="M288 389v-92h-241v92h77v243c-13.7715 -19.2803 -42.8799 -37.0244 -67 -46.5c-9.33301 -3.66699 -18 -5.5 -26 -5.5v93c33.6055 0 66.668 30.668 84 48c6 6 9 9.33301 9 10h95v-342h69z" />
    <glyph glyph-name="ordmasculine" unicode="&#xba;" horiz-adv-x="441" 
d="M220 336c-91.6973 0 -150.77 49.7363 -175.499 117c-8.33301 22.667 -12.5 46.667 -12.5 72c0 87.5312 45.7861 145.948 108 173.5c23.333 10.333 50 15.5 80 15.5c92.0654 0 151.677 -49.4824 176.499 -117c8.33301 -22.667 12.5 -46.667 12.5 -72
c0 -87.7344 -45.8066 -146.127 -108.5 -173.5c-23.667 -10.333 -50.5 -15.5 -80.5 -15.5zM220.001 617c-47.207 0 -73 -42 -73 -92c0 -50.0244 25.7725 -92 73 -92c47.207 0 73 42 73 92c0 50.0244 -25.7725 92 -73 92z" />
    <glyph glyph-name="guillemotright" unicode="&#xbb;" horiz-adv-x="677" 
d="M643 217l-270 -178v129l144 91l-144 98v129l270 -193v-76zM324 217l-270 -178v129l144 91l-144 98v129l270 -193v-76z" />
    <glyph glyph-name="onequarter" unicode="&#xbc;" horiz-adv-x="971" 
d="M780 1v88h-218v91l247 251h64v-251h62v-91h-62v-88h-93zM784 180v138l-134 -138h134zM298 389v-92h-241v92h77v243c-13.7715 -19.2803 -42.8799 -37.0244 -67 -46.5c-9.33301 -3.66699 -18 -5.5 -26 -5.5v93c33.6055 0 66.668 30.668 84 48c6 6 9 9.33301 9 10h95v-342
h69zM191 56l282 324l256 339l72 -64l-273 -316l-266 -348z" />
    <glyph glyph-name="onehalf" unicode="&#xbd;" horiz-adv-x="993" 
d="M796 435c97.1133 0 158 -44.9336 158 -138.999c0 -82.5781 -57.833 -116.611 -119 -137c-53.333 -16.667 -80 -39.334 -80 -68.001h199v-91h-341c0 118.404 41.1406 166.578 123 204c38.6797 17.582 84.9434 31.5967 109.5 62c7 8.66699 10.5 19 10.5 31
c0 37.3545 -33.7002 47 -74 47c-48.6221 0 -88.3994 -23.3994 -112 -47l-54 69c33.0557 44.0742 101.823 69 180 69zM297 389.001v-92h-241v92h77v243c-13.7715 -19.2803 -42.8799 -37.0244 -67 -46.5c-9.33301 -3.66699 -18 -5.5 -26 -5.5v93
c33.6055 0 66.668 30.668 84 48c6 6 9 9.33301 9 10h95v-342h69zM153 56.001l282 324l256 339l72 -64l-273 -316l-266 -348z" />
    <glyph glyph-name="threequarters" unicode="&#xbe;" horiz-adv-x="983" 
d="M288 524c58.8301 -8.23633 107 -48.1123 107 -110.999c0 -93.0029 -96.7578 -124 -190 -124c-79.2734 0 -143.188 22.7744 -167 76l50 70c15.9453 -31.9219 66.7539 -52 116 -52c40.0225 0 96 8.10742 96 44c0 45.7842 -88.4268 49 -148 49h-25v85h24
c54.3262 0 134 3.26758 134 47c0 29.3018 -45.6631 37 -76 37c-54.0967 0 -85.4648 -19.1387 -112 -47l-59 75c33.5195 39.1055 97.8896 58 170 58c74.6426 0 134.899 -25.9502 163.5 -71.5c9 -14.333 13.5 -29.833 13.5 -46.5c0 -54 -46.8164 -80.0859 -97 -89.001z
M789 1.00098v88h-218v91l247 251h64v-251h62v-91h-62v-88h-93zM793 180.001v138l-134 -138h134zM223 56.001l282 324l256 339l72 -64l-273 -316l-266 -348z" />
    <glyph glyph-name="questiondown" unicode="&#xbf;" horiz-adv-x="487" 
d="M455 -84c-31.7764 -74.5527 -108.028 -129 -210.001 -129c-94.6602 0 -161.368 42.7373 -194 108c-12.667 25.333 -19 56 -19 92c0 106.088 64.459 148.968 136.5 187.5c26.3047 14.0693 51.2764 28.6855 68 50.5c7.66699 10 11.5 22 11.5 36h131
c0 -79.25 -27.041 -123.483 -80 -152c-39.3916 -22.5098 -84.5244 -43.7822 -111.999 -79.5c-10 -13 -15 -27.5 -15 -43.5c0 -42.917 35.9492 -70 78 -70c52.8398 0 81.3486 39.5479 102 72zM375.999 506v-150h-131v150h131z" />
    <glyph glyph-name="Agrave" unicode="&#xc0;" horiz-adv-x="673" 
d="M-2 0l273 710h133l272 -710h-174l-55 159h-221l-54 -159h-174zM337 536l-85 -264h167zM196 916h145l52 -130l-101 -28z" />
    <glyph glyph-name="Aacute" unicode="&#xc1;" horiz-adv-x="673" 
d="M-2 0l273 710h133l272 -710h-174l-55 159h-221l-54 -159h-174zM337 536l-85 -264h167zM383 757l-102 28l52 130h145z" />
    <glyph glyph-name="Acircumflex" unicode="&#xc2;" horiz-adv-x="673" 
d="M-2 0l273 710h133l272 -710h-174l-55 159h-221l-54 -159h-174zM337 536l-85 -264h167zM170 807l110 108h115l109 -108l-82 -36l-85 63l-85 -63z" />
    <glyph glyph-name="Atilde" unicode="&#xc3;" horiz-adv-x="673" 
d="M-2 0l273 710h133l272 -710h-174l-55 159h-221l-54 -159h-174zM337 536l-85 -264h167zM395 865c29.4785 0 51.999 22.8584 51.999 50.002h86c0 -25.0811 -16.3643 -57.8125 -29.5 -79c-19.6709 -31.7285 -51.7734 -63.001 -102.5 -63.001
c-45.6396 0 -71.5566 23.7783 -101.999 39c-9.33301 4.66699 -19.666 7 -30.999 7c-28.8887 0 -47 -21.3594 -47 -48h-86c0 51.8076 34.4346 99.7061 67.5 123.999c16.333 12 36.166 18 59.499 18c45.9834 0 70.9316 -24.3916 101 -40.5c9.33301 -5 20 -7.5 32 -7.5z" />
    <glyph glyph-name="Adieresis" unicode="&#xc4;" horiz-adv-x="673" 
d="M-2 0l273 710h133l272 -710h-174l-55 159h-221l-54 -159h-174zM337 536l-85 -264h167zM166 779v129h132v-129h-132zM376 779v129h132v-129h-132z" />
    <glyph glyph-name="Aring" unicode="&#xc5;" horiz-adv-x="673" 
d="M-2 0l273 710h133l272 -710h-174l-55 159h-221l-54 -159h-174zM337 536l-85 -264h167zM337 752c-58.9707 0 -107 24.1299 -107 81c0 57.7891 47.4385 82 107 82c59.6338 0 106 -24.1855 106 -82c0 -56.8818 -46.999 -81 -106 -81zM377 834c0 20.8643 -18.6357 34 -40 34
c-21.3701 0 -40 -13.1328 -40 -34c0 -20.8584 18.6211 -35 40 -35c21.125 0 40 13.7451 40 35z" />
    <glyph glyph-name="AE" unicode="&#xc6;" horiz-adv-x="977" 
d="M935 710v-144h-310v-133h256v-143h-256v-146h319v-144h-482v159h-215l-91 -159h-174l437 710h516zM450 303v224l-133 -224h133z" />
    <glyph glyph-name="Ccedilla" unicode="&#xc7;" horiz-adv-x="664" 
d="M283 -127c17.0869 -10.8721 59.8877 -20 90 -20c27.7881 0 56 5.72949 56 32c0 25.3633 -26.7305 32 -54 32c-23.0322 0 -62.2783 -6.43945 -79 -11l44 89c-99.2988 7.19531 -175.386 61.2832 -225.001 123c-47.709 59.3457 -87 143.271 -87 243
c0 157.244 88.3574 268.718 197.5 322c42.333 20.667 90.5 31 144.5 31c129.984 0 225.502 -66.7207 269 -155l-126 -88c-22.2979 56.7588 -70.9023 97 -146.999 97c-114.343 0 -171 -99.6152 -171 -213c0 -91.9277 41.6602 -164.501 102 -197.5
c21.333 -11.667 45 -17.5 71 -17.5c74.4492 0 124.11 41.5986 145 98l135 -79c-35.6396 -89.0977 -130.931 -149.992 -242 -162l-24 -35c8.66699 2 18.667 3 30 3c49.2949 0 90 -23.2637 90 -74c0 -67.0479 -62.8369 -95 -140 -95c-43.3945 0 -79.4854 9.19434 -109 21z" />
    <glyph glyph-name="Egrave" unicode="&#xc8;" horiz-adv-x="601" 
d="M567 144v-144h-499v710h490v-144h-326v-138h280v-133h-280v-151h335zM180 916h145l52 -130l-101 -28z" />
    <glyph glyph-name="Eacute" unicode="&#xc9;" horiz-adv-x="601" 
d="M367 757l-102 28l52 130h145zM567 144v-144h-499v710h490v-144h-326v-138h280v-133h-280v-151h335z" />
    <glyph glyph-name="Ecircumflex" unicode="&#xca;" horiz-adv-x="601" 
d="M154 807l110 108h115l109 -108l-82 -36l-85 63l-85 -63zM567 144v-144h-499v710h490v-144h-326v-138h280v-133h-280v-151h335z" />
    <glyph glyph-name="Edieresis" unicode="&#xcb;" horiz-adv-x="601" 
d="M150 779v129h132v-129h-132zM360 779v129h132v-129h-132zM567 144v-144h-499v710h490v-144h-326v-138h280v-133h-280v-151h335z" />
    <glyph glyph-name="Igrave" unicode="&#xcc;" horiz-adv-x="300" 
d="M68 0v710h164v-710h-164zM8 916h145l52 -130l-101 -28z" />
    <glyph glyph-name="Iacute" unicode="&#xcd;" horiz-adv-x="300" 
d="M68 0v710h164v-710h-164zM195 757l-102 28l52 130h145z" />
    <glyph glyph-name="Icircumflex" unicode="&#xce;" horiz-adv-x="300" 
d="M68 0v710h164v-710h-164zM-17 807l110 108h115l109 -108l-82 -36l-85 63l-85 -63z" />
    <glyph glyph-name="Idieresis" unicode="&#xcf;" horiz-adv-x="300" 
d="M68 0v710h164v-710h-164zM-21 779v129h132v-129h-132zM189 779v129h132v-129h-132z" />
    <glyph glyph-name="Eth" unicode="&#xd0;" horiz-adv-x="722" 
d="M72 0v298h-43v118h43v294h265c175.045 0 286.27 -86.8398 331.5 -216.5c15 -43 22.5 -88.833 22.5 -137.5c0 -171.848 -83.5049 -281.838 -208.5 -330.5c-43.667 -17 -92.167 -25.5 -145.5 -25.5h-265zM524 356c0 123.954 -63.5586 210 -187 210h-101v-150h128v-118h-128
v-154h101c123.112 0 187 89.1338 187 212z" />
    <glyph glyph-name="Ntilde" unicode="&#xd1;" horiz-adv-x="759" 
d="M232 0h-164v710h128l331 -417v417h164v-710h-132l-327 406v-406zM435 864c29.4785 0 51.998 22.8584 51.998 50.002h86c0 -25.0811 -16.3643 -57.8125 -29.5 -79c-19.6709 -31.7285 -51.7734 -63.001 -102.5 -63.001c-45.6396 0 -71.5566 23.7783 -101.999 39
c-9.33301 4.66699 -19.666 7 -30.999 7c-28.8887 0 -47 -21.3594 -47 -48h-86c0 51.8076 34.4346 99.7061 67.5 123.999c16.334 12 36.167 18 59.5 18c45.9834 0 70.9316 -24.3916 101 -40.5c9.33301 -5 20 -7.5 32 -7.5z" />
    <glyph glyph-name="Ograve" unicode="&#xd2;" horiz-adv-x="734" 
d="M366 -6c-109.557 0 -190.745 51.498 -244.5 112.5c-52.0137 59.0273 -93.5 145.69 -93.5 249.5c0 104.519 43.1543 191.464 96.5 249.5c54.4736 59.2627 136.581 108.5 244.5 108.5c109.805 0 190.834 -51.4951 244.5 -113c51.3691 -58.873 92.5 -145.683 92.5 -248
c0 -104.252 -43.166 -191.383 -96 -249.5c-53.9219 -59.3145 -136.374 -109.5 -244 -109.5zM195.001 354c0 -91.2529 38.6572 -162.857 98.499 -196c21.667 -12 46.5 -18 74.5 -18c114.611 0 171 101.969 171 216c0 91.4092 -38.9512 161.667 -99 194.5
c-21.333 11.667 -45.666 17.5 -72.999 17.5c-90.8594 0 -140.562 -63.9639 -161 -135.5c-7.33301 -25.667 -11 -51.834 -11 -78.5zM228 915.999h145l52 -130l-101 -28z" />
    <glyph glyph-name="Oacute" unicode="&#xd3;" horiz-adv-x="734" 
d="M415 757l-102 28l52 130h145zM366 -6c-109.557 0 -190.745 51.498 -244.5 112.5c-52.0137 59.0273 -93.5 145.69 -93.5 249.5c0 104.519 43.1543 191.464 96.5 249.5c54.4736 59.2627 136.581 108.5 244.5 108.5c109.805 0 190.834 -51.4951 244.5 -113
c51.3691 -58.873 92.5 -145.683 92.5 -248c0 -104.252 -43.166 -191.383 -96 -249.5c-53.9219 -59.3145 -136.374 -109.5 -244 -109.5zM195.001 354c0 -91.2529 38.6572 -162.857 98.499 -196c21.667 -12 46.5 -18 74.5 -18c114.611 0 171 101.969 171 216
c0 91.4092 -38.9512 161.667 -99 194.5c-21.333 11.667 -45.666 17.5 -72.999 17.5c-90.8594 0 -140.562 -63.9639 -161 -135.5c-7.33301 -25.667 -11 -51.834 -11 -78.5z" />
    <glyph glyph-name="Ocircumflex" unicode="&#xd4;" horiz-adv-x="734" 
d="M202 807l110 108h115l109 -108l-82 -36l-85 63l-85 -63zM366 -6c-109.557 0 -190.745 51.498 -244.5 112.5c-52.0137 59.0273 -93.5 145.69 -93.5 249.5c0 104.519 43.1543 191.464 96.5 249.5c54.4736 59.2627 136.581 108.5 244.5 108.5
c109.805 0 190.834 -51.4951 244.5 -113c51.3691 -58.873 92.5 -145.683 92.5 -248c0 -104.252 -43.166 -191.383 -96 -249.5c-53.9219 -59.3145 -136.374 -109.5 -244 -109.5zM195.001 354c0 -91.2529 38.6572 -162.857 98.499 -196c21.667 -12 46.5 -18 74.5 -18
c114.611 0 171 101.969 171 216c0 91.4092 -38.9512 161.667 -99 194.5c-21.333 11.667 -45.666 17.5 -72.999 17.5c-90.8594 0 -140.562 -63.9639 -161 -135.5c-7.33301 -25.667 -11 -51.834 -11 -78.5z" />
    <glyph glyph-name="Otilde" unicode="&#xd5;" horiz-adv-x="734" 
d="M366 -6c-109.557 0 -190.745 51.498 -244.5 112.5c-52.0137 59.0273 -93.5 145.69 -93.5 249.5c0 104.519 43.1543 191.464 96.5 249.5c54.4736 59.2627 136.581 108.5 244.5 108.5c109.805 0 190.834 -51.4951 244.5 -113c51.3691 -58.873 92.5 -145.683 92.5 -248
c0 -104.252 -43.166 -191.383 -96 -249.5c-53.9219 -59.3145 -136.374 -109.5 -244 -109.5zM195.001 354c0 -91.2529 38.6572 -162.857 98.499 -196c21.667 -12 46.5 -18 74.5 -18c114.611 0 171 101.969 171 216c0 91.4092 -38.9512 161.667 -99 194.5
c-21.333 11.667 -45.666 17.5 -72.999 17.5c-90.8594 0 -140.562 -63.9639 -161 -135.5c-7.33301 -25.667 -11 -51.834 -11 -78.5zM427 864.999c29.4785 0 52 22.8574 52 50.001h86c0 -25.0811 -16.3643 -57.8125 -29.5 -79c-19.6719 -31.7285 -51.7744 -63 -102.501 -63
c-45.6396 0 -71.5566 23.7783 -101.999 39c-9.33301 4.66699 -19.666 7 -30.999 7c-28.8887 0 -47 -21.3594 -47 -48h-86c0 51.8076 34.4346 99.7061 67.5 123.999c16.333 12 36.166 18 59.499 18c45.9834 0 70.9316 -24.3916 101 -40.5c9.33301 -5 20 -7.5 32 -7.5z" />
    <glyph glyph-name="Odieresis" unicode="&#xd6;" horiz-adv-x="734" 
d="M198 779v129h132v-129h-132zM408 779v129h132v-129h-132zM366 -6c-109.557 0 -190.745 51.498 -244.5 112.5c-52.0137 59.0273 -93.5 145.69 -93.5 249.5c0 104.519 43.1543 191.464 96.5 249.5c54.4736 59.2627 136.581 108.5 244.5 108.5
c109.805 0 190.834 -51.4951 244.5 -113c51.3691 -58.873 92.5 -145.683 92.5 -248c0 -104.252 -43.166 -191.383 -96 -249.5c-53.9219 -59.3145 -136.374 -109.5 -244 -109.5zM195.001 354c0 -91.2529 38.6572 -162.857 98.499 -196c21.667 -12 46.5 -18 74.5 -18
c114.611 0 171 101.969 171 216c0 91.4092 -38.9512 161.667 -99 194.5c-21.333 11.667 -45.666 17.5 -72.999 17.5c-90.8594 0 -140.562 -63.9639 -161 -135.5c-7.33301 -25.667 -11 -51.834 -11 -78.5z" />
    <glyph glyph-name="multiply" unicode="&#xd7;" horiz-adv-x="484" 
d="M437 181l-100 -99l-96 95l-95 -95l-99 99l95 95l-90 91l100 99l90 -90l90 90l99 -99l-90 -90z" />
    <glyph glyph-name="Oslash" unicode="&#xd8;" horiz-adv-x="736" 
d="M623 591c47.3828 -58.9404 84 -139.751 84 -238c0 -104.252 -43.166 -191.383 -96 -249.5c-53.9219 -59.3145 -136.374 -109.5 -244 -109.5c-52.667 0 -100.667 11.333 -144 34l-20 -28h-176l84 119c-45.79 58.7061 -82 139.362 -82 237
c0 104.519 43.1543 191.464 96.501 249.5c54.4736 59.2627 136.581 108.5 244.5 108.5c56.46 0 101.51 -13.2549 140.999 -33l20 29h177zM540 356c0 32.667 -5.66797 64 -17.001 94l-213 -299c18.667 -7.33301 38.334 -11 59.001 -11c114.611 0 171 101.969 171 216z
M422.999 558c-16.2676 6.25684 -33.4219 10 -55 10c-90.8594 0 -140.562 -63.9639 -161 -135.5c-7.33301 -25.667 -11 -51.834 -11 -78.5c0 -34.667 5.33301 -66 16 -94z" />
    <glyph glyph-name="Ugrave" unicode="&#xd9;" horiz-adv-x="745" 
d="M221 347c0 -111.656 39.3906 -207 151.001 -207c112.168 0 151 95.2861 151 207v363h164v-363c0 -161.051 -61.7432 -273.848 -173.5 -325.5c-39.667 -18.333 -86.834 -27.5 -141.501 -27.5c-212.732 0 -315 142.806 -315 353v363h164v-363zM231.001 916h145l52 -130
l-101 -28z" />
    <glyph glyph-name="Uacute" unicode="&#xda;" horiz-adv-x="745" 
d="M418 757l-102 28l52 130h145zM221 347c0 -111.656 39.3906 -207 151.001 -207c112.168 0 151 95.2861 151 207v363h164v-363c0 -161.051 -61.7432 -273.848 -173.5 -325.5c-39.667 -18.333 -86.834 -27.5 -141.501 -27.5c-212.732 0 -315 142.806 -315 353v363h164v-363z
" />
    <glyph glyph-name="Ucircumflex" unicode="&#xdb;" horiz-adv-x="745" 
d="M205 807l110 108h115l109 -108l-82 -36l-85 63l-85 -63zM221 347c0 -111.656 39.3906 -207 151.001 -207c112.168 0 151 95.2861 151 207v363h164v-363c0 -161.051 -61.7432 -273.848 -173.5 -325.5c-39.667 -18.333 -86.834 -27.5 -141.501 -27.5
c-212.732 0 -315 142.806 -315 353v363h164v-363z" />
    <glyph glyph-name="Udieresis" unicode="&#xdc;" horiz-adv-x="745" 
d="M201 779v129h132v-129h-132zM411 779v129h132v-129h-132zM221 347c0 -111.656 39.3906 -207 151.001 -207c112.168 0 151 95.2861 151 207v363h164v-363c0 -161.051 -61.7432 -273.848 -173.5 -325.5c-39.667 -18.333 -86.834 -27.5 -141.501 -27.5
c-212.732 0 -315 142.806 -315 353v363h164v-363z" />
    <glyph glyph-name="Yacute" unicode="&#xdd;" horiz-adv-x="648" 
d="M405 0h-164v244l-249 466h178l153 -326l156 326h178l-252 -468v-242zM369 757l-102 28l52 130h145z" />
    <glyph glyph-name="Thorn" unicode="&#xde;" horiz-adv-x="605" 
d="M355 586c110.193 0 182.118 -72.4326 214.5 -152c11.667 -28.667 17.5 -57.667 17.5 -87c0 -107.583 -59.1504 -185.169 -133.5 -221c-27.667 -13.333 -58.5 -20 -92.5 -20h-129v-106h-164v710h164v-124h123zM352.001 250c45.2373 0.000976562 71 48.6123 71 97
c0 49.8613 -30.374 96 -76 96h-115v-193h120z" />
    <glyph glyph-name="germandbls" unicode="&#xdf;" horiz-adv-x="560" 
d="M405 403c76.2246 -25.4082 130.999 -91.416 130.999 -191c0 -157.468 -130.004 -218 -286 -218v147c63.8008 0 118 26.8438 118 90c0 53.3086 -40.6797 88 -93 88h-22v143h20c37.0928 0 59 21.9229 59 58c0 38.1602 -25.4844 59 -62 59c-45.709 0 -64 -37.4141 -64 -82
v-497h-152v525c0 94.3926 66.209 150.736 139 175c28 9.33301 58.333 14 91 14c88.7363 0 155.851 -35.7568 185.001 -96c10 -20.667 15 -44 15 -70c0 -66.833 -32.6045 -124.702 -79 -145z" />
    <glyph glyph-name="agrave" unicode="&#xe0;" horiz-adv-x="590" 
d="M390 83c-39.8252 -51.2041 -102.398 -93 -185.999 -93c-84.2793 0 -141.189 42.0908 -168 100.5c-9.33301 20.333 -14 42.5 -14 66.5c0 90.4014 63.3652 139.604 134 162c27.333 8.66699 57.666 13 90.999 13c44.0576 0 88.1182 -7.70898 118 -22v24
c0 60.667 -35 91 -105 91c-70.291 0 -116.039 -25.6543 -164 -58l-47 100c61.9678 40.5176 131.819 68 227 68c152.365 0 249 -70.7725 249 -220v-135c0 -32.668 10.6484 -42.3613 41 -44.999v-135c-25.3477 -5.51074 -49.9512 -8 -77 -8
c-55.1475 1.25293 -87.4502 21.3994 -96 66.999zM173.001 171c0 -40.877 35.7832 -66 78.001 -66c36.7158 0 71.4561 14.6777 91 33c15.333 12 23 24.667 23 38v50c-24.3066 9.25977 -59.4316 17 -91.001 17c-51.0137 0 -101 -24.1553 -101 -72zM135.002 731h145l52 -130
l-101 -28z" />
    <glyph glyph-name="aacute" unicode="&#xe1;" horiz-adv-x="590" 
d="M390 83c-39.8252 -51.2041 -102.398 -93 -185.999 -93c-84.2793 0 -141.189 42.0908 -168 100.5c-9.33301 20.333 -14 42.5 -14 66.5c0 90.4014 63.3652 139.604 134 162c27.333 8.66699 57.666 13 90.999 13c44.0576 0 88.1182 -7.70898 118 -22v24
c0 60.667 -35 91 -105 91c-70.291 0 -116.039 -25.6543 -164 -58l-47 100c61.9678 40.5176 131.819 68 227 68c152.365 0 249 -70.7725 249 -220v-135c0 -32.668 10.6484 -42.3613 41 -44.999v-135c-25.3477 -5.51074 -49.9512 -8 -77 -8
c-55.1475 1.25293 -87.4502 21.3994 -96 66.999zM173.001 171c0 -40.877 35.7832 -66 78.001 -66c36.7158 0 71.4561 14.6777 91 33c15.333 12 23 24.667 23 38v50c-24.3066 9.25977 -59.4316 17 -91.001 17c-51.0137 0 -101 -24.1553 -101 -72zM322.002 572l-102 28l52 130
h145z" />
    <glyph glyph-name="acircumflex" unicode="&#xe2;" horiz-adv-x="590" 
d="M390 83c-39.8252 -51.2041 -102.398 -93 -185.999 -93c-84.2793 0 -141.189 42.0908 -168 100.5c-9.33301 20.333 -14 42.5 -14 66.5c0 90.4014 63.3652 139.604 134 162c27.333 8.66699 57.666 13 90.999 13c44.0576 0 88.1182 -7.70898 118 -22v24
c0 60.667 -35 91 -105 91c-70.291 0 -116.039 -25.6543 -164 -58l-47 100c61.9678 40.5176 131.819 68 227 68c152.365 0 249 -70.7725 249 -220v-135c0 -32.668 10.6484 -42.3613 41 -44.999v-135c-25.3477 -5.51074 -49.9512 -8 -77 -8
c-55.1475 1.25293 -87.4502 21.3994 -96 66.999zM173.001 171c0 -40.877 35.7832 -66 78.001 -66c36.7158 0 71.4561 14.6777 91 33c15.333 12 23 24.667 23 38v50c-24.3066 9.25977 -59.4316 17 -91.001 17c-51.0137 0 -101 -24.1553 -101 -72zM109.002 622l110 108h115
l109 -108l-82 -36l-85 63l-85 -63z" />
    <glyph glyph-name="atilde" unicode="&#xe3;" horiz-adv-x="590" 
d="M390 83c-39.8252 -51.2041 -102.398 -93 -185.999 -93c-84.2793 0 -141.189 42.0908 -168 100.5c-9.33301 20.333 -14 42.5 -14 66.5c0 90.4014 63.3652 139.604 134 162c27.333 8.66699 57.666 13 90.999 13c44.0576 0 88.1182 -7.70898 118 -22v24
c0 60.667 -35 91 -105 91c-70.291 0 -116.039 -25.6543 -164 -58l-47 100c61.9678 40.5176 131.819 68 227 68c152.365 0 249 -70.7725 249 -220v-135c0 -32.668 10.6484 -42.3613 41 -44.999v-135c-25.3477 -5.51074 -49.9512 -8 -77 -8
c-55.1475 1.25293 -87.4502 21.3994 -96 66.999zM173.001 171c0 -40.877 35.7832 -66 78.001 -66c36.7158 0 71.4561 14.6777 91 33c15.333 12 23 24.667 23 38v50c-24.3066 9.25977 -59.4316 17 -91.001 17c-51.0137 0 -101 -24.1553 -101 -72zM333.002 680
c29.4785 0 52 22.8584 52 50.002h86c0 -25.0791 -16.3643 -57.8135 -29.5 -79c-19.6709 -31.7285 -51.7725 -63.001 -102.499 -63.001c-45.6396 0 -71.5576 23.7783 -102 39c-9.33398 4.66699 -19.667 7 -31 7c-28.8887 0 -47 -21.3594 -47 -48h-86
c0 51.8076 34.4346 99.7061 67.5 123.999c16.333 12 36.166 18 59.499 18c45.9834 0 70.9316 -24.3916 101 -40.5c9.33301 -5 20 -7.5 32 -7.5z" />
    <glyph glyph-name="adieresis" unicode="&#xe4;" horiz-adv-x="590" 
d="M390 83c-39.8252 -51.2041 -102.398 -93 -185.999 -93c-84.2793 0 -141.189 42.0908 -168 100.5c-9.33301 20.333 -14 42.5 -14 66.5c0 90.4014 63.3652 139.604 134 162c27.333 8.66699 57.666 13 90.999 13c44.0576 0 88.1182 -7.70898 118 -22v24
c0 60.667 -35 91 -105 91c-70.291 0 -116.039 -25.6543 -164 -58l-47 100c61.9678 40.5176 131.819 68 227 68c152.365 0 249 -70.7725 249 -220v-135c0 -32.668 10.6484 -42.3613 41 -44.999v-135c-25.3477 -5.51074 -49.9512 -8 -77 -8
c-55.1475 1.25293 -87.4502 21.3994 -96 66.999zM173.001 171c0 -40.877 35.7832 -66 78.001 -66c36.7158 0 71.4561 14.6777 91 33c15.333 12 23 24.667 23 38v50c-24.3066 9.25977 -59.4316 17 -91.001 17c-51.0137 0 -101 -24.1553 -101 -72zM105.002 594v129h132v-129
h-132zM315.002 594v129h132v-129h-132z" />
    <glyph glyph-name="aring" unicode="&#xe5;" horiz-adv-x="590" 
d="M390 83c-39.8252 -51.2041 -102.398 -93 -185.999 -93c-84.2793 0 -141.189 42.0908 -168 100.5c-9.33301 20.333 -14 42.5 -14 66.5c0 90.4014 63.3652 139.604 134 162c27.333 8.66699 57.666 13 90.999 13c44.0576 0 88.1182 -7.70898 118 -22v24
c0 60.667 -35 91 -105 91c-70.291 0 -116.039 -25.6543 -164 -58l-47 100c61.9678 40.5176 131.819 68 227 68c152.365 0 249 -70.7725 249 -220v-135c0 -32.668 10.6484 -42.3613 41 -44.999v-135c-25.3477 -5.51074 -49.9512 -8 -77 -8
c-55.1475 1.25293 -87.4502 21.3994 -96 66.999zM173.001 171c0 -40.877 35.7832 -66 78.001 -66c36.7158 0 71.4561 14.6777 91 33c15.333 12 23 24.667 23 38v50c-24.3066 9.25977 -59.4316 17 -91.001 17c-51.0137 0 -101 -24.1553 -101 -72zM276.002 567
c-58.9707 0 -107 24.1289 -107 81c0 57.7891 47.4385 82 107 82c59.6338 0 106 -24.1855 106 -82c0 -56.8818 -46.999 -81 -106 -81zM316.002 649c0 20.8643 -18.6357 34 -40 34c-21.3701 0 -40 -13.1328 -40 -34c0 -20.8584 18.6211 -35 40 -35c21.125 0 40 13.7451 40 35z
" />
    <glyph glyph-name="ae" unicode="&#xe6;" horiz-adv-x="940" 
d="M413 95c-38.7041 -60.2061 -113.67 -105 -209 -105c-83.8975 0 -140.297 42.3252 -167 100.5c-9.33301 20.333 -14 42.5 -14 66.5c0 90.4014 63.3652 139.604 134 162c27.333 8.66699 57.333 13 90 13c42.3867 0 82.6035 -8.10547 113 -20
c1.13281 5.66211 1.80078 25.5645 4 30c-2.82031 59.2236 -39.7578 83 -104 83c-69.8818 0 -116.012 -25.5557 -163.001 -58l-48 100c63.0254 40.4316 131.327 68 227 68c80.8799 0 143.312 -23.3105 184.001 -64c43.4238 37.0381 102.211 64 181 64
c135.727 0 225.513 -69.5332 262.5 -168.5c12.333 -33 18.5 -67.833 18.5 -104.5c0 -15.5059 -1.43066 -36.1523 -4 -49h-391c5.00488 -65.0635 50.874 -108 120 -108c49.6016 0 97.0762 26.292 111 63l136 -38c-40.6855 -81.3711 -130.103 -140 -252 -140
c-106.694 0 -182.633 43.1777 -229 105zM174 171c0 -40.4053 35.5674 -66 77.001 -66c36.7158 0 71.4561 14.6777 91 33c15.333 12 23.333 24.333 24 37c-6.7207 6.7207 -6 41.6836 -6 53c-23.4658 8.21484 -55.1592 15 -85.001 15c-51.8438 0 -101 -23.708 -101 -72z
M753.001 310c-6.2793 62.7949 -47.8408 110 -115.001 110c-67.1455 0 -107.73 -47.2344 -113.999 -110h229z" />
    <glyph glyph-name="ccedilla" unicode="&#xe7;" horiz-adv-x="572" 
d="M226 -127c17.085 -10.873 59.8896 -20 90.001 -20c27.7881 0 56 5.72949 56 32c0 25.3633 -26.7305 32 -54 32c-23.0322 0 -62.2793 -6.43945 -79 -11l42 85c-121.044 8.06934 -203.435 78.8242 -238.5 173c-11.667 31.333 -17.5 64.333 -17.5 99
c0 126.907 70.5332 211.462 162.5 250c35 14.667 74.833 22 119.5 22c122.088 0 205.245 -57.4912 246 -139l-156 -47c-20.667 33.333 -51 50 -91 50c-72.1201 0 -117 -60.373 -117 -136c0 -63.3281 28.2021 -107.861 71.5 -128c14.333 -6.66699 29.5 -10 45.5 -10
c42.0928 0 77.1621 23.5615 91.999 51.999l156 -48c-35.1621 -73.0283 -109.859 -126.563 -209 -136.999l-20 -30c8.66699 2 18.667 3 30 3c49.2949 0 90 -23.2637 90 -74c0 -67.0479 -62.8369 -95 -140 -95c-43.3945 0 -79.4854 9.19434 -109 21z" />
    <glyph glyph-name="egrave" unicode="&#xe8;" horiz-adv-x="604" 
d="M558 130c-40.6855 -81.3711 -130.103 -139.999 -252 -139.999c-134.584 0 -225.024 68.5625 -263 165.5c-12.667 32.333 -19 66.166 -19 101.499c0 130.092 68.6172 216.658 162.5 256c35 14.667 74.833 22 119.5 22c135.174 0 224.409 -69.7598 261.5 -168
c12.333 -32.667 18.5 -67 18.5 -103c0 -17.3086 -1.20703 -37.0371 -4 -51h-388c4.84473 -64.1895 51.8711 -108 117 -108c48.7627 0 97.2373 26.7158 111 63zM417 312.001c-6.18359 61.8408 -47.5508 108 -113 108c-65.8096 0 -106.73 -46.5586 -113 -108h226z
M162.999 731.001h145l52 -130l-101 -28z" />
    <glyph glyph-name="eacute" unicode="&#xe9;" horiz-adv-x="604" 
d="M350 572l-102 28l52 130h145zM558 130c-40.6855 -81.3711 -130.103 -139.999 -252 -139.999c-134.584 0 -225.024 68.5625 -263 165.5c-12.667 32.333 -19 66.166 -19 101.499c0 130.092 68.6172 216.658 162.5 256c35 14.667 74.833 22 119.5 22
c135.174 0 224.409 -69.7598 261.5 -168c12.333 -32.667 18.5 -67 18.5 -103c0 -17.3086 -1.20703 -37.0371 -4 -51h-388c4.84473 -64.1895 51.8711 -108 117 -108c48.7627 0 97.2373 26.7158 111 63zM417 312.001c-6.18359 61.8408 -47.5508 108 -113 108
c-65.8096 0 -106.73 -46.5586 -113 -108h226z" />
    <glyph glyph-name="ecircumflex" unicode="&#xea;" horiz-adv-x="604" 
d="M137 622l110 108h115l109 -108l-82 -36l-85 63l-85 -63zM558 130c-40.6855 -81.3711 -130.103 -139.999 -252 -139.999c-134.584 0 -225.024 68.5625 -263 165.5c-12.667 32.333 -19 66.166 -19 101.499c0 130.092 68.6172 216.658 162.5 256
c35 14.667 74.833 22 119.5 22c135.174 0 224.409 -69.7598 261.5 -168c12.333 -32.667 18.5 -67 18.5 -103c0 -17.3086 -1.20703 -37.0371 -4 -51h-388c4.84473 -64.1895 51.8711 -108 117 -108c48.7627 0 97.2373 26.7158 111 63zM417 312.001
c-6.18359 61.8408 -47.5508 108 -113 108c-65.8096 0 -106.73 -46.5586 -113 -108h226z" />
    <glyph glyph-name="edieresis" unicode="&#xeb;" horiz-adv-x="604" 
d="M134 594v129h132v-129h-132zM344 594v129h132v-129h-132zM558 130c-40.6855 -81.3711 -130.103 -139.999 -252 -139.999c-134.584 0 -225.024 68.5625 -263 165.5c-12.667 32.333 -19 66.166 -19 101.499c0 130.092 68.6172 216.658 162.5 256
c35 14.667 74.833 22 119.5 22c135.174 0 224.409 -69.7598 261.5 -168c12.333 -32.667 18.5 -67 18.5 -103c0 -17.3086 -1.20703 -37.0371 -4 -51h-388c4.84473 -64.1895 51.8711 -108 117 -108c48.7627 0 97.2373 26.7158 111 63zM417 312.001
c-6.18359 61.8408 -47.5508 108 -113 108c-65.8096 0 -106.73 -46.5586 -113 -108h226z" />
    <glyph glyph-name="igrave" unicode="&#xec;" 
d="M54 0v525h160v-525h-160zM-7 731h145l52 -130l-101 -28z" />
    <glyph glyph-name="iacute" unicode="&#xed;" 
d="M180 572l-102 28l52 130h145zM54 0v525h160v-525h-160z" />
    <glyph glyph-name="icircumflex" unicode="&#xee;" 
d="M-33 622l110 108h115l109 -108l-82 -36l-85 63l-85 -63zM54 0v525h160v-525h-160z" />
    <glyph glyph-name="idieresis" unicode="&#xef;" 
d="M-37 594v129h132v-129h-132zM173 594v129h132v-129h-132zM54 0v525h160v-525h-160z" />
    <glyph glyph-name="eth" unicode="&#xf0;" horiz-adv-x="617" 
d="M471 615c64.9717 -78.6504 117.003 -191.9 117.003 -323.998c0 -143.345 -63.9268 -239.865 -167 -280.5c-34.667 -13.667 -73 -20.5 -115 -20.5c-126.499 0 -217.119 59.8701 -258.001 146.5c-14 29.667 -21 62.167 -21 97.5c0 110.184 65.7139 186.164 145 219.5
c29.333 12.333 60.666 18.5 93.999 18.5c66.9297 0 123.887 -28.6689 157.999 -64c-13.333 56 -38.333 107.333 -75 153.999l-86 -46l-44 61l77 41c-44.667 39.333 -100.667 76.666 -168 111.999h199c32 -16 61.667 -35.667 89 -59l77 41l44 -61zM308.003 344.002
c-65.9844 0 -117 -44.8271 -117 -110c0 -65.1904 49.9961 -109 116 -109c67.3193 0 117 43.8691 117 111c0 65.207 -50.0039 108 -116 108z" />
    <glyph glyph-name="ntilde" unicode="&#xf1;" horiz-adv-x="611" 
d="M402 535c119.023 0 159.002 -82.4121 159.002 -199.001v-336h-160v295c0 57.9746 -19.5381 99 -71 99c-44.3438 0 -75.627 -29.3584 -96 -56c-8.66699 -11.333 -15.334 -23.666 -20.001 -36.999v-301h-160v525h144v-88c37.0303 60.0156 108.816 98 203.999 98z
M381.002 679.999c29.4785 0 51.998 22.8574 51.998 50.001h86c0 -25.0791 -16.3643 -57.8135 -29.5 -79c-19.6709 -31.7285 -51.7725 -63 -102.499 -63c-45.6396 0 -71.5566 23.7783 -101.999 39c-9.33301 4.66699 -19.666 7 -30.999 7c-28.8887 0 -47 -21.3594 -47 -48h-86
c0 51.8076 34.4346 99.7061 67.5 123.999c16.333 12 36.166 18 59.499 18c45.9834 0 70.9316 -24.3916 101 -40.5c9.33301 -5 20 -7.5 32 -7.5z" />
    <glyph glyph-name="ograve" unicode="&#xf2;" horiz-adv-x="609" 
d="M305 -10c-135.727 0 -225.514 69.5342 -262.501 168.501c-12.333 33 -18.5 67.5 -18.5 103.5c0 127.781 69.4941 211.068 161.5 250.499c35 15 74.833 22.5 119.5 22.5c135.413 0 224.344 -71.3936 262.001 -169.5c12.667 -33 19 -67.5 19 -103.5
c0 -127.406 -69.1943 -211.319 -161.5 -250c-35 -14.667 -74.833 -22 -119.5 -22zM304.998 399.001c-74.8223 0 -117 -61.1904 -117 -137c0 -76.1592 44.0107 -137 117 -137c74.5547 0.000976562 116 62.0938 116 137c0 75.5752 -43.8926 137 -116 137zM163.998 731h145
l52 -130l-101 -28z" />
    <glyph glyph-name="oacute" unicode="&#xf3;" horiz-adv-x="609" 
d="M350 572l-102 28l52 130h145zM305 -10c-135.727 0 -225.514 69.5342 -262.501 168.501c-12.333 33 -18.5 67.5 -18.5 103.5c0 127.781 69.4941 211.068 161.5 250.499c35 15 74.833 22.5 119.5 22.5c135.413 0 224.344 -71.3936 262.001 -169.5
c12.667 -33 19 -67.5 19 -103.5c0 -127.406 -69.1943 -211.319 -161.5 -250c-35 -14.667 -74.833 -22 -119.5 -22zM304.998 399.001c-74.8223 0 -117 -61.1904 -117 -137c0 -76.1592 44.0107 -137 117 -137c74.5547 0.000976562 116 62.0938 116 137
c0 75.5752 -43.8926 137 -116 137z" />
    <glyph glyph-name="ocircumflex" unicode="&#xf4;" horiz-adv-x="609" 
d="M137 622l110 108h115l109 -108l-82 -36l-85 63l-85 -63zM305 -10c-135.727 0 -225.514 69.5342 -262.501 168.501c-12.333 33 -18.5 67.5 -18.5 103.5c0 127.781 69.4941 211.068 161.5 250.499c35 15 74.833 22.5 119.5 22.5c135.413 0 224.344 -71.3936 262.001 -169.5
c12.667 -33 19 -67.5 19 -103.5c0 -127.406 -69.1943 -211.319 -161.5 -250c-35 -14.667 -74.833 -22 -119.5 -22zM304.998 399.001c-74.8223 0 -117 -61.1904 -117 -137c0 -76.1592 44.0107 -137 117 -137c74.5547 0.000976562 116 62.0938 116 137
c0 75.5752 -43.8926 137 -116 137z" />
    <glyph glyph-name="otilde" unicode="&#xf5;" horiz-adv-x="609" 
d="M305 -10c-135.727 0 -225.514 69.5342 -262.501 168.501c-12.333 33 -18.5 67.5 -18.5 103.5c0 127.781 69.4941 211.068 161.5 250.499c35 15 74.833 22.5 119.5 22.5c135.413 0 224.344 -71.3936 262.001 -169.5c12.667 -33 19 -67.5 19 -103.5
c0 -127.406 -69.1943 -211.319 -161.5 -250c-35 -14.667 -74.833 -22 -119.5 -22zM304.998 399.001c-74.8223 0 -117 -61.1904 -117 -137c0 -76.1592 44.0107 -137 117 -137c74.5547 0.000976562 116 62.0938 116 137c0 75.5752 -43.8926 137 -116 137zM361.998 680
c29.4785 0 51.998 22.8584 51.998 50.002h86c0 -25.0791 -16.3643 -57.8135 -29.5 -79c-19.6709 -31.7285 -51.7725 -63.001 -102.499 -63.001c-45.6396 0 -71.5566 23.7783 -101.999 39c-9.33301 4.66699 -19.666 7 -30.999 7c-28.8887 0 -47 -21.3594 -47 -48h-86
c0 51.8076 34.4346 99.7061 67.5 123.999c16.333 12 36.166 18 59.499 18c45.9844 0 70.9316 -24.3916 101 -40.5c9.33301 -5 20 -7.5 32 -7.5z" />
    <glyph glyph-name="odieresis" unicode="&#xf6;" horiz-adv-x="609" 
d="M134 594v129h132v-129h-132zM344 594v129h132v-129h-132zM305 -10c-135.727 0 -225.514 69.5342 -262.501 168.501c-12.333 33 -18.5 67.5 -18.5 103.5c0 127.781 69.4941 211.068 161.5 250.499c35 15 74.833 22.5 119.5 22.5
c135.413 0 224.344 -71.3936 262.001 -169.5c12.667 -33 19 -67.5 19 -103.5c0 -127.406 -69.1943 -211.319 -161.5 -250c-35 -14.667 -74.833 -22 -119.5 -22zM304.998 399.001c-74.8223 0 -117 -61.1904 -117 -137c0 -76.1592 44.0107 -137 117 -137
c74.5547 0.000976562 116 62.0938 116 137c0 75.5752 -43.8926 137 -116 137z" />
    <glyph glyph-name="divide" unicode="&#xf7;" horiz-adv-x="498" 
d="M182 426v143h135v-143h-135zM182 38v143h135v-143h-135zM47 240v127h404v-127h-404z" />
    <glyph glyph-name="oslash" unicode="&#xf8;" horiz-adv-x="609" 
d="M98 70c-42.5977 44.9648 -74.001 109.853 -74.001 192.001c0 127.781 69.4941 211.068 161.5 250.499c35 15 74.833 22.5 119.5 22.5c60.6191 0 109.094 -15.1152 149.001 -37l27 32h88l-62 -72c45.0605 -45.0605 79 -111.266 79 -196
c0 -127.406 -69.1943 -211.319 -161.5 -250c-35 -14.667 -74.833 -22 -119.5 -22c-60 0 -111.667 13.333 -155 40l-30 -35h-87zM420.999 262.001c0 29.333 -6.33398 55 -19.001 77l-159 -196c16.667 -12 37.334 -18 62.001 -18c74.5547 0.000976562 116 62.0938 116 137z
M304.998 399.001c-74.8223 0 -117 -61.1885 -117 -136.999c0 -28.667 5.33301 -53.334 16 -74.001l158 195c-18 10.667 -37 16 -57 16z" />
    <glyph glyph-name="ugrave" unicode="&#xf9;" horiz-adv-x="633" 
d="M214 -10c-114.982 0 -164 78.5186 -164 199v336h160v-301c0 -56.3311 20.5996 -99 73 -99c57.1113 0 91.0342 32.2373 115 76v324h160v-345c0 -32.668 10.6484 -42.3613 41 -45v-135c-27.0586 -5.41211 -48.6768 -8 -76 -8c-56 0.666992 -88.333 23 -97 67l-3 32
c-43.041 -62.1699 -110.392 -101 -209 -101zM163 731h145l52 -130l-101 -28z" />
    <glyph glyph-name="uacute" unicode="&#xfa;" horiz-adv-x="633" 
d="M350 572l-102 28l52 130h145zM214 -10c-114.982 0 -164 78.5186 -164 199v336h160v-301c0 -56.3311 20.5996 -99 73 -99c57.1113 0 91.0342 32.2373 115 76v324h160v-345c0 -32.668 10.6484 -42.3613 41 -45v-135c-27.0586 -5.41211 -48.6768 -8 -76 -8
c-56 0.666992 -88.333 23 -97 67l-3 32c-43.041 -62.1699 -110.392 -101 -209 -101z" />
    <glyph glyph-name="ucircumflex" unicode="&#xfb;" horiz-adv-x="633" 
d="M137 622l110 108h115l109 -108l-82 -36l-85 63l-85 -63zM214 -10c-114.982 0 -164 78.5186 -164 199v336h160v-301c0 -56.3311 20.5996 -99 73 -99c57.1113 0 91.0342 32.2373 115 76v324h160v-345c0 -32.668 10.6484 -42.3613 41 -45v-135
c-27.0586 -5.41211 -48.6768 -8 -76 -8c-56 0.666992 -88.333 23 -97 67l-3 32c-43.041 -62.1699 -110.392 -101 -209 -101z" />
    <glyph glyph-name="udieresis" unicode="&#xfc;" horiz-adv-x="633" 
d="M133 594v129h132v-129h-132zM343 594v129h132v-129h-132zM214 -10c-114.982 0 -164 78.5186 -164 199v336h160v-301c0 -56.3311 20.5996 -99 73 -99c57.1113 0 91.0342 32.2373 115 76v324h160v-345c0 -32.668 10.6484 -42.3613 41 -45v-135
c-27.0586 -5.41211 -48.6768 -8 -76 -8c-56 0.666992 -88.333 23 -97 67l-3 32c-43.041 -62.1699 -110.392 -101 -209 -101z" />
    <glyph glyph-name="yacute" unicode="&#xfd;" horiz-adv-x="545" 
d="M52 -79c23.5068 -7.47949 46.7422 -13 72.999 -13c46.8916 0 59.416 42.9277 70 92l-199 525h164l123 -388l105 388h149l-201 -610c-26.5488 -79.6475 -95.9775 -144.551 -195.999 -146c-33.4307 0 -61.7061 5.43848 -88 15v137zM329 572l-102 28l52 130h145z" />
    <glyph glyph-name="thorn" unicode="&#xfe;" horiz-adv-x="600" 
d="M218 503c16.3643 23.3779 51.8984 38.001 100 38.001c85.0469 0 148.181 -42.7559 188.5 -91.5c38.3369 -46.3486 70.5 -115.14 70.5 -193.501c0 -126.72 -76.5049 -218.075 -164 -260c-32 -15.333 -66 -23 -102 -23c-42.3105 0 -79.7314 12.8857 -93 35v-221h-164v923
h164v-207zM308.001 398.001c-47.3271 0 -72.7041 -32.5615 -90 -66v-155c0 -34.7783 51.4404 -61 87 -61c72.5176 0 107 70.0098 107 143c0 59.3652 -22.1904 106.11 -60 128c-12.668 7.33301 -27.335 11 -44 11z" />
    <glyph glyph-name="ydieresis" unicode="&#xff;" horiz-adv-x="545" 
d="M52 -79c23.5068 -7.47949 46.7422 -13 72.999 -13c46.8916 0 59.416 42.9277 70 92l-199 525h164l123 -388l105 388h149l-201 -610c-26.5488 -79.6475 -95.9775 -144.551 -195.999 -146c-33.4307 0 -61.7061 5.43848 -88 15v137zM112 594v129h132v-129h-132zM322 594v129
h132v-129h-132z" />
    <glyph glyph-name="Amacron" unicode="&#x100;" horiz-adv-x="673" 
d="M-2 0l273 710h133l272 -710h-174l-55 159h-221l-54 -159h-174zM337 536l-85 -264h167zM186 806v97h304v-97h-304z" />
    <glyph glyph-name="amacron" unicode="&#x101;" horiz-adv-x="590" 
d="M390 83c-39.8252 -51.2041 -102.398 -93 -185.999 -93c-84.2793 0 -141.189 42.0908 -168 100.5c-9.33301 20.333 -14 42.5 -14 66.5c0 90.4014 63.3652 139.604 134 162c27.333 8.66699 57.666 13 90.999 13c44.0576 0 88.1182 -7.70898 118 -22v24
c0 60.667 -35 91 -105 91c-70.291 0 -116.039 -25.6543 -164 -58l-47 100c61.9678 40.5176 131.819 68 227 68c152.365 0 249 -70.7725 249 -220v-135c0 -32.668 10.6484 -42.3613 41 -44.999v-135c-25.3477 -5.51074 -49.9512 -8 -77 -8
c-55.1475 1.25293 -87.4502 21.3994 -96 66.999zM173.001 171c0 -40.877 35.7832 -66 78.001 -66c36.7158 0 71.4561 14.6777 91 33c15.333 12 23 24.667 23 38v50c-24.3066 9.25977 -59.4316 17 -91.001 17c-51.0137 0 -101 -24.1553 -101 -72zM125.002 621v97h304v-97
h-304z" />
    <glyph glyph-name="Abreve" unicode="&#x102;" horiz-adv-x="673" 
d="M-2 0l273 710h133l272 -710h-174l-55 159h-221l-54 -159h-174zM337 536l-85 -264h167zM278 915c0 -37.5283 23.4404 -77 59 -77c36.4727 0 57.7402 40.0557 61 77h83c0 -87.6504 -56.6836 -147 -144 -147c-87.251 0 -144 59.915 -144 147h85z" />
    <glyph glyph-name="abreve" unicode="&#x103;" horiz-adv-x="590" 
d="M390 83c-39.8252 -51.2041 -102.398 -93 -185.999 -93c-84.2793 0 -141.189 42.0908 -168 100.5c-9.33301 20.333 -14 42.5 -14 66.5c0 90.4014 63.3652 139.604 134 162c27.333 8.66699 57.666 13 90.999 13c44.0576 0 88.1182 -7.70898 118 -22v24
c0 60.667 -35 91 -105 91c-70.291 0 -116.039 -25.6543 -164 -58l-47 100c61.9678 40.5176 131.819 68 227 68c152.365 0 249 -70.7725 249 -220v-135c0 -32.668 10.6484 -42.3613 41 -44.999v-135c-25.3477 -5.51074 -49.9512 -8 -77 -8
c-55.1475 1.25293 -87.4502 21.3994 -96 66.999zM173.001 171c0 -40.877 35.7832 -66 78.001 -66c36.7158 0 71.4561 14.6777 91 33c15.333 12 23 24.667 23 38v50c-24.3066 9.25977 -59.4316 17 -91.001 17c-51.0137 0 -101 -24.1553 -101 -72zM216.002 730
c0 -37.5283 23.4404 -77 59 -77c36.4727 0 57.7402 40.0557 61 77h83c0 -87.6504 -56.6836 -147 -144 -147c-87.251 0 -144 59.915 -144 147h85z" />
    <glyph glyph-name="Aogonek" unicode="&#x104;" horiz-adv-x="673" 
d="M510 -112c0 52.9492 43.6465 87.0195 84 112h-92l-55 159h-221l-54 -159h-174l273 710h133l272 -710c-54.667 -32 -82 -61.667 -82 -89c0 -29.1318 31.4297 -37.9824 65 -39l-31 -77c-60.8545 8.11426 -118 34.8584 -118 93zM337 536.001l-85 -264h167z" />
    <glyph glyph-name="aogonek" unicode="&#x105;" horiz-adv-x="590" 
d="M518 -205c-60.8545 8.11426 -117.998 34.8584 -117.998 93c0 48.2607 37.3857 80.9365 73 105c-45.1465 5.0166 -72.8984 24.8076 -80.001 66l-3 24c-39.8252 -51.2041 -102.399 -93 -186 -93c-84.2793 0 -141.189 42.0908 -168 100.5c-9.33301 20.333 -14 42.5 -14 66.5
c0 90.4014 63.3652 139.604 134 162c27.333 8.66699 57.666 13 90.999 13c44.0576 0 88.1182 -7.70898 118 -22v24c0 60.667 -35 91 -105 91c-70.291 0 -116.039 -25.6543 -164 -58l-47 100c61.9678 40.5176 131.819 68 227 68c152.365 0 249 -70.7725 249 -220v-135
c0 -32.668 10.6484 -42.3613 41 -45v-135c-54.667 -32 -82 -61.667 -82 -89c0 -29.1318 31.4297 -37.9824 65 -39zM173.002 171c0 -40.877 35.7832 -66 78.001 -66c36.7158 0 71.4561 14.6777 91 33c15.333 12 23 24.667 23 38v50c-24.3066 9.25977 -59.4316 17 -91.001 17
c-51.0137 0 -101 -24.1553 -101 -72z" />
    <glyph glyph-name="Cacute" unicode="&#x106;" horiz-adv-x="663" 
d="M414 757l-102 28l52 130h145zM367 140c74.4492 0 124.11 41.5986 145 98l135 -79c-32.5244 -79.2773 -109.607 -131.521 -198.501 -154c-29 -7.33301 -57.5 -11 -85.5 -11c-108.353 0 -188.664 53.2598 -241.5 115c-51.334 59.9863 -94.5 148.562 -94.5 252
c0 157.244 88.3574 268.718 197.5 322c42.333 20.667 90.5 31 144.5 31c129.984 0 225.502 -66.7207 269 -155l-126 -88c-22.2979 56.7588 -70.9023 97 -146.999 97c-114.343 0 -171 -99.6152 -171 -213c0 -91.9277 41.6602 -164.501 102 -197.5
c21.333 -11.667 45 -17.5 71 -17.5z" />
    <glyph glyph-name="cacute" unicode="&#x107;" horiz-adv-x="570" 
d="M351 572l-102 28l52 130h145zM553 129c-38.5908 -81.1729 -126.535 -139 -246.999 -139c-134.664 0 -225.498 71.7979 -263 169.5c-12.667 33 -19 67.5 -19 103.5c0 126.907 70.5332 211.462 162.5 250c35 14.667 74.833 22 119.5 22
c122.088 0 205.245 -57.4912 246 -139l-156 -47c-20.667 33.333 -51 50 -91 50c-72.1201 0 -117 -60.373 -117 -136c0 -63.3281 28.2021 -107.861 71.5 -128c14.333 -6.66699 29.5 -10 45.5 -10c42.0928 0.000976562 77.1621 23.5625 91.999 52z" />
    <glyph glyph-name="Ccircumflex" unicode="&#x108;" horiz-adv-x="663" 
d="M201 807l110 108h115l109 -108l-82 -36l-85 63l-85 -63zM367 140c74.4492 0 124.11 41.5986 145 98l135 -79c-32.5244 -79.2773 -109.607 -131.521 -198.501 -154c-29 -7.33301 -57.5 -11 -85.5 -11c-108.353 0 -188.664 53.2598 -241.5 115
c-51.334 59.9863 -94.5 148.562 -94.5 252c0 157.244 88.3574 268.718 197.5 322c42.333 20.667 90.5 31 144.5 31c129.984 0 225.502 -66.7207 269 -155l-126 -88c-22.2979 56.7588 -70.9023 97 -146.999 97c-114.343 0 -171 -99.6152 -171 -213
c0 -91.9277 41.6602 -164.501 102 -197.5c21.333 -11.667 45 -17.5 71 -17.5z" />
    <glyph glyph-name="ccircumflex" unicode="&#x109;" horiz-adv-x="570" 
d="M138 622l110 108h115l109 -108l-82 -36l-85 63l-85 -63zM553 129c-38.5908 -81.1729 -126.535 -139 -246.999 -139c-134.664 0 -225.498 71.7979 -263 169.5c-12.667 33 -19 67.5 -19 103.5c0 126.907 70.5332 211.462 162.5 250c35 14.667 74.833 22 119.5 22
c122.088 0 205.245 -57.4912 246 -139l-156 -47c-20.667 33.333 -51 50 -91 50c-72.1201 0 -117 -60.373 -117 -136c0 -63.3281 28.2021 -107.861 71.5 -128c14.333 -6.66699 29.5 -10 45.5 -10c42.0928 0.000976562 77.1621 23.5625 91.999 52z" />
    <glyph glyph-name="Cdotaccent" unicode="&#x10a;" horiz-adv-x="663" 
d="M367 140c74.4492 0 124.11 41.5986 145 98l135 -79c-32.5244 -79.2773 -109.607 -131.521 -198.501 -154c-29 -7.33301 -57.5 -11 -85.5 -11c-108.353 0 -188.664 53.2598 -241.5 115c-51.334 59.9863 -94.5 148.562 -94.5 252c0 157.244 88.3574 268.718 197.5 322
c42.333 20.667 90.5 31 144.5 31c129.984 0 225.502 -66.7207 269 -155l-126 -88c-22.2979 56.7588 -70.9023 97 -146.999 97c-114.343 0 -171 -99.6152 -171 -213c0 -91.9277 41.6602 -164.501 102 -197.5c21.333 -11.667 45 -17.5 71 -17.5zM297 778v137h144v-137h-144z
" />
    <glyph glyph-name="cdotaccent" unicode="&#x10b;" horiz-adv-x="570" 
d="M553 129c-38.5908 -81.1729 -126.535 -139 -246.999 -139c-134.664 0 -225.498 71.7979 -263 169.5c-12.667 33 -19 67.5 -19 103.5c0 126.907 70.5332 211.462 162.5 250c35 14.667 74.833 22 119.5 22c122.088 0 205.245 -57.4912 246 -139l-156 -47
c-20.667 33.333 -51 50 -91 50c-72.1201 0 -117 -60.373 -117 -136c0 -63.3281 28.2021 -107.861 71.5 -128c14.333 -6.66699 29.5 -10 45.5 -10c42.0928 0.000976562 77.1621 23.5625 91.999 52zM234.001 593v137h144v-137h-144z" />
    <glyph glyph-name="Ccaron" unicode="&#x10c;" horiz-adv-x="663" 
d="M283 915l85 -63l85 63l82 -37l-109 -107h-115l-110 107zM367 140c74.4492 0 124.11 41.5986 145 98l135 -79c-32.5244 -79.2773 -109.607 -131.521 -198.501 -154c-29 -7.33301 -57.5 -11 -85.5 -11c-108.353 0 -188.664 53.2598 -241.5 115
c-51.334 59.9863 -94.5 148.562 -94.5 252c0 157.244 88.3574 268.718 197.5 322c42.333 20.667 90.5 31 144.5 31c129.984 0 225.502 -66.7207 269 -155l-126 -88c-22.2979 56.7588 -70.9023 97 -146.999 97c-114.343 0 -171 -99.6152 -171 -213
c0 -91.9277 41.6602 -164.501 102 -197.5c21.333 -11.667 45 -17.5 71 -17.5z" />
    <glyph glyph-name="ccaron" unicode="&#x10d;" horiz-adv-x="570" 
d="M220 730l85 -63l85 63l82 -37l-109 -107h-115l-110 107zM553 129c-38.5908 -81.1729 -126.535 -139 -246.999 -139c-134.664 0 -225.498 71.7979 -263 169.5c-12.667 33 -19 67.5 -19 103.5c0 126.907 70.5332 211.462 162.5 250c35 14.667 74.833 22 119.5 22
c122.088 0 205.245 -57.4912 246 -139l-156 -47c-20.667 33.333 -51 50 -91 50c-72.1201 0 -117 -60.373 -117 -136c0 -63.3281 28.2021 -107.861 71.5 -128c14.333 -6.66699 29.5 -10 45.5 -10c42.0928 0.000976562 77.1621 23.5625 91.999 52z" />
    <glyph glyph-name="Dcaron" unicode="&#x10e;" horiz-adv-x="717" 
d="M239 915l85 -63l85 63l82 -37l-109 -107h-115l-110 107zM68 0v710h265c175.045 0 286.27 -86.8398 331.5 -216.5c15 -43 22.5 -88.833 22.5 -137.5c0 -171.848 -83.5049 -281.838 -208.5 -330.5c-43.667 -17 -92.167 -25.5 -145.5 -25.5h-265zM520 356
c0 123.954 -63.5586 210 -187 210h-101v-422h101c123.112 0 187 89.1338 187 212z" />
    <glyph glyph-name="dcaron" unicode="&#x10f;" horiz-adv-x="660" 
d="M711 572l-102 28l52 130h145zM450 87c-33.5215 -56.6396 -93.7471 -97 -177.001 -97c-121.23 0 -195.848 74.457 -229.5 164.5c-12.333 33 -18.5 69.167 -18.5 108.5c0 122.079 56.0283 210.249 138.5 251c28.333 14 59.5 21 93.5 21
c78.2393 0 139.13 -43.0703 168.001 -96v291h160v-550c0 -32.668 10.6484 -42.3613 41 -44.999v-135c-27.582 -5.5166 -48.8037 -8 -77 -8c-56 1.33301 -88 23.666 -96 66.999zM425.999 308c-16.5947 44.2529 -61.8906 91 -118 91c-73.8711 0 -118 -64.9619 -118 -139
c0 -76.5938 50.1719 -135 126 -135c51.752 0 91.1436 35.2881 110 73v110z" />
    <glyph glyph-name="Dcroat" unicode="&#x110;" horiz-adv-x="722" 
d="M72 0v298h-43v118h43v294h265c175.045 0 286.27 -86.8398 331.5 -216.5c15 -43 22.5 -88.833 22.5 -137.5c0 -171.848 -83.5049 -281.838 -208.5 -330.5c-43.667 -17 -92.167 -25.5 -145.5 -25.5h-265zM524 356c0 123.954 -63.5586 210 -187 210h-101v-150h128v-118h-128
v-154h101c123.112 0 187 89.1338 187 212z" />
    <glyph glyph-name="dcroat" unicode="&#x111;" horiz-adv-x="660" 
d="M450 87c-33.5215 -56.6396 -93.7471 -97 -177.001 -97c-121.23 0 -195.848 74.457 -229.5 164.5c-12.333 33 -18.5 69.167 -18.5 108.5c0 122.079 56.0283 210.249 138.5 251c28.333 14 59.5 21 93.5 21c78.2393 0 139.13 -43.0703 168.001 -96v149h-94v94h94v48h160v-48
h61v-94h-61v-408c0 -32.668 10.6484 -42.3613 41 -44.999v-135c-27.582 -5.5166 -48.8037 -8 -77 -8c-56 1.33301 -88 23.666 -96 66.999zM425.999 308c-16.5947 44.2529 -61.8906 91 -118 91c-73.8711 0 -118 -64.9619 -118 -139c0 -76.5938 50.1719 -135 126 -135
c51.752 0 91.1436 35.2881 110 73v110z" />
    <glyph glyph-name="Emacron" unicode="&#x112;" horiz-adv-x="601" 
d="M567 144v-144h-499v710h490v-144h-326v-138h280v-133h-280v-151h335zM170 806v97h304v-97h-304z" />
    <glyph glyph-name="emacron" unicode="&#x113;" horiz-adv-x="604" 
d="M558 130c-40.6855 -81.3711 -130.103 -139.999 -252 -139.999c-134.584 0 -225.024 68.5625 -263 165.5c-12.667 32.333 -19 66.166 -19 101.499c0 130.092 68.6172 216.658 162.5 256c35 14.667 74.833 22 119.5 22c135.174 0 224.409 -69.7598 261.5 -168
c12.333 -32.667 18.5 -67 18.5 -103c0 -17.3086 -1.20703 -37.0371 -4 -51h-388c4.84473 -64.1895 51.8711 -108 117 -108c48.7627 0 97.2373 26.7158 111 63zM417 312.001c-6.18359 61.8408 -47.5508 108 -113 108c-65.8096 0 -106.73 -46.5586 -113 -108h226z
M152.999 621.001v97h304v-97h-304z" />
    <glyph glyph-name="Ebreve" unicode="&#x114;" horiz-adv-x="601" 
d="M567 144v-144h-499v710h490v-144h-326v-138h280v-133h-280v-151h335zM262 915c0 -37.5283 23.4404 -77 59 -77c36.4727 0 57.7402 40.0557 61 77h83c0 -87.6504 -56.6836 -147 -144 -147c-87.251 0 -144 59.915 -144 147h85z" />
    <glyph glyph-name="ebreve" unicode="&#x115;" horiz-adv-x="604" 
d="M558 130c-40.6855 -81.3711 -130.103 -139.999 -252 -139.999c-134.584 0 -225.024 68.5625 -263 165.5c-12.667 32.333 -19 66.166 -19 101.499c0 130.092 68.6172 216.658 162.5 256c35 14.667 74.833 22 119.5 22c135.174 0 224.409 -69.7598 261.5 -168
c12.333 -32.667 18.5 -67 18.5 -103c0 -17.3086 -1.20703 -37.0371 -4 -51h-388c4.84473 -64.1895 51.8711 -108 117 -108c48.7627 0 97.2373 26.7158 111 63zM417 312.001c-6.18359 61.8408 -47.5508 108 -113 108c-65.8096 0 -106.73 -46.5586 -113 -108h226z
M244.999 730.001c0 -37.5283 23.4404 -77 59 -77c36.4727 0 57.7402 40.0557 61 77h83c0 -87.6504 -56.6836 -147 -144 -147c-87.251 0 -144 59.915 -144 147h85z" />
    <glyph glyph-name="Edotaccent" unicode="&#x116;" horiz-adv-x="601" 
d="M567 144v-144h-499v710h490v-144h-326v-138h280v-133h-280v-151h335zM250 778v137h144v-137h-144z" />
    <glyph glyph-name="edotaccent" unicode="&#x117;" horiz-adv-x="604" 
d="M558 130c-40.6855 -81.3711 -130.103 -139.999 -252 -139.999c-134.584 0 -225.024 68.5625 -263 165.5c-12.667 32.333 -19 66.166 -19 101.499c0 130.092 68.6172 216.658 162.5 256c35 14.667 74.833 22 119.5 22c135.174 0 224.409 -69.7598 261.5 -168
c12.333 -32.667 18.5 -67 18.5 -103c0 -17.3086 -1.20703 -37.0371 -4 -51h-388c4.84473 -64.1895 51.8711 -108 117 -108c48.7627 0 97.2373 26.7158 111 63zM417 312.001c-6.18359 61.8408 -47.5508 108 -113 108c-65.8096 0 -106.73 -46.5586 -113 -108h226z
M232.999 593.001v137h144v-137h-144z" />
    <glyph glyph-name="Eogonek" unicode="&#x118;" horiz-adv-x="601" 
d="M192 -111c0 52.9883 42.5146 85.9375 83 111h-207v710h490v-144h-326v-138h280v-133h-280v-151h335v-144h-211c-27.333 -15.333 -47.5 -30.5 -60.5 -45.5s-19.5 -29.167 -19.5 -42.5c0 -29.1318 31.4297 -37.9824 65 -39l-31 -77c-60.8545 8.11426 -118 34.8584 -118 93z
" />
    <glyph glyph-name="eogonek" unicode="&#x119;" horiz-adv-x="606" 
d="M338 -205c-60.8545 8.11426 -117.999 34.8584 -117.999 93c0 47.4385 34.6797 79.4668 69 103c-125.107 6.05371 -209.67 73.1396 -246 168c-12 31.333 -18 64 -18 98c0 130.092 68.6172 216.658 162.5 256c35 14.667 74.833 22 119.5 22
c135.174 0 224.409 -69.7598 261.5 -168c12.333 -32.667 18.5 -67 18.5 -103c0 -17.3086 -1.20703 -37.0371 -4 -51h-388c4.84473 -64.1895 51.8711 -108 117 -108c48.7627 0 97.2373 26.7158 111 63l136 -38c-32.5488 -65.0967 -95.3408 -112.786 -176.001 -131
c-52.667 -32 -79 -61.333 -79 -88c0 -29.1318 31.4297 -37.9824 65 -39zM418.001 312c-6.18359 61.8408 -47.5508 108 -113 108c-65.8096 0 -106.73 -46.5586 -113 -108h226z" />
    <glyph glyph-name="Ecaron" unicode="&#x11a;" horiz-adv-x="601" 
d="M236 915l85 -63l85 63l82 -37l-109 -107h-115l-110 107zM567 144v-144h-499v710h490v-144h-326v-138h280v-133h-280v-151h335z" />
    <glyph glyph-name="ecaron" unicode="&#x11b;" horiz-adv-x="604" 
d="M219 730l85 -63l85 63l82 -37l-109 -107h-115l-110 107zM558 130c-40.6855 -81.3711 -130.103 -139.999 -252 -139.999c-134.584 0 -225.024 68.5625 -263 165.5c-12.667 32.333 -19 66.166 -19 101.499c0 130.092 68.6172 216.658 162.5 256
c35 14.667 74.833 22 119.5 22c135.174 0 224.409 -69.7598 261.5 -168c12.333 -32.667 18.5 -67 18.5 -103c0 -17.3086 -1.20703 -37.0371 -4 -51h-388c4.84473 -64.1895 51.8711 -108 117 -108c48.7627 0 97.2373 26.7158 111 63zM417 312.001
c-6.18359 61.8408 -47.5508 108 -113 108c-65.8096 0 -106.73 -46.5586 -113 -108h226z" />
    <glyph glyph-name="Gcircumflex" unicode="&#x11c;" horiz-adv-x="705" 
d="M200 807l110 108h115l109 -108l-82 -36l-85 63l-85 -63zM528 69c-43.4912 -43.4912 -94.3926 -74 -173.002 -74c-101.012 0 -179.341 52.5186 -230.499 110c-52.7812 59.3047 -96.5 148.987 -96.5 255c0 163.254 91.4746 275.278 206 327c41.333 18.667 86 28 134 28
c131.129 0 227.001 -64.4883 271 -155l-123 -92c-25.1045 54.7725 -79.1396 101 -152.999 101c-86.4482 0 -135.117 -63.1309 -156 -131c-8 -26 -12 -54 -12 -84c0 -94.5391 40.6641 -165.331 104 -197c21.334 -10.667 44.667 -16 70 -16c73.3506 0 121.662 40.0605 159 87
v24h-137v119h273v-371h-136v69z" />
    <glyph glyph-name="gcircumflex" unicode="&#x11d;" horiz-adv-x="639" 
d="M179 622l110 108h115l109 -108l-82 -36l-85 63l-85 -63zM425 87c-28.7129 -52.6406 -89.9854 -89 -166.999 -89c-114.986 0 -184.319 75.3721 -215 162c-11.333 32 -17 66.333 -17 103c0 123.673 59.6465 211.168 145 251c30 14 63 21 99 21
c84.4971 0 142.977 -40.9619 175.999 -96v86h139v-489c0 -131.663 -79.4766 -208.367 -181 -241c-37.333 -12 -78.333 -18 -123 -18c-118.876 0 -192.674 40.0303 -250 105l85 87c34.8213 -39.624 93.9072 -72 165 -72c88.8887 0 144 48.6279 144 139v51zM425 308
c-17.6582 46.3516 -60.6006 91 -119 91c-73.8184 0 -117 -66.3301 -117 -140c0 -77.0479 48.4736 -134 125 -134c54.2842 0.000976562 91.0781 35.5 111 73v110z" />
    <glyph glyph-name="Gbreve" unicode="&#x11e;" horiz-adv-x="705" 
d="M528 69c-43.4912 -43.4912 -94.3926 -74 -173.002 -74c-101.012 0 -179.341 52.5186 -230.499 110c-52.7812 59.3047 -96.5 148.987 -96.5 255c0 163.254 91.4746 275.278 206 327c41.333 18.667 86 28 134 28c131.129 0 227.001 -64.4883 271 -155l-123 -92
c-25.1045 54.7725 -79.1396 101 -152.999 101c-86.4482 0 -135.117 -63.1309 -156 -131c-8 -26 -12 -54 -12 -84c0 -94.5391 40.6641 -165.331 104 -197c21.334 -10.667 44.667 -16 70 -16c73.3506 0 121.662 40.0605 159 87v24h-137v119h273v-371h-136v69zM307.998 915
c0 -37.5283 23.4404 -77 59 -77c36.4727 0 57.7402 40.0557 61 77h83c0 -87.6504 -56.6836 -147 -144 -147c-87.251 0 -144 59.915 -144 147h85z" />
    <glyph glyph-name="gbreve" unicode="&#x11f;" horiz-adv-x="639" 
d="M425 87c-28.7129 -52.6406 -89.9854 -89 -166.999 -89c-114.986 0 -184.319 75.3721 -215 162c-11.333 32 -17 66.333 -17 103c0 123.673 59.6465 211.168 145 251c30 14 63 21 99 21c84.4971 0 142.977 -40.9619 175.999 -96v86h139v-489
c0 -131.663 -79.4766 -208.367 -181 -241c-37.333 -12 -78.333 -18 -123 -18c-118.876 0 -192.674 40.0303 -250 105l85 87c34.8213 -39.624 93.9072 -72 165 -72c88.8887 0 144 48.6279 144 139v51zM425 308c-17.6582 46.3516 -60.6006 91 -119 91
c-73.8184 0 -117 -66.3301 -117 -140c0 -77.0479 48.4736 -134 125 -134c54.2842 0.000976562 91.0781 35.5 111 73v110zM287 730c0 -37.5283 23.4404 -77 59 -77c36.4727 0 57.7402 40.0557 61 77h83c0 -87.6504 -56.6836 -147 -144 -147c-87.251 0 -144 59.915 -144 147
h85z" />
    <glyph glyph-name="Gdotaccent" unicode="&#x120;" horiz-adv-x="705" 
d="M528 69c-43.4912 -43.4912 -94.3926 -74 -173.002 -74c-101.012 0 -179.341 52.5186 -230.499 110c-52.7812 59.3047 -96.5 148.987 -96.5 255c0 163.254 91.4746 275.278 206 327c41.333 18.667 86 28 134 28c131.129 0 227.001 -64.4883 271 -155l-123 -92
c-25.1045 54.7725 -79.1396 101 -152.999 101c-86.4482 0 -135.117 -63.1309 -156 -131c-8 -26 -12 -54 -12 -84c0 -94.5391 40.6641 -165.331 104 -197c21.334 -10.667 44.667 -16 70 -16c73.3506 0 121.662 40.0605 159 87v24h-137v119h273v-371h-136v69zM295.998 778v137
h144v-137h-144z" />
    <glyph glyph-name="gdotaccent" unicode="&#x121;" horiz-adv-x="639" 
d="M425 87c-28.7129 -52.6406 -89.9854 -89 -166.999 -89c-114.986 0 -184.319 75.3721 -215 162c-11.333 32 -17 66.333 -17 103c0 123.673 59.6465 211.168 145 251c30 14 63 21 99 21c84.4971 0 142.977 -40.9619 175.999 -96v86h139v-489
c0 -131.663 -79.4766 -208.367 -181 -241c-37.333 -12 -78.333 -18 -123 -18c-118.876 0 -192.674 40.0303 -250 105l85 87c34.8213 -39.624 93.9072 -72 165 -72c88.8887 0 144 48.6279 144 139v51zM425 308c-17.6582 46.3516 -60.6006 91 -119 91
c-73.8184 0 -117 -66.3301 -117 -140c0 -77.0479 48.4736 -134 125 -134c54.2842 0.000976562 91.0781 35.5 111 73v110zM274 593v137h144v-137h-144z" />
    <glyph glyph-name="Gcommaaccent" unicode="&#x122;" horiz-adv-x="705" 
d="M261 -138c25.333 0 38 9 38 27v64h130v-70c0 -81.9072 -85.7109 -84 -168 -84v63zM528 69c-43.4912 -43.4912 -94.3926 -74 -173.002 -74c-101.012 0 -179.341 52.5186 -230.499 110c-52.7812 59.3047 -96.5 148.987 -96.5 255c0 163.254 91.4746 275.278 206 327
c41.333 18.667 86 28 134 28c131.129 0 227.001 -64.4883 271 -155l-123 -92c-25.1045 54.7725 -79.1396 101 -152.999 101c-86.4482 0 -135.117 -63.1309 -156 -131c-8 -26 -12 -54 -12 -84c0 -94.5391 40.6641 -165.331 104 -197c21.334 -10.667 44.667 -16 70 -16
c73.3506 0 121.662 40.0605 159 87v24h-137v119h273v-371h-136v69z" />
    <glyph glyph-name="gcommaaccent" unicode="&#x123;" horiz-adv-x="639" 
d="M392 572l-102 28l52 130h145zM425 87c-28.7129 -52.6406 -89.9854 -89 -166.999 -89c-114.986 0 -184.319 75.3721 -215 162c-11.333 32 -17 66.333 -17 103c0 123.673 59.6465 211.168 145 251c30 14 63 21 99 21c84.4971 0 142.977 -40.9619 175.999 -96v86h139v-489
c0 -131.663 -79.4766 -208.367 -181 -241c-37.333 -12 -78.333 -18 -123 -18c-118.876 0 -192.674 40.0303 -250 105l85 87c34.8213 -39.624 93.9072 -72 165 -72c88.8887 0 144 48.6279 144 139v51zM425 308c-17.6582 46.3516 -60.6006 91 -119 91
c-73.8184 0 -117 -66.3301 -117 -140c0 -77.0479 48.4736 -134 125 -134c54.2842 0.000976562 91.0781 35.5 111 73v110z" />
    <glyph glyph-name="Hcircumflex" unicode="&#x124;" horiz-adv-x="747" 
d="M209 806l110 108h115l109 -108l-82 -36l-85 63l-85 -63zM679 710v-710h-164v291h-283v-291h-164v710h164v-275h283v275h164z" />
    <glyph glyph-name="hcircumflex" unicode="&#x125;" horiz-adv-x="611" 
d="M253 624l94 105h97l93 -105l-70 -35l-72 61l-72 -61zM396 535c121.747 0 165.001 -79.7861 165.001 -199v-336h-160v295c0 59.0693 -22.0742 99 -76 99c-41.0908 0 -71.8271 -29.9277 -91 -55c-8.66699 -11.333 -15.334 -24 -20.001 -38v-301h-160v730h160v-293
c34.5693 56.0264 96.4141 98 182 98z" />
    <glyph glyph-name="Hbar" unicode="&#x126;" horiz-adv-x="754" 
d="M682 710v-93h51v-76h-51v-541h-164v291h-283v-291h-164v541h-50v76h50v93h164v-93h283v93h164zM518 435v106h-283v-106h283z" />
    <glyph glyph-name="hbar" unicode="&#x127;" horiz-adv-x="611" 
d="M396 535c121.747 0 165.001 -79.7861 165.001 -199v-336h-160v295c0 59.0693 -22.0742 99 -76 99c-41.0908 0 -71.8271 -29.9277 -91 -55c-8.66699 -11.333 -15.334 -24 -20.001 -38v-301h-160v588h-37v94h37v48h160v-48h117v-94h-117v-151
c34.5693 56.0264 96.4141 98 182 98z" />
    <glyph glyph-name="Itilde" unicode="&#x128;" horiz-adv-x="300" 
d="M68 0v710h164v-710h-164zM207 865c29.4785 0 51.998 22.8574 51.998 50.001h86c0 -25.0811 -16.3633 -57.8125 -29.499 -79c-19.6719 -31.7285 -51.7725 -63 -102.5 -63c-45.6396 0 -71.5566 23.7783 -101.999 39c-9.33301 4.66699 -19.666 7 -30.999 7
c-28.8887 0 -47 -21.3594 -47 -48h-86c0 51.8076 34.4346 99.7061 67.5 123.999c16.333 12 36.166 18 59.499 18c45.9834 0 70.9316 -24.3916 101 -40.5c9.33301 -5 20 -7.5 32 -7.5z" />
    <glyph glyph-name="itilde" unicode="&#x129;" 
d="M54 0v525h160v-525h-160zM192 680c29.4785 0 51.999 22.8574 51.999 50.001h86c0 -25.0791 -16.3643 -57.8135 -29.5 -79c-19.6719 -31.7285 -51.7725 -63 -102.5 -63c-45.6396 0 -71.5566 23.7783 -101.999 39c-9.33301 4.66699 -19.666 7 -30.999 7
c-28.8887 0 -47 -21.3594 -47 -48h-86c0 51.8076 34.4346 99.7061 67.5 123.999c16.333 12 36.166 18 59.499 18c45.9834 0 70.9316 -24.3916 101 -40.5c9.33301 -5 20 -7.5 32 -7.5z" />
    <glyph glyph-name="Imacron" unicode="&#x12a;" horiz-adv-x="300" 
d="M68 0v710h164v-710h-164zM-1 806v97h304v-97h-304z" />
    <glyph glyph-name="imacron" unicode="&#x12b;" 
d="M54 0v525h160v-525h-160zM-17 621v97h304v-97h-304z" />
    <glyph glyph-name="Ibreve" unicode="&#x12c;" horiz-adv-x="300" 
d="M68 0v710h164v-710h-164zM90 915c0 -37.5283 23.4404 -77 59 -77c36.4727 0 57.7402 40.0557 61 77h83c0 -87.6504 -56.6826 -147 -144 -147c-87.251 0 -144 59.915 -144 147h85z" />
    <glyph glyph-name="ibreve" unicode="&#x12d;" 
d="M54 0v525h160v-525h-160zM75 730c0 -37.5283 23.4404 -77 59 -77c36.4727 0 57.7402 40.0557 61 77h83c0 -87.6504 -56.6826 -147 -144 -147c-87.251 0 -144 59.915 -144 147h85z" />
    <glyph glyph-name="Iogonek" unicode="&#x12e;" horiz-adv-x="300" 
d="M184 -205c-60.8545 8.11426 -118 34.8584 -118 93c0 52.9492 43.6465 87.0195 84 112h-82v710h164v-710c-54.667 -32 -82 -61.667 -82 -89c0 -29.1318 31.4297 -37.9824 65 -39z" />
    <glyph glyph-name="iogonek" unicode="&#x12f;" horiz-adv-x="269" 
d="M166 -205c-60.8545 8.11426 -118 34.8584 -118 93c0 52.9492 43.6465 87.0195 84 112h-78v525h160v-525c-54.667 -32 -82 -61.667 -82 -89c0 -29.1318 31.4297 -37.9824 65 -39zM54 585v145h160v-145h-160z" />
    <glyph glyph-name="Idotaccent" unicode="&#x130;" horiz-adv-x="300" 
d="M68 0v710h164v-710h-164zM78 778v137h144v-137h-144z" />
    <glyph glyph-name="dotlessi" unicode="&#x131;" 
d="M54 0v525h160v-525h-160z" />
    <glyph glyph-name="IJ" unicode="&#x132;" horiz-adv-x="798" 
d="M68 0v710h164v-710h-164zM344 167c21.2715 -17.0176 74.167 -32 118 -32c112.323 0 112 99.4727 112 214v361h164v-361c0 -162.591 -18.5898 -281.807 -129 -334c-36.667 -17.333 -85.667 -26 -147 -26c-60 0 -111.333 14.667 -154 44z" />
    <glyph glyph-name="ij" unicode="&#x133;" horiz-adv-x="537" 
d="M54 0v525h160v-525h-160zM54 585v145h160v-145h-160zM269 -64c31.5205 0 53 22.8633 53 55v534h160v-522c0 -95.958 -48.2148 -160.949 -116 -190c-23.333 -10 -49 -15 -77 -15c-59.0332 0 -105.966 20.6602 -140 50l67 109c11.7324 -12.9053 30.0654 -21 53 -21z
M322 585v145h160v-145h-160z" />
    <glyph glyph-name="Jcircumflex" unicode="&#x134;" horiz-adv-x="498" 
d="M191 807l110 108h115l109 -108l-82 -36l-85 63l-85 -63zM44 167c21.2715 -17.0176 74.167 -32 118 -32c112.323 0 112 99.4727 112 214v361h164v-361c0 -162.591 -18.5898 -281.807 -129 -334c-36.667 -17.333 -85.667 -26 -147 -26c-60 0 -111.333 14.667 -154 44z" />
    <glyph glyph-name="jcircumflex" unicode="&#x135;" 
d="M1 -64c31.5205 0 53 22.8633 53 55v534h160v-522c0 -95.958 -48.2148 -160.949 -116 -190c-23.333 -10 -49 -15 -77 -15c-59.0332 0 -105.966 20.6602 -140 50l67 109c11.7324 -12.9053 30.0654 -21 53 -21zM-33 622l110 108h115l109 -108l-82 -36l-85 63l-85 -63z" />
    <glyph glyph-name="Kcommaaccent" unicode="&#x136;" horiz-adv-x="677" 
d="M256 -138c25.333 0 38 9 38 27v64h130v-70c0 -81.9072 -85.7109 -84 -168 -84v63zM68 0v710h164v-320l274 320h170l-266 -317l284 -393h-173l-208 301l-81 -88v-213h-164z" />
    <glyph glyph-name="kcommaaccent" unicode="&#x137;" horiz-adv-x="568" 
d="M189 -138c25.333 0 38 9 38 27v64h130v-70c0 -81.9072 -85.7109 -84 -168 -84v63zM214 0h-160v730h160v-423l178 218h170l-189 -226l204 -299h-170l-137 211l-56 -58v-153z" />
    <glyph glyph-name="kgreenlandic" unicode="&#x138;" horiz-adv-x="568" 
d="M214 0h-160v525h160v-218l178 218h170l-189 -226l204 -299h-170l-137 211l-56 -58v-153z" />
    <glyph glyph-name="Lacute" unicode="&#x139;" horiz-adv-x="589" 
d="M410 757l-102 28l52 130h145zM68 0v710h164v-566h344v-144h-508z" />
    <glyph glyph-name="lacute" unicode="&#x13a;" horiz-adv-x="339" 
d="M177 762l-102 28l52 130h145zM197 -9c-91.3203 0 -144 48.9287 -144 140v599h160v-534c0 -40 17.333 -60 52 -60c17.5635 0 39.1562 7.57812 52 14l21 -129c-34.7969 -16.2383 -92.373 -30 -141 -30z" />
    <glyph glyph-name="Lcommaaccent" unicode="&#x13b;" horiz-adv-x="589" 
d="M232 -138c25.333 0 38 9 38 27v64h130v-70c0 -81.9072 -85.7109 -84 -168 -84v63zM68 0v710h164v-566h344v-144h-508z" />
    <glyph glyph-name="lcommaaccent" unicode="&#x13c;" horiz-adv-x="339" 
d="M91 -138c25.333 0 38 9 38 27v64h130v-70c0 -81.9072 -85.7109 -84 -168 -84v63zM197 -9c-91.3203 0 -144 48.9287 -144 140v599h160v-534c0 -40 17.333 -60 52 -60c17.5635 0 39.1562 7.57812 52 14l21 -129c-34.7969 -16.2383 -92.373 -30 -141 -30z" />
    <glyph glyph-name="Lcaron" unicode="&#x13d;" horiz-adv-x="589" 
d="M425 571l-102 28l52 130h145zM68 0v710h164v-566h344v-144h-508z" />
    <glyph glyph-name="lcaron" unicode="&#x13e;" horiz-adv-x="339" 
d="M352 571l-102 28l52 130h145zM197 -9c-91.3203 0 -144 48.9287 -144 140v599h160v-534c0 -40 17.333 -60 52 -60c17.5635 0 39.1562 7.57812 52 14l21 -129c-34.7969 -16.2383 -92.373 -30 -141 -30z" />
    <glyph glyph-name="Ldot" unicode="&#x13f;" horiz-adv-x="589" 
d="M68 0v710h164v-566h344v-144h-508zM365 325v166h130v-166h-130z" />
    <glyph glyph-name="ldot" unicode="&#x140;" horiz-adv-x="428" 
d="M197 -9c-91.3203 0 -144 48.9287 -144 140v599h160v-534c0 -40 17.333 -60 52 -60c17.5635 0 39.1562 7.57812 52 14l21 -129c-34.7969 -16.2383 -92.373 -30 -141 -30zM282 290v166h130v-166h-130z" />
    <glyph glyph-name="Lslash" unicode="&#x141;" horiz-adv-x="599" 
d="M79 0v274l-50 -28l-38 86l88 49v329h164v-236l92 52l38 -86l-130 -74v-222h344v-144h-508z" />
    <glyph glyph-name="lslash" unicode="&#x142;" horiz-adv-x="367" 
d="M221 -9c-91.3203 0 -144 48.9287 -144 140v155l-47 -25l-38 86l85 46v337h160v-250l84 46l38 -86l-122 -67v-177c0 -40 17.333 -60 52 -60c17.5635 0 39.1562 7.57812 52 14l21 -129c-34.7969 -16.2383 -92.373 -30 -141 -30z" />
    <glyph glyph-name="Nacute" unicode="&#x143;" horiz-adv-x="759" 
d="M424 756l-102 28l52 130h145zM232 0h-164v710h128l331 -417v417h164v-710h-132l-327 406v-406z" />
    <glyph glyph-name="nacute" unicode="&#x144;" horiz-adv-x="611" 
d="M369 572l-102 28l52 130h145zM402 535c119.023 0 159.002 -82.4121 159.002 -199.001v-336h-160v295c0 57.9746 -19.5381 99 -71 99c-44.3438 0 -75.627 -29.3584 -96 -56c-8.66699 -11.333 -15.334 -23.666 -20.001 -36.999v-301h-160v525h144v-88
c37.0303 60.0156 108.816 98 203.999 98z" />
    <glyph glyph-name="Ncommaaccent" unicode="&#x145;" horiz-adv-x="759" 
d="M273 -138c25.333 0 38 9 38 27v64h130v-70c0 -81.9072 -85.7109 -84 -168 -84v63zM232 0h-164v710h128l331 -417v417h164v-710h-132l-327 406v-406z" />
    <glyph glyph-name="ncommaaccent" unicode="&#x146;" horiz-adv-x="611" 
d="M201 -138c25.333 0 38 9 38 27v64h130v-70c0 -81.9072 -85.7109 -84 -168 -84v63zM402 535c119.023 0 159.002 -82.4121 159.002 -199.001v-336h-160v295c0 57.9746 -19.5381 99 -71 99c-44.3438 0 -75.627 -29.3584 -96 -56
c-8.66699 -11.333 -15.334 -23.666 -20.001 -36.999v-301h-160v525h144v-88c37.0303 60.0156 108.816 98 203.999 98z" />
    <glyph glyph-name="Ncaron" unicode="&#x147;" horiz-adv-x="759" 
d="M293 914l85 -63l85 63l82 -37l-109 -107h-115l-110 107zM232 0h-164v710h128l331 -417v417h164v-710h-132l-327 406v-406z" />
    <glyph glyph-name="ncaron" unicode="&#x148;" horiz-adv-x="611" 
d="M238 730l85 -63l85 63l82 -37l-109 -107h-115l-110 107zM402 535c119.023 0 159.002 -82.4121 159.002 -199.001v-336h-160v295c0 57.9746 -19.5381 99 -71 99c-44.3438 0 -75.627 -29.3584 -96 -56c-8.66699 -11.333 -15.334 -23.666 -20.001 -36.999v-301h-160v525h144
v-88c37.0303 60.0156 108.816 98 203.999 98z" />
    <glyph glyph-name="napostrophe" unicode="&#x149;" horiz-adv-x="611" 
d="M69 572l-102 28l33 80l-8 50h173zM402 535c119.023 0 159.002 -82.4121 159.002 -199.001v-336h-160v295c0 57.9746 -19.5381 99 -71 99c-44.3438 0 -75.627 -29.3584 -96 -56c-8.66699 -11.333 -15.334 -23.666 -20.001 -36.999v-301h-160v525h144v-88
c37.0303 60.0156 108.816 98 203.999 98z" />
    <glyph glyph-name="Eng" unicode="&#x14a;" horiz-adv-x="742" 
d="M461 -64c31.5205 0 53 22.8633 53 55v44l-282 366v-401h-164v710h126l316 -409v408h164v-711c0 -94.6426 -49.8574 -158.743 -118 -186c-23.333 -9.33301 -48.333 -14 -75 -14c-59.0332 0 -105.966 20.6602 -140 50l67 109c11.7324 -12.9053 30.0654 -21 53 -21z" />
    <glyph glyph-name="eng" unicode="&#x14b;" horiz-adv-x="610" 
d="M402 535c119.107 0 158.001 -82.4668 158.001 -199.001v-333c0 -95.5029 -49.5127 -161.077 -117 -190c-23.333 -10 -48.666 -15 -75.999 -15c-59.0332 0 -105.966 20.6602 -140 50l67 109c11.7324 -12.9053 30.0654 -21 53 -21c31.5088 0 54 22.8535 54 55v304
c0 57.9746 -19.5381 99 -71 99c-44.3438 0 -75.627 -29.3584 -96 -56c-8.66699 -11.333 -15.334 -23.666 -20.001 -36.999v-301h-160v525h144v-88c37.0303 60.0156 108.816 98 203.999 98z" />
    <glyph glyph-name="Omacron" unicode="&#x14c;" horiz-adv-x="734" 
d="M218 806v97h304v-97h-304zM366 -6c-109.557 0 -190.745 51.498 -244.5 112.5c-52.0137 59.0273 -93.5 145.69 -93.5 249.5c0 104.519 43.1543 191.464 96.5 249.5c54.4736 59.2627 136.581 108.5 244.5 108.5c109.805 0 190.834 -51.4951 244.5 -113
c51.3691 -58.873 92.5 -145.683 92.5 -248c0 -104.252 -43.166 -191.383 -96 -249.5c-53.9219 -59.3145 -136.374 -109.5 -244 -109.5zM195.001 354c0 -91.2529 38.6572 -162.857 98.499 -196c21.667 -12 46.5 -18 74.5 -18c114.611 0 171 101.969 171 216
c0 91.4092 -38.9512 161.667 -99 194.5c-21.333 11.667 -45.666 17.5 -72.999 17.5c-90.8594 0 -140.562 -63.9639 -161 -135.5c-7.33301 -25.667 -11 -51.834 -11 -78.5z" />
    <glyph glyph-name="omacron" unicode="&#x14d;" horiz-adv-x="609" 
d="M154 621v97h304v-97h-304zM305 -10c-135.727 0 -225.514 69.5342 -262.501 168.501c-12.333 33 -18.5 67.5 -18.5 103.5c0 127.781 69.4941 211.068 161.5 250.499c35 15 74.833 22.5 119.5 22.5c135.413 0 224.344 -71.3936 262.001 -169.5
c12.667 -33 19 -67.5 19 -103.5c0 -127.406 -69.1943 -211.319 -161.5 -250c-35 -14.667 -74.833 -22 -119.5 -22zM304.998 399.001c-74.8223 0 -117 -61.1904 -117 -137c0 -76.1592 44.0107 -137 117 -137c74.5547 0.000976562 116 62.0938 116 137
c0 75.5752 -43.8926 137 -116 137z" />
    <glyph glyph-name="Obreve" unicode="&#x14e;" horiz-adv-x="734" 
d="M366 -6c-109.557 0 -190.745 51.498 -244.5 112.5c-52.0137 59.0273 -93.5 145.69 -93.5 249.5c0 104.519 43.1543 191.464 96.5 249.5c54.4736 59.2627 136.581 108.5 244.5 108.5c109.805 0 190.834 -51.4951 244.5 -113c51.3691 -58.873 92.5 -145.683 92.5 -248
c0 -104.252 -43.166 -191.383 -96 -249.5c-53.9219 -59.3145 -136.374 -109.5 -244 -109.5zM195.001 354c0 -91.2529 38.6572 -162.857 98.499 -196c21.667 -12 46.5 -18 74.5 -18c114.611 0 171 101.969 171 216c0 91.4092 -38.9512 161.667 -99 194.5
c-21.333 11.667 -45.666 17.5 -72.999 17.5c-90.8594 0 -140.562 -63.9639 -161 -135.5c-7.33301 -25.667 -11 -51.834 -11 -78.5zM310 914.999c0 -37.5283 23.4404 -77 59 -77c36.4727 0 57.7402 40.0557 61 77h83c0 -87.6504 -56.6836 -147 -144 -147
c-87.251 0 -144 59.915 -144 147h85z" />
    <glyph glyph-name="obreve" unicode="&#x14f;" horiz-adv-x="609" 
d="M305 -10c-135.727 0 -225.514 69.5342 -262.501 168.501c-12.333 33 -18.5 67.5 -18.5 103.5c0 127.781 69.4941 211.068 161.5 250.499c35 15 74.833 22.5 119.5 22.5c135.413 0 224.344 -71.3936 262.001 -169.5c12.667 -33 19 -67.5 19 -103.5
c0 -127.406 -69.1943 -211.319 -161.5 -250c-35 -14.667 -74.833 -22 -119.5 -22zM304.998 399.001c-74.8223 0 -117 -61.1904 -117 -137c0 -76.1592 44.0107 -137 117 -137c74.5547 0.000976562 116 62.0938 116 137c0 75.5752 -43.8926 137 -116 137zM244.998 730
c0 -37.5283 23.4404 -77 59 -77c36.4727 0 57.7402 40.0557 61 77h83c0 -87.6504 -56.6836 -147 -144 -147c-87.251 0 -144 59.915 -144 147h85z" />
    <glyph glyph-name="Ohungarumlaut" unicode="&#x150;" horiz-adv-x="734" 
d="M306 758l-77 28l45 130h120zM481 758l-77 28l44 130h120zM366 -6c-109.557 0 -190.745 51.498 -244.5 112.5c-52.0137 59.0273 -93.5 145.69 -93.5 249.5c0 104.519 43.1543 191.464 96.5 249.5c54.4736 59.2627 136.581 108.5 244.5 108.5
c109.805 0 190.834 -51.4951 244.5 -113c51.3691 -58.873 92.5 -145.683 92.5 -248c0 -104.252 -43.166 -191.383 -96 -249.5c-53.9219 -59.3145 -136.374 -109.5 -244 -109.5zM195.001 354c0 -91.2529 38.6572 -162.857 98.499 -196c21.667 -12 46.5 -18 74.5 -18
c114.611 0 171 101.969 171 216c0 91.4092 -38.9512 161.667 -99 194.5c-21.333 11.667 -45.666 17.5 -72.999 17.5c-90.8594 0 -140.562 -63.9639 -161 -135.5c-7.33301 -25.667 -11 -51.834 -11 -78.5z" />
    <glyph glyph-name="ohungarumlaut" unicode="&#x151;" horiz-adv-x="609" 
d="M241 573l-77 28l45 130h120zM416 573l-77 28l44 130h120zM305 -10c-135.727 0 -225.514 69.5342 -262.501 168.501c-12.333 33 -18.5 67.5 -18.5 103.5c0 127.781 69.4941 211.068 161.5 250.499c35 15 74.833 22.5 119.5 22.5
c135.413 0 224.344 -71.3936 262.001 -169.5c12.667 -33 19 -67.5 19 -103.5c0 -127.406 -69.1943 -211.319 -161.5 -250c-35 -14.667 -74.833 -22 -119.5 -22zM304.998 399.001c-74.8223 0 -117 -61.1904 -117 -137c0 -76.1592 44.0107 -137 117 -137
c74.5547 0.000976562 116 62.0938 116 137c0 75.5752 -43.8926 137 -116 137z" />
    <glyph glyph-name="OE" unicode="&#x152;" horiz-adv-x="1062" 
d="M369 715c77.9805 0 137.309 -36.9023 177.001 -79.001v74h474v-144h-309v-133h255v-143h-255v-146h318v-144h-483v75c-40.6162 -41.8105 -101.642 -80 -180.001 -80c-109.631 0 -190.695 50.4404 -244.5 111.5c-52.0137 59.0273 -93.5 145.69 -93.5 249.5
c0 104.734 43.2441 191.478 96.5 250.001c54.3887 59.7676 136.326 109 244.5 109zM368.002 141c115.01 0 170.999 100.631 170.999 215c0 91.8418 -39.2373 161.383 -99 195c-21.333 12 -45.666 18 -72.999 18c-91.3057 0 -140.469 -64.6357 -161 -136.5
c-7.33301 -25.667 -11 -51.834 -11 -78.5c0 -91.4463 38.5752 -161.811 98.5 -195c21.667 -12 46.5 -18 74.5 -18z" />
    <glyph glyph-name="oe" unicode="&#x153;" horiz-adv-x="1003" 
d="M957 130c-40.6689 -81.3369 -128.619 -139.999 -249.001 -139.999c-39.333 0 -74.833 8.16699 -106.5 24.5s-64.5 41.5 -98.5 75.5c-33.333 -35.333 -65.333 -60.833 -96 -76.5s-65.334 -23.5 -104 -23.5c-131.099 0 -218.68 69.3809 -258 163
c-14 33.333 -21 69.666 -21 108.999c0 129.4 73.0791 214.747 167 252.5c34 13.667 71 20.5 111 20.5c96.8594 0 156.724 -45.4121 201 -106c47.8311 61.4971 104.414 106 203 106c130.836 0 216.718 -69.4697 256.001 -163c14 -33.333 21.333 -70 22 -110
c0 -15.5059 -1.43066 -36.1523 -4 -49h-388c5.28809 -63.4629 52.6162 -111 121 -111c51.2031 0 98.8037 28.5732 113 66zM305 125.001c71.9902 0 116 62.5752 116 137c0 74.4521 -43.9941 137 -116 137c-75.6025 0 -117 -61.0117 -117 -137
c0 -75.3135 44.502 -137 117 -137zM818 310.001c-6.23047 62.3008 -50.7168 110 -117 110c-66.6504 0 -107.694 -48.1211 -114 -110h231z" />
    <glyph glyph-name="Racute" unicode="&#x154;" horiz-adv-x="680" 
d="M365 756l-102 28l52 130h145zM620 470c0 -100.183 -50.3936 -169.552 -116 -206l163 -264h-185l-143 229h-107v-229h-164v710h320c109.528 0 182.264 -73.7764 214.5 -153c11.667 -28.667 17.5 -57.667 17.5 -87zM453 470c0 49.2979 -31.207 96 -76 96h-145v-194h150
c44.7852 0 71 49.4521 71 98z" />
    <glyph glyph-name="racute" unicode="&#x155;" horiz-adv-x="401" 
d="M290 572l-102 28l52 130h145zM387 388c-76.3057 -1.31543 -143.658 -24.9863 -173 -73v-315h-160v525h147v-106c30.7266 58.1611 84.1709 110.799 161 114c13.335 0 21.668 -0.333008 25 -1v-144z" />
    <glyph glyph-name="Rcommaaccent" unicode="&#x156;" horiz-adv-x="680" 
d="M243 -138c25.333 0 38 9 38 27v64h130v-70c0 -81.9072 -85.7109 -84 -168 -84v63zM620 470c0 -100.183 -50.3936 -169.552 -116 -206l163 -264h-185l-143 229h-107v-229h-164v710h320c109.528 0 182.264 -73.7764 214.5 -153c11.667 -28.667 17.5 -57.667 17.5 -87z
M453 470c0 49.2979 -31.207 96 -76 96h-145v-194h150c44.7852 0 71 49.4521 71 98z" />
    <glyph glyph-name="rcommaaccent" unicode="&#x157;" horiz-adv-x="401" 
d="M24 -138c25.333 0 38 9 38 27v64h130v-70c0 -81.9072 -85.7109 -84 -168 -84v63zM387 388c-76.3057 -1.31543 -143.658 -24.9863 -173 -73v-315h-160v525h147v-106c30.7266 58.1611 84.1709 110.799 161 114c13.335 0 21.668 -0.333008 25 -1v-144z" />
    <glyph glyph-name="Rcaron" unicode="&#x158;" horiz-adv-x="680" 
d="M234 914l85 -63l85 63l82 -37l-109 -107h-115l-110 107zM620 470c0 -100.183 -50.3936 -169.552 -116 -206l163 -264h-185l-143 229h-107v-229h-164v710h320c109.528 0 182.264 -73.7764 214.5 -153c11.667 -28.667 17.5 -57.667 17.5 -87zM453 470
c0 49.2979 -31.207 96 -76 96h-145v-194h150c44.7852 0 71 49.4521 71 98z" />
    <glyph glyph-name="rcaron" unicode="&#x159;" horiz-adv-x="401" 
d="M159 730l85 -63l85 63l82 -37l-109 -107h-115l-110 107zM387 388c-76.3057 -1.31543 -143.658 -24.9863 -173 -73v-315h-160v525h147v-106c30.7266 58.1611 84.1709 110.799 161 114c13.335 0 21.668 -0.333008 25 -1v-144z" />
    <glyph glyph-name="Sacute" unicode="&#x15a;" horiz-adv-x="616" 
d="M370 761l-102 28l52 130h145zM588 209c0 -152.868 -115.231 -216.997 -266.997 -216.997c-91.584 0 -169.192 22.543 -235 51c-24.667 10.667 -47.334 23 -68.001 37l72 143c16.5176 -16.5195 52.3203 -34.4541 80.999 -47.001c40.0244 -17.5107 96.6504 -36 153 -36
c58 0 87 17.667 87 53c0 31.5117 -24.4814 45.3066 -49 56.5c-35.9434 16.4092 -78.6846 26.6221 -122 39.5c-100.225 30.6807 -192 68.4795 -192 195.999c0 117.696 71.1787 187.478 161.5 216c31.667 10 65.167 15 100.5 15c105.518 0 189.52 -37.5547 256 -78l-71 -136
c-13.6777 13.6777 -43.0205 27.3418 -67 37.999c-32.7637 14.5615 -77.5479 30 -123.001 30c-48.0723 0 -87 -14.8633 -87 -59c0 -44.2275 47.498 -58.2354 84.5 -69c134.08 -39.0049 285.5 -61.9756 285.5 -233z" />
    <glyph glyph-name="sacute" unicode="&#x15b;" horiz-adv-x="517" 
d="M301 572l-102 28l52 130h145zM256 424c-35.291 0 -68.999 -10.5 -68.999 -44c0 -28.8525 27.2861 -37.3457 52 -44.5c75.166 -21.7734 159.015 -38.2715 210 -76c30.2344 -22.374 47 -50.3633 47 -99.5c0 -119.372 -101.428 -170 -222 -170
c-101.385 0 -197.942 26.9639 -262 67l63 108c56.0479 -32.335 118.53 -62 195 -62c37.7969 0 72 9.52148 72 43c0 14 -8.33301 24.833 -25 32.5c-96.6562 44.4639 -278 41.6436 -278 178.5c0 90.7812 60.5596 141.987 130.5 165c26.333 8.66699 55.166 13 86.499 13
c86.4561 0 162.694 -29.1475 225 -62l-63 -101c-51.8691 28.5801 -96.0312 52 -162 52z" />
    <glyph glyph-name="Scircumflex" unicode="&#x15c;" horiz-adv-x="616" 
d="M157 811l110 108h115l109 -108l-82 -36l-85 63l-85 -63zM588 209c0 -152.868 -115.231 -216.997 -266.997 -216.997c-91.584 0 -169.192 22.543 -235 51c-24.667 10.667 -47.334 23 -68.001 37l72 143c16.5176 -16.5195 52.3203 -34.4541 80.999 -47.001
c40.0244 -17.5107 96.6504 -36 153 -36c58 0 87 17.667 87 53c0 31.5117 -24.4814 45.3066 -49 56.5c-35.9434 16.4092 -78.6846 26.6221 -122 39.5c-100.225 30.6807 -192 68.4795 -192 195.999c0 117.696 71.1787 187.478 161.5 216c31.667 10 65.167 15 100.5 15
c105.518 0 189.52 -37.5547 256 -78l-71 -136c-13.6777 13.6777 -43.0205 27.3418 -67 37.999c-32.7637 14.5615 -77.5479 30 -123.001 30c-48.0723 0 -87 -14.8633 -87 -59c0 -44.2275 47.498 -58.2354 84.5 -69c134.08 -39.0049 285.5 -61.9756 285.5 -233z" />
    <glyph glyph-name="scircumflex" unicode="&#x15d;" horiz-adv-x="517" 
d="M89 622l110 108h115l109 -108l-82 -36l-85 63l-85 -63zM256 424c-35.291 0 -68.999 -10.5 -68.999 -44c0 -28.8525 27.2861 -37.3457 52 -44.5c75.166 -21.7734 159.015 -38.2715 210 -76c30.2344 -22.374 47 -50.3633 47 -99.5c0 -119.372 -101.428 -170 -222 -170
c-101.385 0 -197.942 26.9639 -262 67l63 108c56.0479 -32.335 118.53 -62 195 -62c37.7969 0 72 9.52148 72 43c0 14 -8.33301 24.833 -25 32.5c-96.6562 44.4639 -278 41.6436 -278 178.5c0 90.7812 60.5596 141.987 130.5 165c26.333 8.66699 55.166 13 86.499 13
c86.4561 0 162.694 -29.1475 225 -62l-63 -101c-51.8691 28.5801 -96.0312 52 -162 52z" />
    <glyph glyph-name="uni015E" unicode="&#x15e;" horiz-adv-x="616" 
d="M236 -127c17.085 -10.873 59.8906 -19.9971 90.002 -19.9971c27.7881 0 56 5.72949 56 32c0 25.3633 -26.7305 32 -54 32c-23.0322 0 -62.2783 -6.43945 -79 -11l42 87c-103.541 7.19043 -203.804 40.8691 -273 87l72 143
c16.5176 -16.5195 52.3203 -34.4541 80.999 -47.001c40.0244 -17.5107 96.6504 -36 153 -36c58 0 87 17.667 87 53c0 31.5117 -24.4814 45.3066 -49 56.5c-35.9434 16.4092 -78.6846 26.6221 -122 39.5c-100.225 30.6807 -192 68.4795 -192 195.999
c0 117.696 71.1787 187.478 161.5 216c31.667 10 65.167 15 100.5 15c105.518 0 189.52 -37.5547 256 -78l-71 -136c-13.6777 13.6777 -43.0205 27.3418 -67 37.999c-32.7637 14.5615 -77.5479 30 -123.001 30c-48.0723 0 -87 -14.8633 -87 -59
c0 -44.2275 47.498 -58.2354 84.5 -69c134.08 -39.0049 285.5 -61.9756 285.5 -233c0 -142.437 -99.1953 -207.339 -232 -216l-21 -31c8.66699 2 18.667 3 30 3c49.2949 0 90 -23.2637 90 -74c0 -67.0479 -62.8369 -95 -140 -95c-43.3945 0 -79.4854 9.19434 -109 21z" />
    <glyph glyph-name="uni015F" unicode="&#x15f;" horiz-adv-x="518" 
d="M193 -127c17.085 -10.873 59.8906 -20 90.002 -20c27.7881 0 56 5.72949 56 32c0 25.3633 -26.7305 32 -54 32c-23.0322 0 -62.2783 -6.43945 -79 -11l41 85c-83.876 4.05859 -179.94 32.2139 -235 66l63 108c56.0479 -32.335 118.53 -62 195 -62
c37.7969 0 72 9.52148 72 43c0 14 -8.33301 24.833 -25 32.5c-96.6562 44.4639 -278 41.6436 -278 178.5c0 90.7812 60.5596 141.987 130.5 165c26.333 8.66699 55.166 13 86.499 13c86.4561 0 162.694 -29.1475 225 -62l-63 -101c-51.8691 28.5801 -96.0312 52 -162 52
c-35.291 0 -69 -10.5 -69 -44c0 -28.8525 27.2861 -37.3457 52 -44.5c75.166 -21.7734 159.015 -38.2715 209.999 -76c30.2344 -22.374 47 -50.3633 47 -99.5c0 -104.886 -82.0928 -158.521 -184 -168l-20 -30c8.66699 2 18.667 3 30 3c49.2949 0 90 -23.2637 90 -74
c0 -67.0479 -62.8369 -95 -140 -95c-43.3945 0 -79.4854 9.19434 -109 21z" />
    <glyph glyph-name="Scaron" unicode="&#x160;" horiz-adv-x="616" 
d="M239 919l85 -63l85 63l82 -37l-109 -107h-115l-110 107zM588 209c0 -152.868 -115.231 -216.997 -266.997 -216.997c-91.584 0 -169.192 22.543 -235 51c-24.667 10.667 -47.334 23 -68.001 37l72 143c16.5176 -16.5195 52.3203 -34.4541 80.999 -47.001
c40.0244 -17.5107 96.6504 -36 153 -36c58 0 87 17.667 87 53c0 31.5117 -24.4814 45.3066 -49 56.5c-35.9434 16.4092 -78.6846 26.6221 -122 39.5c-100.225 30.6807 -192 68.4795 -192 195.999c0 117.696 71.1787 187.478 161.5 216c31.667 10 65.167 15 100.5 15
c105.518 0 189.52 -37.5547 256 -78l-71 -136c-13.6777 13.6777 -43.0205 27.3418 -67 37.999c-32.7637 14.5615 -77.5479 30 -123.001 30c-48.0723 0 -87 -14.8633 -87 -59c0 -44.2275 47.498 -58.2354 84.5 -69c134.08 -39.0049 285.5 -61.9756 285.5 -233z" />
    <glyph glyph-name="scaron" unicode="&#x161;" horiz-adv-x="517" 
d="M171 730l85 -63l85 63l82 -37l-109 -107h-115l-110 107zM256 424c-35.291 0 -68.999 -10.5 -68.999 -44c0 -28.8525 27.2861 -37.3457 52 -44.5c75.166 -21.7734 159.015 -38.2715 210 -76c30.2344 -22.374 47 -50.3633 47 -99.5c0 -119.372 -101.428 -170 -222 -170
c-101.385 0 -197.942 26.9639 -262 67l63 108c56.0479 -32.335 118.53 -62 195 -62c37.7969 0 72 9.52148 72 43c0 14 -8.33301 24.833 -25 32.5c-96.6562 44.4639 -278 41.6436 -278 178.5c0 90.7812 60.5596 141.987 130.5 165c26.333 8.66699 55.166 13 86.499 13
c86.4561 0 162.694 -29.1475 225 -62l-63 -101c-51.8691 28.5801 -96.0312 52 -162 52z" />
    <glyph glyph-name="uni0162" unicode="&#x162;" horiz-adv-x="622" 
d="M236 -127c17.085 -10.873 59.8887 -20 90 -20c27.7881 0 56 5.72949 56 32c0 25.3633 -26.7305 32 -54 32c-23.0322 0 -62.2783 -6.43945 -79 -11l46 94h-66v566h-217v144h597v-144h-216v-566h-32l-26 -38c8.66699 2 18.667 3 30 3c49.2949 0 90 -23.2637 90 -74
c0 -67.0479 -62.8369 -95 -140 -95c-43.3945 0 -79.4854 9.19434 -109 21z" />
    <glyph glyph-name="uni0163" unicode="&#x163;" horiz-adv-x="402" 
d="M153 -127c17.085 -10.873 59.8896 -20 90.001 -20c27.7881 0 56 5.72949 56 32c0 25.3633 -26.7305 32 -54 32c-23.0322 0 -62.2783 -6.43945 -79 -11l42 86c-74.9336 8.99219 -120 53.3369 -120 138v274h-67v121h67v167h160v-167h107v-121h-107v-219
c0 -31.7139 17.3047 -49 47 -49c24.4238 0 52.541 10.8525 70 19l30 -127c-34.6309 -14.6514 -78.8896 -28.4678 -122.001 -35l-21 -31c8.66699 2 18.667 3 30 3c49.2949 0 90 -23.2637 90 -74c0 -67.0479 -62.8369 -95 -140 -95c-43.3945 0 -79.4854 9.19434 -109 21z" />
    <glyph glyph-name="Tcaron" unicode="&#x164;" horiz-adv-x="622" 
d="M232 915l85 -63l85 63l82 -37l-109 -107h-115l-110 107zM609 566h-216v-566h-164v566h-217v144h597v-144z" />
    <glyph glyph-name="tcaron" unicode="&#x165;" horiz-adv-x="401" 
d="M388 572l-102 28l52 130h145zM394 28c-42.0898 -17.8564 -101.646 -38 -161 -38c-91.8887 0 -146 46.8486 -146 140v274h-67v121h67v167h160v-167h107v-121h-107v-219c0 -31.7139 17.3047 -49 47 -49c24.4238 0 52.541 10.8525 70 19z" />
    <glyph glyph-name="Tbar" unicode="&#x166;" horiz-adv-x="649" 
d="M622 566h-216v-198h179v-76h-179v-292h-164v292h-178v76h178v198h-217v144h597v-144z" />
    <glyph glyph-name="tbar" unicode="&#x167;" horiz-adv-x="402" 
d="M395 28c-42.0898 -17.8564 -101.646 -38 -161 -38c-91.8887 0 -146 46.8486 -146 140v117h-67v93h67v64h-67v121h67v167h160v-167h107v-121h-107v-64h107v-93h-107v-62c0 -31.7139 17.3047 -49 47 -49c24.4238 0 52.541 10.8525 70 19z" />
    <glyph glyph-name="Utilde" unicode="&#x168;" horiz-adv-x="745" 
d="M221 347c0 -111.656 39.3906 -207 151.001 -207c112.168 0 151 95.2861 151 207v363h164v-363c0 -161.051 -61.7432 -273.848 -173.5 -325.5c-39.667 -18.333 -86.834 -27.5 -141.501 -27.5c-212.732 0 -315 142.806 -315 353v363h164v-363zM430.001 865
c29.4785 0 51.999 22.8584 51.999 50.002h86c0 -25.0811 -16.3643 -57.8125 -29.5 -79c-19.6709 -31.7285 -51.7734 -63.001 -102.5 -63.001c-45.6396 0 -71.5566 23.7783 -101.999 39c-9.33301 4.66699 -19.666 7 -30.999 7c-28.8887 0 -47.001 -21.3594 -47 -48h-86
c0 51.8076 34.4346 99.7061 67.5 123.999c16.333 12 36.166 18 59.499 18c45.9834 0 70.9316 -24.3916 101 -40.5c9.33301 -5 20 -7.5 32 -7.5z" />
    <glyph glyph-name="utilde" unicode="&#x169;" horiz-adv-x="633" 
d="M214 -10c-114.982 0 -164 78.5186 -164 199v336h160v-301c0 -56.3311 20.5996 -99 73 -99c57.1113 0 91.0342 32.2373 115 76v324h160v-345c0 -32.668 10.6484 -42.3613 41 -45v-135c-27.0586 -5.41211 -48.6768 -8 -76 -8c-56 0.666992 -88.333 23 -97 67l-3 32
c-43.041 -62.1699 -110.392 -101 -209 -101zM362 680c29.4785 0 51.998 22.8584 51.998 50.002h86c0 -25.0791 -16.3643 -57.8135 -29.5 -79c-19.6709 -31.7285 -51.7725 -63.001 -102.499 -63.001c-45.6396 0 -71.5566 23.7783 -101.999 39
c-9.33301 4.66699 -19.666 7 -30.999 7c-28.8887 0 -47 -21.3594 -47 -48h-86c0 51.8076 34.4346 99.7061 67.5 123.999c16.333 12 36.166 18 59.499 18c45.9844 0 70.9316 -24.3916 101 -40.5c9.33301 -5 20 -7.5 32 -7.5z" />
    <glyph glyph-name="Umacron" unicode="&#x16a;" horiz-adv-x="745" 
d="M221 347c0 -111.656 39.3906 -207 151.001 -207c112.168 0 151 95.2861 151 207v363h164v-363c0 -161.051 -61.7432 -273.848 -173.5 -325.5c-39.667 -18.333 -86.834 -27.5 -141.501 -27.5c-212.732 0 -315 142.806 -315 353v363h164v-363zM221.001 806v97h304v-97h-304
z" />
    <glyph glyph-name="umacron" unicode="&#x16b;" horiz-adv-x="633" 
d="M214 -10c-114.982 0 -164 78.5186 -164 199v336h160v-301c0 -56.3311 20.5996 -99 73 -99c57.1113 0 91.0342 32.2373 115 76v324h160v-345c0 -32.668 10.6484 -42.3613 41 -45v-135c-27.0586 -5.41211 -48.6768 -8 -76 -8c-56 0.666992 -88.333 23 -97 67l-3 32
c-43.041 -62.1699 -110.392 -101 -209 -101zM153 621v97h304v-97h-304z" />
    <glyph glyph-name="Ubreve" unicode="&#x16c;" horiz-adv-x="745" 
d="M221 347c0 -111.656 39.3906 -207 151.001 -207c112.168 0 151 95.2861 151 207v363h164v-363c0 -161.051 -61.7432 -273.848 -173.5 -325.5c-39.667 -18.333 -86.834 -27.5 -141.501 -27.5c-212.732 0 -315 142.806 -315 353v363h164v-363zM313.001 915
c0 -37.5283 23.4404 -77 59 -77c36.4727 0 57.7402 40.0557 61 77h83c0 -87.6504 -56.6836 -147 -144 -147c-87.251 0 -144 59.915 -144 147h85z" />
    <glyph glyph-name="ubreve" unicode="&#x16d;" horiz-adv-x="633" 
d="M214 -10c-114.982 0 -164 78.5186 -164 199v336h160v-301c0 -56.3311 20.5996 -99 73 -99c57.1113 0 91.0342 32.2373 115 76v324h160v-345c0 -32.668 10.6484 -42.3613 41 -45v-135c-27.0586 -5.41211 -48.6768 -8 -76 -8c-56 0.666992 -88.333 23 -97 67l-3 32
c-43.041 -62.1699 -110.392 -101 -209 -101zM245 730c0 -37.5283 23.4404 -77 59 -77c36.4727 0 57.7402 40.0557 61 77h83c0 -87.6504 -56.6836 -147 -144 -147c-87.251 0 -144 59.915 -144 147h85z" />
    <glyph glyph-name="Uring" unicode="&#x16e;" horiz-adv-x="745" 
d="M372 752c-58.9707 0 -107 24.1299 -107 81c0 57.7891 47.4385 82 107 82c59.6338 0 106 -24.1855 106 -82c0 -56.8818 -46.999 -81 -106 -81zM412 834c0 20.8643 -18.6357 34 -40 34c-21.3701 0 -40 -13.1328 -40 -34c0 -20.8584 18.6211 -35 40 -35
c21.125 0 40 13.7451 40 35zM221 347c0 -111.656 39.3906 -207 151.001 -207c112.168 0 151 95.2861 151 207v363h164v-363c0 -161.051 -61.7432 -273.848 -173.5 -325.5c-39.667 -18.333 -86.834 -27.5 -141.501 -27.5c-212.732 0 -315 142.806 -315 353v363h164v-363z" />
    <glyph glyph-name="uring" unicode="&#x16f;" horiz-adv-x="633" 
d="M304 567c-58.9707 0 -107 24.1289 -107 81c0 57.7891 47.4385 82 107 82c59.6338 0 106 -24.1855 106 -82c0 -56.8818 -46.999 -81 -106 -81zM344 649c0 20.8643 -18.6357 34 -40 34c-21.3701 0 -40 -13.1328 -40 -34c0 -20.8584 18.6211 -35 40 -35
c21.125 0 40 13.7451 40 35zM214 -10c-114.982 0 -164 78.5186 -164 199v336h160v-301c0 -56.3311 20.5996 -99 73 -99c57.1113 0 91.0342 32.2373 115 76v324h160v-345c0 -32.668 10.6484 -42.3613 41 -45v-135c-27.0586 -5.41211 -48.6768 -8 -76 -8
c-56 0.666992 -88.333 23 -97 67l-3 32c-43.041 -62.1699 -110.392 -101 -209 -101z" />
    <glyph glyph-name="Uhungarumlaut" unicode="&#x170;" horiz-adv-x="745" 
d="M221 347c0 -111.656 39.3906 -207 151.001 -207c112.168 0 151 95.2861 151 207v363h164v-363c0 -161.051 -61.7432 -273.848 -173.5 -325.5c-39.667 -18.333 -86.834 -27.5 -141.501 -27.5c-212.732 0 -315 142.806 -315 353v363h164v-363zM308.001 758l-77 28l45 130
h120zM483.001 758l-77 28l44 130h120z" />
    <glyph glyph-name="uhungarumlaut" unicode="&#x171;" horiz-adv-x="633" 
d="M214 -10c-114.982 0 -164 78.5186 -164 199v336h160v-301c0 -56.3311 20.5996 -99 73 -99c57.1113 0 91.0342 32.2373 115 76v324h160v-345c0 -32.668 10.6484 -42.3613 41 -45v-135c-27.0586 -5.41211 -48.6768 -8 -76 -8c-56 0.666992 -88.333 23 -97 67l-3 32
c-43.041 -62.1699 -110.392 -101 -209 -101zM241 573l-77 28l45 130h120zM416 573l-77 28l44 130h120z" />
    <glyph glyph-name="Uogonek" unicode="&#x172;" horiz-adv-x="745" 
d="M221 347c0 -111.656 39.3896 -206.998 151 -206.998c112.168 0 151 95.2861 151 207v363h164v-363c0 -154.77 -56.6133 -263.35 -158.5 -318.501c-36.333 -19.667 -79.5 -30.834 -129.5 -33.501c-48.667 -30 -73 -58 -73 -84c0 -29.1318 31.4297 -37.9824 65 -39l-31 -77
c-60.8545 8.11426 -118 34.8584 -118 93c0 51.7666 40.5752 83.998 80 108.999c-176.064 22.3184 -265 153.703 -265 350.001v363h164v-363z" />
    <glyph glyph-name="uogonek" unicode="&#x173;" horiz-adv-x="633" 
d="M214 -10c-114.982 0 -164 78.5186 -164 199v336h160v-301c0 -56.3311 20.5996 -99 73 -99c57.1113 0 91.0342 32.2373 115 76v324h160v-345c0 -32.668 10.6484 -42.3613 41 -45v-135c-54.667 -32 -82 -61.667 -82 -89c0 -29.1318 31.4297 -37.9824 65 -39l-31 -77
c-60.8545 8.11426 -118 34.8584 -118 93c0 48.2607 37.3857 80.9365 73 105c-45.333 4.66699 -72 26.667 -80 66l-3 32c-43.041 -62.1699 -110.392 -101 -209 -101z" />
    <glyph glyph-name="Wcircumflex" unicode="&#x174;" horiz-adv-x="1056" 
d="M360 807l110 108h115l109 -108l-82 -36l-85 63l-85 -63zM304 709h152l71 -227l73 227h151l-119 -330l72 -191l179 522h178l-283 -710h-138l-112 278l-113 -278h-137l-283 710h177l180 -522l70 191z" />
    <glyph glyph-name="wcircumflex" unicode="&#x175;" horiz-adv-x="856" 
d="M261 622l110 108h115l109 -108l-82 -36l-85 63l-85 -63zM706 525h151l-217 -525h-131l-81 216l-80 -216h-131l-217 525h151l142 -377l49 143l-92 234h128l50 -158l51 158h128l-93 -234l50 -143z" />
    <glyph glyph-name="Ycircumflex" unicode="&#x176;" horiz-adv-x="648" 
d="M405 0h-164v244l-249 466h178l153 -326l156 326h178l-252 -468v-242zM156 807l110 108h115l109 -108l-82 -36l-85 63l-85 -63z" />
    <glyph glyph-name="ycircumflex" unicode="&#x177;" horiz-adv-x="545" 
d="M52 -79c23.5068 -7.47949 46.7422 -13 72.999 -13c46.8916 0 59.416 42.9277 70 92l-199 525h164l123 -388l105 388h149l-201 -610c-26.5488 -79.6475 -95.9775 -144.551 -195.999 -146c-33.4307 0 -61.7061 5.43848 -88 15v137zM116 622l110 108h115l109 -108l-82 -36
l-85 63l-85 -63z" />
    <glyph glyph-name="Ydieresis" unicode="&#x178;" horiz-adv-x="648" 
d="M405 0h-164v244l-249 466h178l153 -326l156 326h178l-252 -468v-242zM152 779v129h132v-129h-132zM362 779v129h132v-129h-132z" />
    <glyph glyph-name="Zacute" unicode="&#x179;" horiz-adv-x="623" 
d="M368 757l-102 28l52 130h145zM41 566v144h545v-123l-353 -443h357v-144h-563v123l369 443h-355z" />
    <glyph glyph-name="zacute" unicode="&#x17a;" horiz-adv-x="492" 
d="M291 572l-102 28l52 130h145zM37 414v111h422v-96l-267 -318h273v-111h-442v96l268 318h-254z" />
    <glyph glyph-name="Zdotaccent" unicode="&#x17b;" horiz-adv-x="623" 
d="M41 566v144h545v-123l-353 -443h357v-144h-563v123l369 443h-355zM250 778v137h144v-137h-144z" />
    <glyph glyph-name="zdotaccent" unicode="&#x17c;" horiz-adv-x="492" 
d="M37 414v111h422v-96l-267 -318h273v-111h-442v96l268 318h-254zM174 593v137h144v-137h-144z" />
    <glyph glyph-name="Zcaron" unicode="&#x17d;" horiz-adv-x="623" 
d="M237 915l85 -63l85 63l82 -37l-109 -107h-115l-110 107zM41 566v144h545v-123l-353 -443h357v-144h-563v123l369 443h-355z" />
    <glyph glyph-name="zcaron" unicode="&#x17e;" horiz-adv-x="492" 
d="M160 730l85 -63l85 63l82 -37l-109 -107h-115l-110 107zM37 414v111h422v-96l-267 -318h273v-111h-442v96l268 318h-254z" />
    <glyph glyph-name="florin" unicode="&#x192;" horiz-adv-x="557" 
d="M493 589c-18.5449 8.11328 -46.8096 16 -72 16c-39.333 0 -59 -24.667 -59 -74v-67h122v-121h-122v-348c0 -93.3564 -50.416 -155.1 -117.5 -182.5c-23.667 -9.66699 -48.834 -14.5 -75.501 -14.5c-59.0332 0 -105.966 20.6602 -140 50l67 109
c11.7324 -12.9053 30.0654 -21 53 -21c31.5205 0 53 22.8633 53 55v352h-67v121h67v61c0 98.8945 39.3555 169.716 108 200c22.667 10 47.667 15 75 15c42.667 0 88.334 -10.333 137.001 -31z" />
    <glyph glyph-name="Oogonek" unicode="&#x1ea;" horiz-adv-x="734" 
d="M354 -205c-60.8545 8.11426 -118.002 34.8604 -118.002 93.002c0 51.3027 41.585 85.0303 80 110c-136.078 20.9346 -227.301 117.342 -267.5 234.999c-13.667 40 -20.5 81 -20.5 123c0 104.519 43.1543 191.464 96.501 249.5c54.4736 59.2627 136.581 108.5 244.5 108.5
c109.805 0 190.834 -51.4951 244.5 -113c51.3691 -58.873 92.5 -145.683 92.5 -248c0 -154.644 -84.0557 -263.379 -186.5 -319.501c-38.333 -21 -80.166 -33.5 -125.499 -37.5c-49.333 -30.667 -74 -59 -74 -85c0 -29.1318 31.4297 -37.9824 65 -39zM194.998 354.002
c0 -91.2529 38.6572 -162.857 98.499 -196c21.667 -12 46.5 -18 74.5 -18c114.611 0 171 101.969 171 216c0 91.4092 -38.9512 161.667 -99 194.5c-21.333 11.667 -45.666 17.5 -72.999 17.5c-90.8594 0 -140.562 -63.9639 -161 -135.5
c-7.33301 -25.667 -11 -51.834 -11 -78.5z" />
    <glyph glyph-name="oogonek" unicode="&#x1eb;" horiz-adv-x="611" 
d="M330 -205c-60.8545 8.11426 -118.002 34.8604 -118.002 93.002c0 36.667 23.333 71 70 103c-122.724 7.91797 -205.378 76.2822 -239.999 172c-11.333 31.333 -17 64.333 -17 99c0 127.781 69.4941 211.068 161.5 250.499c35 15 74.833 22.5 119.5 22.5
c135.413 0 224.344 -71.3936 262.001 -169.5c12.667 -33 19 -67.5 19 -103.5c0 -110.498 -53.0176 -186.259 -123 -229.999c-26.667 -16.667 -57.334 -28.334 -92 -35.001c-50.667 -30.667 -76 -59.334 -76 -86.001c0 -29.1318 31.4297 -37.9824 65 -39zM305.998 399.002
c-74.8223 0 -117 -61.1895 -117 -137c0 -76.1592 44.0107 -137 117 -137c74.5547 0.000976562 116 62.0938 116 137c0 75.5752 -43.8926 137 -116 137z" />
    <glyph glyph-name="Aringacute" unicode="&#x1fa;" horiz-adv-x="673" 
d="M443 744c0 -25.3359 -9.66699 -45.6689 -29 -61l262 -683h-174l-55 159h-221l-54 -159h-174l262 683c-20 14 -30 34.333 -30 61c0 47.5127 31.7529 70.5078 73 79l43 95h145l-76 -114c18.667 -13.333 28 -33.333 28 -60zM337 536l-85 -264h167zM377 745
c0 20.8643 -18.6357 34 -40 34c-21.3701 0 -40 -13.1328 -40 -34c0 -20.8584 18.6211 -35 40 -35c21.125 0 40 13.7451 40 35z" />
    <glyph glyph-name="aringacute" unicode="&#x1fb;" horiz-adv-x="590" 
d="M390 83c-39.8252 -51.2041 -102.398 -93 -185.999 -93c-84.2793 0 -141.189 42.0908 -168 100.5c-9.33301 20.333 -14 42.5 -14 66.5c0 90.4014 63.3652 139.604 134 162c27.333 8.66699 57.666 13 90.999 13c44.0576 0 88.1182 -7.70898 118 -22v24
c0 60.667 -35 91 -105 91c-70.291 0 -116.039 -25.6543 -164 -58l-47 100c61.9678 40.5176 131.819 68 227 68c152.365 0 249 -70.7725 249 -220v-135c0 -32.668 10.6484 -42.3613 41 -44.999v-135c-25.3477 -5.51074 -49.9512 -8 -77 -8
c-55.1475 1.25293 -87.4502 21.3994 -96 66.999zM173.001 171c0 -40.877 35.7832 -66 78.001 -66c36.7158 0 71.4561 14.6777 91 33c15.333 12 23 24.667 23 38v50c-24.3066 9.25977 -59.4316 17 -91.001 17c-51.0137 0 -101 -24.1553 -101 -72zM322.002 751l-102 28l52 130
h145zM276.002 567c-58.9707 0 -107 24.1289 -107 81c0 57.7891 47.4385 82 107 82c59.6338 0 106 -24.1855 106 -82c0 -56.8818 -46.999 -81 -106 -81zM316.002 649c0 20.8643 -18.6357 34 -40 34c-21.3701 0 -40 -13.1328 -40 -34c0 -20.8584 18.6211 -35 40 -35
c21.125 0 40 13.7451 40 35z" />
    <glyph glyph-name="AEacute" unicode="&#x1fc;" horiz-adv-x="977" 
d="M651 757l-102 28l52 130h145zM935 710v-144h-310v-133h256v-143h-256v-146h319v-144h-482v159h-215l-91 -159h-174l437 710h516zM450 303v224l-133 -224h133z" />
    <glyph glyph-name="aeacute" unicode="&#x1fd;" horiz-adv-x="940" 
d="M505 572l-102 28l52 130h145zM413 95c-38.7041 -60.2061 -113.67 -105 -209 -105c-83.8975 0 -140.297 42.3252 -167 100.5c-9.33301 20.333 -14 42.5 -14 66.5c0 90.4014 63.3652 139.604 134 162c27.333 8.66699 57.333 13 90 13c42.3867 0 82.6035 -8.10547 113 -20
c1.13281 5.66211 1.80078 25.5645 4 30c-2.82031 59.2236 -39.7578 83 -104 83c-69.8818 0 -116.012 -25.5557 -163.001 -58l-48 100c63.0254 40.4316 131.327 68 227 68c80.8799 0 143.312 -23.3105 184.001 -64c43.4238 37.0381 102.211 64 181 64
c135.727 0 225.513 -69.5332 262.5 -168.5c12.333 -33 18.5 -67.833 18.5 -104.5c0 -15.5059 -1.43066 -36.1523 -4 -49h-391c5.00488 -65.0635 50.874 -108 120 -108c49.6016 0 97.0762 26.292 111 63l136 -38c-40.6855 -81.3711 -130.103 -140 -252 -140
c-106.694 0 -182.633 43.1777 -229 105zM174 171c0 -40.4053 35.5674 -66 77.001 -66c36.7158 0 71.4561 14.6777 91 33c15.333 12 23.333 24.333 24 37c-6.7207 6.7207 -6 41.6836 -6 53c-23.4658 8.21484 -55.1592 15 -85.001 15c-51.8438 0 -101 -23.708 -101 -72z
M753.001 310c-6.2793 62.7949 -47.8408 110 -115.001 110c-67.1455 0 -107.73 -47.2344 -113.999 -110h229z" />
    <glyph glyph-name="Oslashacute" unicode="&#x1fe;" horiz-adv-x="736" 
d="M623 591c47.3828 -58.9404 84 -139.751 84 -238c0 -104.252 -43.166 -191.383 -96 -249.5c-53.9219 -59.3145 -136.374 -109.5 -244 -109.5c-52.667 0 -100.667 11.333 -144 34l-20 -28h-176l84 119c-45.79 58.7061 -82 139.362 -82 237
c0 104.519 43.1543 191.464 96.501 249.5c54.4736 59.2627 136.581 108.5 244.5 108.5c56.46 0 101.51 -13.2549 140.999 -33l20 29h177zM540 356c0 32.667 -5.66797 64 -17.001 94l-213 -299c18.667 -7.33301 38.334 -11 59.001 -11c114.611 0 171 101.969 171 216z
M422.999 558c-16.2676 6.25684 -33.4219 10 -55 10c-90.8594 0 -140.562 -63.9639 -161 -135.5c-7.33301 -25.667 -11 -51.834 -11 -78.5c0 -34.667 5.33301 -66 16 -94zM416 757l-102 28l52 130h145z" />
    <glyph glyph-name="oslashacute" unicode="&#x1ff;" horiz-adv-x="609" 
d="M98 70c-42.5977 44.9648 -74.001 109.853 -74.001 192.001c0 127.781 69.4941 211.068 161.5 250.499c35 15 74.833 22.5 119.5 22.5c60.6191 0 109.094 -15.1152 149.001 -37l27 32h88l-62 -72c45.0605 -45.0605 79 -111.266 79 -196
c0 -127.406 -69.1943 -211.319 -161.5 -250c-35 -14.667 -74.833 -22 -119.5 -22c-60 0 -111.667 13.333 -155 40l-30 -35h-87zM349.999 572.001l-102 28l52 130h145zM420.999 262.001c0 29.333 -6.33398 55 -19.001 77l-159 -196c16.667 -12 37.334 -18 62.001 -18
c74.5547 0.000976562 116 62.0938 116 137zM304.998 399.001c-74.8223 0 -117 -61.1885 -117 -136.999c0 -28.667 5.33301 -53.334 16 -74.001l158 195c-18 10.667 -37 16 -57 16z" />
    <glyph glyph-name="uni0218" unicode="&#x218;" horiz-adv-x="616" 
d="M221 -138c25.333 0 38 9 38 27v64h130v-70c0 -81.9072 -85.7109 -84 -168 -84v63zM588 209c0 -152.868 -115.231 -216.997 -266.997 -216.997c-91.584 0 -169.192 22.543 -235 51c-24.667 10.667 -47.334 23 -68.001 37l72 143
c16.5176 -16.5195 52.3203 -34.4541 80.999 -47.001c40.0244 -17.5107 96.6504 -36 153 -36c58 0 87 17.667 87 53c0 31.5117 -24.4814 45.3066 -49 56.5c-35.9434 16.4092 -78.6846 26.6221 -122 39.5c-100.225 30.6807 -192 68.4795 -192 195.999
c0 117.696 71.1787 187.478 161.5 216c31.667 10 65.167 15 100.5 15c105.518 0 189.52 -37.5547 256 -78l-71 -136c-13.6777 13.6777 -43.0205 27.3418 -67 37.999c-32.7637 14.5615 -77.5479 30 -123.001 30c-48.0723 0 -87 -14.8633 -87 -59
c0 -44.2275 47.498 -58.2354 84.5 -69c134.08 -39.0049 285.5 -61.9756 285.5 -233z" />
    <glyph glyph-name="uni0219" unicode="&#x219;" horiz-adv-x="517" 
d="M169 -138c25.333 0 38 9 38 27v64h130v-70c0 -81.9072 -85.7109 -84 -168 -84v63zM256 424c-35.291 0 -68.999 -10.5 -68.999 -44c0 -28.8525 27.2861 -37.3457 52 -44.5c75.166 -21.7734 159.015 -38.2715 210 -76c30.2344 -22.374 47 -50.3633 47 -99.5
c0 -119.372 -101.428 -170 -222 -170c-101.385 0 -197.942 26.9639 -262 67l63 108c56.0479 -32.335 118.53 -62 195 -62c37.7969 0 72 9.52148 72 43c0 14 -8.33301 24.833 -25 32.5c-96.6562 44.4639 -278 41.6436 -278 178.5c0 90.7812 60.5596 141.987 130.5 165
c26.333 8.66699 55.166 13 86.499 13c86.4561 0 162.694 -29.1475 225 -62l-63 -101c-51.8691 28.5801 -96.0312 52 -162 52z" />
    <glyph glyph-name="uni021A" unicode="&#x21a;" horiz-adv-x="622" 
d="M213 -138c25.333 0 38 9 38 27v64h130v-70c0 -81.9072 -85.7109 -84 -168 -84v63zM609 566h-216v-566h-164v566h-217v144h597v-144z" />
    <glyph glyph-name="uni021B" unicode="&#x21b;" horiz-adv-x="401" 
d="M129 -138c25.333 0 38 9 38 27v64h130v-70c0 -81.9072 -85.7109 -84 -168 -84v63zM394 28c-42.0898 -17.8564 -101.646 -38 -161 -38c-91.8887 0 -146 46.8486 -146 140v274h-67v121h67v167h160v-167h107v-121h-107v-219c0 -31.7139 17.3047 -49 47 -49
c24.4238 0 52.541 10.8525 70 19z" />
    <glyph glyph-name="dotlessj" unicode="&#x237;" 
d="M1 -64c31.5205 0 53 22.8633 53 55v534h160v-522c0 -95.958 -48.2148 -160.949 -116 -190c-23.333 -10 -49 -15 -77 -15c-59.0332 0 -105.966 20.6602 -140 50l67 109c11.7324 -12.9053 30.0654 -21 53 -21z" />
    <glyph glyph-name="schwa" unicode="&#x259;" horiz-adv-x="605" 
d="M48 395c39.8975 81.125 130.252 139.999 252 139.999c133.436 0 224.577 -69.4893 262 -166c12.667 -32.667 19 -67 19 -103c0 -129.953 -67.6592 -214.676 -161.5 -254c-35 -14.667 -74.833 -22 -119.5 -22c-135.832 0 -224.234 70.1094 -262 168.5
c-12.667 33 -19 67.5 -19 103.5c0 16.4043 1.31836 36.5918 4 50.001h388c-4.84961 64.2627 -51.834 107 -117 107c-48.7734 0 -96.2344 -26.707 -110 -63zM188 213.999c6.18164 -61.8135 49.5664 -109 115 -109c65.4014 0 105.828 47.2549 112 109h-227z" />
    <glyph glyph-name="apostrophe" unicode="&#x2bc;" horiz-adv-x="380" 
d="M209 572l-102 28l33 80l-8 50h173z" />
    <glyph glyph-name="circumflex" unicode="&#x2c6;" horiz-adv-x="384" 
d="M25 622l110 108h115l109 -108l-82 -36l-85 63l-85 -63z" />
    <glyph glyph-name="caron" unicode="&#x2c7;" horiz-adv-x="384" 
d="M107 730l85 -63l85 63l82 -37l-109 -107h-115l-110 107z" />
    <glyph glyph-name="breve" unicode="&#x2d8;" horiz-adv-x="347" 
d="M114 730c0 -37.5283 23.4404 -77 59 -77c36.4727 0 57.7402 40.0557 61 77h83c0 -87.6504 -56.6826 -147 -144 -147c-87.251 0 -144 59.915 -144 147h85z" />
    <glyph glyph-name="dotaccent" unicode="&#x2d9;" horiz-adv-x="244" 
d="M50 593v137h144v-137h-144z" />
    <glyph glyph-name="ring" unicode="&#x2da;" 
d="M27 648c0 57.7891 47.4385 82 107 82c59.6338 0 106 -24.1855 106 -82c0 -56.8818 -46.999 -81 -106 -81c-58.9707 0 -107 24.1289 -107 81zM174 649c0 20.8643 -18.6357 34 -40 34c-21.3701 0 -40 -13.1328 -40 -34c0 -20.8584 18.6211 -35 40 -35
c21.125 0 40 13.7451 40 35z" />
    <glyph glyph-name="ogonek" unicode="&#x2db;" horiz-adv-x="309" 
d="M187 -204c-60.8545 8.11426 -118 34.8604 -118 93.002c0 23.333 10.5 46.666 31.5 69.999s52.5 44.666 94.5 63.999l40 -22c-54.667 -32 -82 -61.667 -82 -89c0 -29.1318 31.4297 -37.9824 65 -39z" />
    <glyph glyph-name="tilde" unicode="&#x2dc;" horiz-adv-x="450" 
d="M286 680c29.4785 0 51.998 22.8574 51.998 50.001h86c0 -25.0791 -16.3643 -57.8135 -29.5 -79c-19.6709 -31.7285 -51.7725 -63 -102.499 -63c-45.6396 0 -71.5566 23.7783 -101.999 39c-9.33301 4.66699 -19.666 7 -30.999 7c-28.8887 0 -47 -21.3594 -47 -48h-86
c0 51.8076 34.4346 99.7061 67.5 123.999c16.333 12 36.166 18 59.499 18c45.9834 0 70.9316 -24.3916 101 -40.5c9.33301 -5 20 -7.5 32 -7.5z" />
    <glyph glyph-name="hungarumlaut" unicode="&#x2dd;" horiz-adv-x="381" 
d="M106 572l-77 28l45 130h120zM281 572l-77 28l44 130h120z" />
    <glyph glyph-name="uni03BC" unicode="&#x3bc;" horiz-adv-x="640" 
d="M281 -10c-38.5322 0 -66.2998 21.25 -77 48.002l10 -251h-160v738h160v-301c0 -58.7617 20.9131 -99 77 -99c54.2461 0 88.7812 33.6016 112 76v324h160v-345c0 -32.6768 9.61328 -42.3594 40 -45.001v-135c-25.9463 -5.40527 -49.2227 -8 -76 -8
c-56 1.33301 -88 23.666 -96 66.999l-4 32c-15.793 -39.4814 -59.1787 -72.9307 -98.5 -90.5c-15.667 -7 -31.5 -10.5 -47.5 -10.5z" />
    <glyph glyph-name="Ndotaccent" unicode="&#x1e44;" horiz-adv-x="759" 
d="M306 777v137h144v-137h-144zM232 0h-164v710h128l331 -417v417h164v-710h-132l-327 406v-406z" />
    <glyph glyph-name="ndotaccent" unicode="&#x1e45;" horiz-adv-x="611" 
d="M252 593v137h144v-137h-144zM402 535c119.023 0 159.002 -82.4121 159.002 -199.001v-336h-160v295c0 57.9746 -19.5381 99 -71 99c-44.3438 0 -75.627 -29.3584 -96 -56c-8.66699 -11.333 -15.334 -23.666 -20.001 -36.999v-301h-160v525h144v-88
c37.0303 60.0156 108.816 98 203.999 98z" />
    <glyph glyph-name="Wgrave" unicode="&#x1e80;" horiz-adv-x="1056" 
d="M304 709h152l71 -227l73 227h151l-119 -330l72 -191l179 522h178l-283 -710h-138l-112 278l-113 -278h-137l-283 710h177l180 -522l70 191zM386 916h145l52 -130l-101 -28z" />
    <glyph glyph-name="wgrave" unicode="&#x1e81;" horiz-adv-x="856" 
d="M706 525h151l-217 -525h-131l-81 216l-80 -216h-131l-217 525h151l142 -377l49 143l-92 234h128l50 -158l51 158h128l-93 -234l50 -143zM287 731h145l52 -130l-101 -28z" />
    <glyph glyph-name="Wacute" unicode="&#x1e82;" horiz-adv-x="1056" 
d="M573 757l-102 28l52 130h145zM304 709h152l71 -227l73 227h151l-119 -330l72 -191l179 522h178l-283 -710h-138l-112 278l-113 -278h-137l-283 710h177l180 -522l70 191z" />
    <glyph glyph-name="wacute" unicode="&#x1e83;" horiz-adv-x="856" 
d="M474 572l-102 28l52 130h145zM706 525h151l-217 -525h-131l-81 216l-80 -216h-131l-217 525h151l142 -377l49 143l-92 234h128l50 -158l51 158h128l-93 -234l50 -143z" />
    <glyph glyph-name="Wdieresis" unicode="&#x1e84;" horiz-adv-x="1056" 
d="M356 779v129h132v-129h-132zM566 779v129h132v-129h-132zM304 709h152l71 -227l73 227h151l-119 -330l72 -191l179 522h178l-283 -710h-138l-112 278l-113 -278h-137l-283 710h177l180 -522l70 191z" />
    <glyph glyph-name="wdieresis" unicode="&#x1e85;" horiz-adv-x="856" 
d="M257 594v129h132v-129h-132zM467 594v129h132v-129h-132zM706 525h151l-217 -525h-131l-81 216l-80 -216h-131l-217 525h151l142 -377l49 143l-92 234h128l50 -158l51 158h128l-93 -234l50 -143z" />
    <glyph glyph-name="Etilde" unicode="&#x1ebc;" horiz-adv-x="601" 
d="M567 144v-144h-499v710h490v-144h-326v-138h280v-133h-280v-151h335zM379 865c29.4785 0 51.998 22.8584 51.998 50.002h86c0 -25.0811 -16.3633 -57.8125 -29.5 -79c-19.6709 -31.7285 -51.7725 -63.001 -102.499 -63.001c-45.6396 0 -71.5566 23.7783 -101.999 39
c-9.33301 4.66699 -19.666 7 -30.999 7c-28.8887 0 -47 -21.3594 -47 -48h-86c0 51.8076 34.4346 99.7061 67.5 123.999c16.333 12 36.166 18 59.499 18c45.9834 0 70.9316 -24.3916 101 -40.5c9.33301 -5 20 -7.5 32 -7.5z" />
    <glyph glyph-name="etilde" unicode="&#x1ebd;" horiz-adv-x="604" 
d="M558 130c-40.6855 -81.3711 -130.103 -139.999 -252 -139.999c-134.584 0 -225.024 68.5625 -263 165.5c-12.667 32.333 -19 66.166 -19 101.499c0 130.092 68.6172 216.658 162.5 256c35 14.667 74.833 22 119.5 22c135.174 0 224.409 -69.7598 261.5 -168
c12.333 -32.667 18.5 -67 18.5 -103c0 -17.3086 -1.20703 -37.0371 -4 -51h-388c4.84473 -64.1895 51.8711 -108 117 -108c48.7627 0 97.2373 26.7158 111 63zM417 312.001c-6.18359 61.8408 -47.5508 108 -113 108c-65.8096 0 -106.73 -46.5586 -113 -108h226z
M361.999 680.001c29.4785 0 51.999 22.8574 51.999 50.001h86c0 -25.0791 -16.3643 -57.8135 -29.5 -79c-19.6719 -31.7285 -51.7734 -63 -102.5 -63c-45.6396 0 -71.5566 23.7783 -101.999 39c-9.33301 4.66699 -19.666 7 -30.999 7c-28.8887 0 -47 -21.3594 -47 -48h-86
c0 51.8076 34.4346 99.7061 67.5 123.999c16.333 12 36.166 18 59.499 18c45.9844 0 70.9316 -24.3916 101 -40.5c9.33301 -5 20 -7.5 32 -7.5z" />
    <glyph glyph-name="Ygrave" unicode="&#x1ef2;" horiz-adv-x="648" 
d="M405 0h-164v244l-249 466h178l153 -326l156 326h178l-252 -468v-242zM182 916h145l52 -130l-101 -28z" />
    <glyph glyph-name="ygrave" unicode="&#x1ef3;" horiz-adv-x="545" 
d="M52 -79c23.5068 -7.47949 46.7422 -13 72.999 -13c46.8916 0 59.416 42.9277 70 92l-199 525h164l123 -388l105 388h149l-201 -610c-26.5488 -79.6475 -95.9775 -144.551 -195.999 -146c-33.4307 0 -61.7061 5.43848 -88 15v137zM142 731h145l52 -130l-101 -28z" />
    <glyph glyph-name="Ytilde" unicode="&#x1ef8;" horiz-adv-x="648" 
d="M405 0h-164v244l-249 466h178l153 -326l156 326h178l-252 -468v-242zM380 865c29.4785 0 51.998 22.8584 51.998 50.002h86c0 -25.0811 -16.3633 -57.8125 -29.5 -79c-19.6709 -31.7285 -51.7725 -63.001 -102.499 -63.001c-45.6396 0 -71.5566 23.7783 -101.999 39
c-9.33301 4.66699 -19.666 7 -30.999 7c-28.8887 0 -47 -21.3594 -47 -48h-86c0 51.8076 34.4346 99.7061 67.5 123.999c16.333 12 36.166 18 59.499 18c45.9834 0 70.9316 -24.3916 101 -40.5c9.33301 -5 20 -7.5 32 -7.5z" />
    <glyph glyph-name="ytilde" unicode="&#x1ef9;" horiz-adv-x="545" 
d="M52 -79c23.5068 -7.47949 46.7422 -13 72.999 -13c46.8916 0 59.416 42.9277 70 92l-199 525h164l123 -388l105 388h149l-201 -610c-26.5488 -79.6475 -95.9775 -144.551 -195.999 -146c-33.4307 0 -61.7061 5.43848 -88 15v137zM340 680c29.4785 0 52 22.8584 52 50.002
h86c0 -25.0791 -16.3643 -57.8135 -29.5 -79c-19.6709 -31.7285 -51.7725 -63.001 -102.499 -63.001c-45.6396 0 -71.5576 23.7783 -102 39c-9.33398 4.66699 -19.667 7 -31 7c-28.8887 0 -47 -21.3594 -47 -48h-86c0 51.8076 34.4346 99.7061 67.5 123.999
c16.333 12 36.166 18 59.499 18c45.9834 0 70.9316 -24.3916 101 -40.5c9.33301 -5 20 -7.5 32 -7.5z" />
    <glyph glyph-name="endash" unicode="&#x2013;" horiz-adv-x="615" 
d="M54 203v144h507v-144h-507z" />
    <glyph glyph-name="emdash" unicode="&#x2014;" horiz-adv-x="937" 
d="M54 203v144h829v-144h-829z" />
    <glyph glyph-name="quoteleft" unicode="&#x2018;" horiz-adv-x="260" 
d="M172 624c1.75195 -21.0234 16.6035 -35 38 -35v-113c-85.6514 0 -168 30.4814 -168 117v137h130v-106z" />
    <glyph glyph-name="quoteright" unicode="&#x2019;" horiz-adv-x="263" 
d="M79 582c-1.75195 21.0273 -16.6035 35 -38 35v113c85.54 0 168 -30.8057 168 -117v-137h-130v106z" />
    <glyph glyph-name="quotesinglbase" unicode="&#x201a;" horiz-adv-x="249" 
d="M23 -19c22.3555 0 36.1816 13.1768 38 35v147h130v-177c0 -86.9775 -82.2295 -118 -168 -118v113z" />
    <glyph glyph-name="quotedblleft" unicode="&#x201c;" horiz-adv-x="479" 
d="M172 624c1.75195 -21.0234 16.6035 -35 38 -35v-113c-85.6514 0 -168 30.4814 -168 117v137h130v-106zM391 624c1.75195 -21.0234 16.6035 -35 38 -35v-113c-85.6514 0 -168 30.4814 -168 117v137h130v-106z" />
    <glyph glyph-name="quotedblright" unicode="&#x201d;" horiz-adv-x="482" 
d="M79 582c-1.75195 21.0273 -16.6035 35 -38 35v113c85.54 0 168 -30.8057 168 -117v-137h-130v106zM297.999 582c-1.75195 21.0273 -16.6025 35 -38 35v113c85.54 0 168 -30.8057 168 -117v-137h-130v106z" />
    <glyph glyph-name="quotedblbase" unicode="&#x201e;" horiz-adv-x="456" 
d="M23 -19c22.3555 0 36.1816 13.1768 38 35v147h130v-177c0 -86.9775 -82.2295 -118 -168 -118v113zM231 -19c22.3555 0 36.1816 13.1768 38 35v147h130v-177c0 -86.9775 -82.2295 -118 -168 -118v113z" />
    <glyph glyph-name="dagger" unicode="&#x2020;" horiz-adv-x="486" 
d="M167 -130v329h-132v144h132v432h152v-432h131v-144h-131v-329h-152z" />
    <glyph glyph-name="daggerdbl" unicode="&#x2021;" horiz-adv-x="497" 
d="M173 -130v209h-132v144h132v112h-132v144h132v296h152v-296h131v-144h-131v-112h131v-144h-131v-209h-152z" />
    <glyph glyph-name="bullet" unicode="&#x2022;" horiz-adv-x="366" 
d="M293 351c0 -63.7383 -46.5479 -110 -109.999 -110c-63.7383 0 -110 46.5488 -110 110c0 50.7549 31.1562 84.8701 67 101c13.333 6 27.666 9 42.999 9c62.6904 0 110 -47.7119 110 -110z" />
    <glyph glyph-name="ellipsis" unicode="&#x2026;" horiz-adv-x="657" 
d="M54 0v163h130v-163h-130zM263 0v163h131v-163h-131zM473 0v163h130v-163h-130z" />
    <glyph glyph-name="perthousand" unicode="&#x2030;" horiz-adv-x="1212" 
d="M210 411c-77.9033 0 -132.103 40.8838 -157.5 94.5c-9 19 -13.5 39.167 -13.5 60.5c0 73.2471 49.7744 121.01 104 142c20.667 8 43 12 67 12c77.0762 0 133.24 -40.6719 158 -94c8.66699 -18.667 13 -38.667 13 -60c0 -74.6201 -48.8408 -121.647 -104 -143
c-20.667 -8 -43 -12 -67 -12zM150 566c0 -37.5625 24.4111 -77 60 -77c36.459 0 61 38.8447 61 77c0 38.2393 -24.499 76 -61 76c-35.8965 0 -60 -38.6104 -60 -76zM616 -10c-77.7207 0 -131.886 40.874 -157.5 94c-9 18.667 -13.5 38.667 -13.5 60
c0 73.6904 49.4814 121.896 104 143c20.667 8 43 12 67 12c77.2607 0 133.46 -40.6836 158 -94.5c8.66699 -19 13 -39.167 13 -60.5c0 -74.1719 -49.1357 -120.762 -104 -142c-20.667 -8 -43 -12 -67 -12zM556 144c0 -38.21 23.5225 -76 60 -76c35.9053 0 61 38.584 61 76
c0 38.1748 -24.5234 77 -61 77c-36.4375 0 -60 -38.875 -60 -77zM1009 -10c-77.0762 0 -133.24 40.6729 -158 94.001c-8.66699 18.667 -13 38.667 -13 60c0 74.6201 48.8418 121.646 104 143c20.667 8 43 12 67 12c77.2637 0 133.452 -40.6836 158 -94.5
c8.66699 -19 13 -39.167 13 -60.5c0 -74.1768 -49.1426 -120.757 -104 -142.001c-20.667 -8 -43 -12 -67 -12zM949 144.001c0 -38.21 23.5254 -76 60 -76c35.8975 0 60 38.6104 60 76c0 37.5625 -24.4111 77 -60 77c-36.4375 0 -60 -38.875 -60 -77zM108 56.001l282 324
l256 339l72 -64l-273 -316l-266 -348z" />
    <glyph glyph-name="guilsinglleft" unicode="&#x2039;" horiz-adv-x="358" 
d="M34 293l269 193v-129l-143 -98l143 -91v-129l-269 178v76z" />
    <glyph glyph-name="guilsinglright" unicode="&#x203a;" horiz-adv-x="358" 
d="M324 217l-270 -178v129l144 91l-144 98v129l270 -193v-76z" />
    <glyph glyph-name="fraction" unicode="&#x2044;" horiz-adv-x="219" 
d="M-195 56l282 324l256 339l72 -64l-273 -316l-266 -348z" />
    <glyph glyph-name="zerosuperior" unicode="&#x2070;" horiz-adv-x="499" 
d="M250 294c-108.115 0 -177.578 63.8271 -205.999 143c-9.33301 26 -14 51 -14 75c0 97.8154 59.2305 165.793 128 198.5c27.333 13 58 19.5 92 19.5c107.565 0 177.438 -65.9502 205.999 -144.5c9.33301 -25.667 14 -50.167 14 -73.5
c0 -97.0859 -60.543 -165.78 -128.5 -198.5c-27 -13 -57.5 -19.5 -91.5 -19.5zM125.001 512c0 -56.2461 31.085 -94.042 70.001 -113.5c15.333 -7.66699 33.666 -11.5 54.999 -11.5c74.7148 0 124 52.5596 124 125c0 55.2129 -31.7422 94.3711 -70 113.5
c-15.333 7.66699 -33.333 11.5 -54 11.5c-63.3809 0 -101.57 -36.2734 -117.5 -83c-5 -14.667 -7.5 -28.667 -7.5 -42z" />
    <glyph glyph-name="foursuperior" unicode="&#x2074;" horiz-adv-x="420" 
d="M238 301v88h-218v91l247 251h64v-251h62v-91h-62v-88h-93zM242 480v138l-134 -138h134z" />
    <glyph glyph-name="fivesuperior" unicode="&#x2075;" horiz-adv-x="403" 
d="M141 567c17.4609 8.73047 39.6436 13 69 13c75.2725 0 129.419 -32.3223 155 -82.5c8.66699 -17 13 -35.5 13 -55.5c0 -76.3936 -53.915 -118.002 -113.5 -137c-23 -7.33301 -48.167 -11 -75.5 -11c-72.5029 0 -136.08 28.0703 -166 71l54 63
c25.6523 -25.6523 66.4121 -44 117 -44c45.8232 0 89 17.1816 89 62c0 43.2822 -37.0508 65 -80 65c-35.2041 0 -72.9766 -20.3203 -86 -44h-81c17.0186 87.9277 43.6396 174.91 59 264h249v-93h-182z" />
    <glyph glyph-name="sixsuperior" unicode="&#x2076;" horiz-adv-x="433" 
d="M118 552c19.7705 19.7705 66.1826 31 104.999 31c80.4385 0 141.319 -33.1445 168.5 -86.5c9 -17.667 13.5 -36.5 13.5 -56.5c0 -75.0088 -54.8721 -117.955 -112.5 -138c-23 -8 -47.833 -12 -74.5 -12c-120.729 0 -186 82.3086 -186 207c0 137.729 66.6582 233 199 233
c67.9297 0 120.951 -24.0547 154 -62l-53 -65c-21.627 22.8994 -61.1494 38 -105 38c-62.9512 0 -106.25 -29.8896 -108.999 -89zM219.999 502c-44.8057 0 -98 -18.6572 -98 -62c0 -43.1895 53.8496 -64 98 -64c44.0146 0 97 23.502 97 64c0 40.3584 -53.1416 62 -97 62z
" />
    <glyph glyph-name="sevensuperior" unicode="&#x2077;" horiz-adv-x="399" 
d="M23 638v93h381l-253 -430h-106l213 337h-235z" />
    <glyph glyph-name="eightsuperior" unicode="&#x2078;" horiz-adv-x="430" 
d="M317 530c39.7637 -19.3174 82 -47.1367 82 -102c0 -68.876 -58.7568 -107.752 -114 -124c-22.667 -6.66699 -46.334 -10 -71.001 -10c-78.0166 0 -140.706 32.3564 -169.499 82c-9.66699 16.667 -14.5 34.667 -14.5 54c0 55.5918 42.8262 81.0098 82 100
c-31.5674 13.3555 -66 37.3789 -66 81c0 61.9189 58.6855 95.2051 108 109.999c20 6 40 9 60 9c67.6768 0 126.017 -28.958 154 -70c10 -14.667 15 -30.667 15 -48c0 -42.6279 -33.5928 -69.2676 -66 -81.999zM214 488c-38.6943 0 -90 -14.4814 -90 -50
c0 -37.1973 53.2256 -51 91 -51c35.6396 0 66.8105 10.627 82.5 30.5c5 6.33496 7.5 13.168 7.5 20.5c0 37.2607 -53.043 50 -91 50zM214 640c-30.5312 0 -75 -10.7305 -75 -38c0 -27.1377 46.0586 -38 75 -38c28.9072 0 76 10.8789 76 38c0 28.1719 -44.9229 38 -76 38z
" />
    <glyph glyph-name="ninesuperior" unicode="&#x2079;" horiz-adv-x="433" 
d="M315 468c-19.1445 -19.1445 -67.6709 -31 -106.001 -31c-79.9229 0 -140.167 33.3584 -167.5 86c-9 17.333 -13.5 36 -13.5 56c0 75.3584 54.1201 120.054 112.5 139.5c23 7.66699 47.833 11.5 74.5 11.5c120.729 0 186 -82.3086 186 -207
c0 -137.705 -65.665 -233 -198 -233c-67.8496 0 -122.022 25.1367 -155 63l53 64c21.5967 -22.8672 61.1875 -39 105 -39c61.748 0 107.604 31.3232 109.001 90zM213.999 518c43.2188 0 97 21.5771 97 61c0 43.8994 -53.3438 65 -98 65
c-39.8965 0 -73.1113 -15.3779 -88.5 -40c-5 -8 -7.5 -16.333 -7.5 -25c0 -39.3955 53.833 -61 97 -61z" />
    <glyph glyph-name="zeroinferior" unicode="&#x2080;" horiz-adv-x="499" 
d="M250 -6c-108.115 0 -177.579 63.8271 -206 143c-9.33301 26 -14 51 -14 75c0 97.8154 59.2305 165.793 128 198.5c27.333 13 58 19.5 92 19.5c107.565 0 177.438 -65.9502 206 -144.5c9.33301 -25.667 14 -50.167 14 -73.5c0 -97.0859 -60.543 -165.78 -128.5 -198.5
c-27 -13 -57.5 -19.5 -91.5 -19.5zM125 212c0 -56.2451 31.085 -94.043 70.001 -113.501c15.333 -7.66699 33.666 -11.5 54.999 -11.5c74.7148 0 124 52.5586 124 125c0 55.2119 -31.7422 94.3721 -70 113.501c-15.333 7.66699 -33.333 11.5 -54 11.5
c-63.3809 0 -101.57 -36.2734 -117.5 -83c-5 -14.667 -7.5 -28.667 -7.5 -42z" />
    <glyph glyph-name="oneinferior" unicode="&#x2081;" horiz-adv-x="350" 
d="M332 91l0.000976562 -91h-285v91h100v243c-17.5137 -20.4326 -54.1328 -37.2705 -83.5 -46.5c-11.667 -3.66699 -22.5 -5.5 -32.5 -5.5v93c40.7568 0 81.4326 29.4443 104.499 48.5c7.66699 6.33301 11.5 9.83301 11.5 10.5h94v-343h91z" />
    <glyph glyph-name="twoinferior" unicode="&#x2082;" horiz-adv-x="434" 
d="M226 435c101.61 0 169.999 -42.2314 169.999 -138.998c0 -84.8848 -64.1729 -116.845 -128 -137.001c-57.333 -16.667 -86 -39.334 -86 -68.001h215v-91h-369c0 120.796 47.0225 167.799 133 204c41.6797 17.3662 91.4092 31.376 118.5 62
c7.66699 8.66699 11.5 19 11.5 31c0 38.3135 -37.7871 47 -80 47c-52.6055 0 -95.0986 -22.5381 -120.999 -47l-59 69c33.0381 41.7324 111.435 69 195 69z" />
    <glyph glyph-name="threeinferior" unicode="&#x2083;" horiz-adv-x="415" 
d="M276 229c58.3164 -8.16406 107.001 -48.9658 107.001 -111.001c0 -93.0029 -96.7578 -124 -190 -124c-79.2734 0 -143.188 22.7744 -167 76l50 70c15.9619 -31.917 66.7393 -52 115.999 -52c40.0225 0 96 8.10742 96 44c0 45.7842 -88.4268 49 -148 49h-25v85h24
c53.4717 0 134 3.4375 134 46c0 30.0518 -45.1426 37 -76 37c-54.0967 0 -85.4648 -19.1387 -112 -47l-59 76c33.5156 39.1074 97.8926 58 170 58c74.6426 0 134.899 -25.9502 163.5 -71.5c9 -14.333 13.5 -29.833 13.5 -46.5c0 -54 -46.8164 -80.0781 -97 -88.999z" />
    <glyph glyph-name="fourinferior" unicode="&#x2084;" horiz-adv-x="420" 
d="M238 1v88h-218v91l247 251h64v-251h62v-91h-62v-88h-93zM242 180v138l-134 -138h134z" />
    <glyph glyph-name="fiveinferior" unicode="&#x2085;" horiz-adv-x="403" 
d="M140 267c17.4609 8.73047 39.6436 13.001 69 13.001c75.2725 0 129.419 -32.3223 155 -82.5c8.66699 -17 13 -35.833 13 -56.5c0 -75.4648 -54.5039 -117.189 -113.5 -136c-23 -7.33301 -48.167 -11 -75.5 -11c-71.9609 0 -135.889 28.1055 -166 70l54 64
c25.6523 -25.6523 66.4121 -44 117 -44c45.8232 0 89 17.1816 89 62c0 43.2783 -37.0508 65 -80 65c-35.2041 0 -72.9766 -20.3203 -86 -44h-81c17.0186 87.9277 43.6396 174.91 59 263.999h249v-93h-182z" />
    <glyph glyph-name="sixinferior" unicode="&#x2086;" horiz-adv-x="433" 
d="M118 256c19.7705 19.7705 66.1816 31 104.998 31c80.4385 0 141.319 -33.1445 168.5 -86.5c9 -17.667 13.5 -36.5 13.5 -56.5c0 -75.0088 -54.8721 -117.955 -112.5 -138c-23 -8 -47.833 -12 -74.5 -12c-121.226 0 -186 81.4473 -186 207c0 137.729 66.6582 233 199 233
c67.2422 0 120.867 -25.1855 154.001 -62l-53 -65c-21.627 22.8994 -61.1494 38 -105 38c-62.9512 0 -106.25 -29.8896 -108.999 -89zM219.998 206c-44.8057 0 -98.001 -18.6572 -98.001 -62.001c0 -43.1885 53.8496 -64 98 -64c40.0869 0 73.6982 15.2695 89.501 39.5
c5 7.66699 7.5 15.834 7.5 24.501c0 40.3584 -53.1416 62 -97 62z" />
    <glyph glyph-name="seveninferior" unicode="&#x2087;" horiz-adv-x="400" 
d="M24 338v93h380l-253 -430h-105l213 337h-235z" />
    <glyph glyph-name="eightinferior" unicode="&#x2088;" horiz-adv-x="430" 
d="M317 230c39.7637 -19.3135 81.999 -47.1377 81.999 -102c0 -68.876 -58.7568 -107.752 -114 -124c-22.667 -6.66699 -46.334 -10 -71.001 -10c-78.0166 0 -140.706 32.3564 -169.499 82c-9.66699 16.667 -14.5 34.667 -14.5 54c0 55.5938 42.8262 81.0059 82 99.999
c-31.5674 13.3555 -66 37.3789 -66 81c0 61.9189 58.6855 95.2051 108 110c20 6 40 9 60 9c67.6777 0 126.018 -28.958 154.001 -70c10 -14.667 15 -30.667 15 -48c0 -42.6279 -33.5928 -69.2676 -66 -81.999zM213.999 188c-38.6943 0 -90 -14.4805 -90 -49.999
c0 -37.1973 53.2256 -51 91 -51c35.6396 0 66.8105 10.627 82.5 30.5c5 6.33301 7.5 13.166 7.5 20.499c0 37.2588 -53.043 50 -91 50zM213.999 340.001c-30.5312 0 -75 -10.7305 -75 -38c0 -27.1377 46.0586 -38 75 -38c28.9072 0 76 10.8789 76 38
c0 27.2129 -45.6143 38 -76 38z" />
    <glyph glyph-name="nineinferior" unicode="&#x2089;" horiz-adv-x="433" 
d="M315 172c-18.9756 -20.2402 -67.0273 -32 -106.001 -32c-80.1035 0 -140.417 33.3389 -167.499 86.5c-9 17.667 -13.5 36.5 -13.5 56.5c0 75.4863 54.541 118.841 112.5 139c23 8 47.833 12 74.5 12c121.208 0 186 -82.5 186 -208c0 -136.908 -66.1289 -232 -198 -232
c-67.2246 0 -121.891 25.2119 -155 62l53 65c21.5967 -22.8672 61.1875 -39 105 -39c62.3037 0 107.614 30.4248 109 90zM213.999 222c43.8496 0 97 20.6748 97 61c0 43.8994 -53.3438 65 -98 65c-39.8965 0 -73.1113 -15.3779 -88.5 -40c-5 -8 -7.5 -16.333 -7.5 -25
c0 -40.3008 53.1973 -61 97 -61z" />
    <glyph glyph-name="Euro" unicode="&#x20ac;" horiz-adv-x="771" 
d="M450 140c74.4443 0 124.119 41.5986 145.002 98.001l135 -79c-32.5244 -79.2773 -109.607 -131.521 -198.501 -154c-29 -7.33301 -57.5 -11 -85.5 -11c-124.238 0 -208.824 66.5547 -262 141c-20 28 -36 58 -48 90h-102l35 86h44c-2 16 -3 32 -3 48h-69l35 86h44
c26.7178 118.007 103.425 205.355 208.499 246.999c37 14.667 78.167 22 123.5 22c129.983 0 225.502 -66.7207 268.999 -155l-126 -88c-22.3115 56.7588 -70.8955 97 -147 97c-85.1582 0 -135.435 -58.3066 -156.999 -123h227l-35 -86h-206c0 -18 1 -34 3 -48h208l-35 -86
h-142c27.0605 -44.707 71.374 -85 139 -85z" />
    <glyph glyph-name="trademark" unicode="&#x2122;" horiz-adv-x="866" 
d="M352 610h-95v-203h-102v203h-95v102h292v-102zM799 710v-303h-102v174l-57 -132h-83l-57 132v-174h-102v303h153l47 -145l48 145h153z" />
    <glyph glyph-name="onethird" unicode="&#x2153;" horiz-adv-x="996" 
d="M852 229c58.3174 -8.16406 107.001 -48.9658 107.001 -111.001c0 -93.0029 -96.7568 -124 -190 -124c-79.2734 0 -143.188 22.7744 -167 76l50 70c15.959 -31.918 66.7432 -52 116 -52c40.0225 0 96 8.10742 96 44c0 45.7842 -88.4268 49 -148 49h-25v85h24
c53.4717 0 134 3.4375 134 46c0 30.0518 -45.1426 37 -76 37c-54.0947 0 -85.4707 -19.1377 -112.001 -47l-59 76c33.5156 39.1074 97.8926 58 170 58c74.6445 0 134.899 -25.9502 163.5 -71.5c9 -14.333 13.5 -29.833 13.5 -46.5c0 -54 -46.8164 -80.0781 -97 -88.999z
M300.001 388.999v-92h-241v92h77v243c-13.7715 -19.2803 -42.8799 -37.0244 -67 -46.5c-9.33301 -3.66699 -18 -5.5 -26 -5.5v93c33.6055 0 66.668 30.668 84 48c6 6 9 9.33301 9 10h95v-342h69zM146.001 55.999l282 324l256 339l72 -64l-273 -316l-266 -348z" />
    <glyph glyph-name="twothirds" unicode="&#x2154;" horiz-adv-x="1012" 
d="M868 229c58.3174 -8.16406 107.001 -48.9658 107.001 -111.001c0 -93.0029 -96.7568 -124 -190 -124c-79.2734 0 -143.188 22.7744 -167 76l50 70c15.959 -31.918 66.7432 -52 116 -52c40.0225 0 96 8.10742 96 44c0 45.7842 -88.4268 49 -148 49h-25v85h24
c53.4717 0 134 3.4375 134 46c0 30.0518 -45.1426 37 -76 37c-54.0947 0 -85.4707 -19.1377 -112.001 -47l-59 76c33.5156 39.1074 97.8926 58 170 58c74.6445 0 134.899 -25.9502 163.5 -71.5c9 -14.333 13.5 -29.833 13.5 -46.5c0 -54 -46.8164 -80.0781 -97 -88.999z
M224.001 729.999c97.8691 0 160.001 -44.4824 160.001 -139c0 -82.8037 -58.6631 -116.554 -120 -136.999c-53.333 -16.668 -80 -39.335 -80 -68.001h186v-91h-328c0 117.919 40.6035 167.38 123 204c38.6797 17.582 84.9434 31.5967 109.5 62c7 8.66699 10.5 19 10.5 31
c0 36.9854 -33.4346 47 -73 47c-48.542 0 -89.4297 -22.4297 -113 -46l-55 68c33.0537 44.0723 101.823 69 179.999 69zM201.002 55.999l282 324l256 339l72 -64l-273 -316l-266 -348z" />
    <glyph glyph-name="oneeighth" unicode="&#x215b;" horiz-adv-x="991" 
d="M873 230c39.7637 -19.3135 82.001 -47.1377 82.001 -102c0 -68.875 -58.7568 -107.752 -114 -124c-22.667 -6.66699 -46.334 -10 -71.001 -10c-78.0176 0 -140.707 32.3564 -169.501 82c-9.66699 16.667 -14.5 34.667 -14.5 54c0 55.5938 42.8262 81.0059 82 99.999
c-31.5703 13.3545 -66 37.3789 -66 81c0 61.9189 58.6855 95.2051 108 110c20 6 40 9 60 9c67.6777 0 126.018 -28.958 154.001 -70c10 -14.667 15 -30.667 15 -48c0 -42.6279 -33.5918 -69.2676 -66 -81.999zM770.001 188c-38.6943 0 -90.001 -14.4805 -90.001 -49.999
c0 -37.1973 53.2275 -51 91 -51c35.6406 0 66.8115 10.627 82.501 30.5c5 6.33301 7.5 13.166 7.5 20.499c0 37.2578 -53.0459 50 -91 50zM770 340.001c-30.5312 0 -75 -10.7305 -75 -38c0 -27.1377 46.0586 -38 75 -38c28.9072 0 76 10.8789 76 38
c0 27.2129 -45.6143 38 -76 38zM300 389.001v-92h-241v92h77v243c-13.7715 -19.2803 -42.8799 -37.0244 -67 -46.5c-9.33301 -3.66699 -18 -5.5 -26 -5.5v93c33.6055 0 66.668 30.668 84 48c6 6 9 9.33301 9 10h95v-342h69zM158 56.001l282 324l256 339l72 -64l-273 -316
l-266 -348z" />
    <glyph glyph-name="threeeighths" unicode="&#x215c;" horiz-adv-x="1005" 
d="M290 524c58.8301 -8.23633 107.001 -48.1123 107.001 -110.999c0 -93.0029 -96.7578 -124 -190 -124c-79.2734 0 -143.188 22.7744 -167 76l50 70c15.9453 -31.9219 66.7529 -52 115.999 -52c40.0225 0 96 8.10742 96 44c0 45.7842 -88.4268 49 -148 49h-25v85h24
c54.3262 0 134 3.26758 134 47c0 29.3018 -45.6631 37 -76 37c-54.0967 0 -85.4648 -19.1387 -112 -47l-59 75c33.5195 39.1055 97.8896 58 170 58c74.6426 0 134.899 -25.9502 163.5 -71.5c9 -14.333 13.5 -29.833 13.5 -46.5c0 -54 -46.8164 -80.0859 -97 -89.001z
M888.001 230.001c39.7637 -19.3135 82 -47.1387 82 -102.001c0 -68.875 -58.7568 -107.752 -114 -124c-22.667 -6.66699 -46.334 -10 -71.001 -10c-78.0186 0 -140.706 32.3555 -169.5 82c-9.66699 16.667 -14.5 34.667 -14.5 54c0 55.5938 42.8262 81.0068 82 100
c-31.5703 13.3545 -66 37.3789 -66 81c0 61.9189 58.6855 95.2051 108 110c20 6 40 9 60 9c67.6777 0 126.018 -28.958 154.001 -70c10 -14.667 15 -30.667 15 -48c0 -42.6279 -33.5918 -69.2676 -66 -81.999zM785.001 188c-38.6943 0 -90.001 -14.4805 -90.001 -49.999
c0 -37.1973 53.2275 -51 91 -51c35.6406 0 66.8115 10.627 82.501 30.5c5 6.33301 7.5 13.166 7.5 20.499c0 37.2578 -53.0459 50 -91 50zM785 340.001c-30.5312 0 -75 -10.7305 -75 -38c0 -27.1377 46.0586 -38 75 -38c28.9072 0 76 10.8789 76 38
c0 27.2129 -45.6143 38 -76 38zM198 56.001l282 324l256 339l72 -64l-273 -316l-266 -348z" />
    <glyph glyph-name="fiveeighths" unicode="&#x215d;" horiz-adv-x="1023" 
d="M905 230c39.7637 -19.3135 82 -47.1377 82 -102c0 -68.875 -58.7568 -107.752 -114 -124c-22.667 -6.66699 -46.334 -10 -71.001 -10c-78.0166 0 -140.706 32.3564 -169.5 82c-9.66699 16.667 -14.5 34.667 -14.5 54c0 55.5938 42.8262 81.0059 82 99.999
c-31.5703 13.3545 -66 37.3789 -66 81c0 61.9189 58.6855 95.2051 108 110c20 6 40 9 60 9c67.6777 0 126.018 -28.958 154.001 -70c10 -14.667 15 -30.667 15 -48c0 -42.6279 -33.5918 -69.2676 -66 -81.999zM802 188c-38.6943 0 -90 -14.4805 -90 -49.999
c0 -37.1973 53.2285 -51 91 -51c35.6396 0 66.8105 10.627 82.5 30.5c5 6.33301 7.5 13.166 7.5 20.499c0 37.2578 -53.0459 50 -91 50zM802 340.001c-30.5312 0 -75 -10.7305 -75 -38c0 -27.1377 46.0586 -38 75 -38c28.9072 0 76 10.8789 76 38
c0 27.2129 -45.6143 38 -76 38zM152 567.001c17.4609 8.73047 39.6436 13 69 13c75.2725 0 129.419 -32.3223 155 -82.5c8.66699 -17 13 -35.5 13 -55.5c0 -76.3936 -53.915 -118.002 -113.5 -137c-23 -7.33301 -48.167 -11 -75.5 -11c-72.5029 0 -136.08 28.0703 -166 71
l54 63c25.6523 -25.6523 66.4121 -44 117 -44c45.8232 0 89 17.1816 89 62c0 43.2822 -37.0508 65 -80 65c-35.2041 0 -72.9766 -20.3203 -86 -44h-81c17.0186 87.9277 43.6396 174.91 59 264h249v-93h-182zM200.999 56.001l282 324l256 339l72 -64l-273 -316l-266 -348z
" />
    <glyph glyph-name="seveneighths" unicode="&#x215e;" horiz-adv-x="960" 
d="M843 230c39.7637 -19.3135 82 -47.1377 82 -102c0 -68.875 -58.7568 -107.752 -114 -124c-22.667 -6.66699 -46.334 -10 -71.001 -10c-78.0166 0 -140.706 32.3564 -169.5 82c-9.66699 16.667 -14.5 34.667 -14.5 54c0 55.5938 42.8262 81.0059 82 99.999
c-31.5703 13.3545 -66 37.3789 -66 81c0 61.9189 58.6855 95.2051 108 110c20 6 40 9 60 9c67.6777 0 126.018 -28.958 154.001 -70c10 -14.667 15 -30.667 15 -48c0 -42.6279 -33.5918 -69.2676 -66 -81.999zM740 188c-38.6943 0 -90 -14.4805 -90 -49.999
c0 -37.1973 53.2275 -51 91 -51c35.6396 0 66.8105 10.627 82.5 30.5c5 6.33301 7.5 13.166 7.5 20.499c0 37.2578 -53.0479 50 -91 50zM740 340.001c-30.5312 0 -75 -10.7305 -75 -38c0 -27.1377 46.0586 -38 75 -38c28.9072 0 76 10.8789 76 38
c0 27.2129 -45.6143 38 -76 38zM105 56.001l282 324l256 339l72 -64l-273 -316l-266 -348zM41 638.001v93h381l-253 -430h-106l213 337h-235z" />
    <glyph glyph-name="minus" unicode="&#x2212;" horiz-adv-x="521" 
d="M59 277v127h404v-127h-404z" />
    <glyph glyph-name="uni2215" unicode="&#x2215;" horiz-adv-x="630" 
d="M-18 67l575 652l90 -75l-574 -653z" />
    <glyph glyph-name="uni2219" unicode="&#x2219;" horiz-adv-x="238" 
d="M54 240v166h130v-166h-130z" />
    <glyph glyph-name="commaaccent" unicode="&#xf6c3;" horiz-adv-x="220" 
d="M28 -138c25.333 0 38 9 38 27v64h130v-70c0 -81.9072 -85.7109 -84 -168 -84v63z" />
    <glyph glyph-name="s_t" unicode="&#xfb06;" horiz-adv-x="886" 
d="M879 28c-41.5312 -17.6191 -102.668 -37.999 -160.999 -37.999c-91.8887 0 -146 46.8486 -146 140v274h-67v121h67c0 73.0947 -0.0371094 140 -71 140c-54.3525 0 -88 -31.1904 -88 -82c0 -41.9365 23.5527 -85.96 43 -108l-60 -101c-47.4229 28.252 -88.6992 50 -148 50
c-35.1875 0 -69 -10.916 -69 -45c0 -18.667 8.83301 -31.334 26.5 -38c40.4424 -15.2617 123.714 -29.3662 163.5 -43.501c61.4902 -21.8457 108 -53.918 108 -133.5c0 -120.305 -91.1172 -174 -212 -174c-96.8154 0 -188.334 27.3945 -249 66l59 109
c53.2461 -31.9482 113.099 -62 186 -62c35.9736 0 70 9.1709 70 43c0 31.6445 -34.5039 40.0781 -61.5 47c-101.438 26.0098 -231.5 39.1123 -231.5 162.001c0 90.8457 56.2129 145.07 125 167.999c24 8 48.667 12 74 12c50.8584 0 98.2168 -11.9971 132 -31
c-13.8584 23.9375 -22 46.9492 -22 83c0 105.735 84.7002 147 194 147c108.443 0 174.198 -27.9482 186 -120c3.33301 -26 5 -55.667 5 -89h107v-121h-107v-219c0 -31.6816 16.334 -49 46 -49c24.376 0 53.6143 10.8867 70.999 19z" />
    <glyph glyph-name="NULL" horiz-adv-x="0" 
 />
    <glyph glyph-name="nonmarkingreturn" horiz-adv-x="0" 
 />
    <glyph glyph-name="B.sc" horiz-adv-x="603" 
d="M458 289c67.7236 -17.5576 115 -62.1816 115 -145c0 -107.43 -101.987 -144 -210 -144h-302v563h345c68.0879 0 110.89 -42.3145 130 -92c6.66699 -17.333 10 -35 10 -53c0 -62.2949 -38.6436 -109.931 -88 -129zM363 121c33.1895 0 64 20.1787 64 53
c0 31.4795 -25.9717 54 -58 54h-164v-107h158zM404 391c0 33.3252 -22.873 49 -55 49h-144v-99h139c34.0293 0 60 14.3135 60 50z" />
    <glyph glyph-name="C.sc" horiz-adv-x="595" 
d="M329 123c62.8916 0 108.929 28.3936 129.001 72.999l118 -70c-35.3477 -80.7939 -137.11 -131 -251 -131c-140.601 0 -232.76 85.1602 -275 185c-14.667 34.667 -22 70 -22 106c0 128.801 80.9473 214.79 174 255.501c37.333 16.333 80 24.5 128 24.5
c112.89 0 199.576 -48.8037 237.999 -123l-110 -78c-21.7021 45.5742 -65.8613 73 -131 73c-93.4883 0 -153 -64.6328 -153 -156c0 -72.4365 39.5557 -122.763 90.5 -146c19 -8.66699 40.5 -13 64.5 -13z" />
    <glyph glyph-name="A.sc" horiz-adv-x="596" 
d="M-3 0l243 563h117l241 -563h-152l-50 118h-197l-48 -118h-154zM298 389l-68 -146h134z" />
    <glyph glyph-name="D.sc" horiz-adv-x="639" 
d="M61 0l-0.00195312 563h235c149.109 0 251.316 -64.707 293 -171c13.333 -34 20 -70.333 20 -109c0 -140.33 -78.6055 -226.167 -184.499 -263c-38.333 -13.333 -81.166 -20 -128.499 -20h-235zM295.998 125c100.761 0 167 58.168 167 158
c0 96.6221 -67.2744 155 -167 155h-91v-313h91z" />
    <glyph glyph-name="E.sc" horiz-adv-x="539" 
d="M503 125v-125h-442v563h434v-125h-290v-93h250v-117h-250v-103h298z" />
    <glyph glyph-name="F.sc" horiz-adv-x="506" 
d="M61 0v563h427v-125h-283v-106h234v-117h-234v-215h-144z" />
    <glyph glyph-name="G.alt" horiz-adv-x="717" 
d="M697 374c0 -15.4717 -0.998047 -37.5312 -0.998047 -53v-12c-4.51758 -144.565 -81.583 -242.949 -187.5 -289c-38.333 -16.667 -80.833 -25 -127.5 -25c-112.31 0 -198.19 50.3457 -254.501 111.5c-54.459 59.1436 -98.5 147.104 -98.5 253.5
c0 160.929 89.5068 272.445 202.5 325c43 20 91.5 30 145.5 30c129.99 0 221.83 -60.9492 271 -147l-130 -102c-25.291 50.5234 -73.6924 103 -151 103c-114.039 0 -172 -100.521 -172 -214c0 -89.6768 36.8984 -159.939 94.5 -194.5c21.667 -13 47.167 -19.5 76.5 -19.5
c75.7979 0 134.345 44.8447 153.999 101h-135v144h313v-12z" />
    <glyph glyph-name="G.sc" horiz-adv-x="623" 
d="M464 50c-39.7715 -33.9229 -82.9102 -53.999 -150 -53.999c-87.4053 0 -156.113 39.9365 -202 87c-45.6699 46.8408 -84 116.35 -84 202.999c0 133.188 83.3701 219.792 180.5 259c36.333 14.667 75.5 22 117.5 22c111.873 0 196.081 -49.6006 236 -123l-108 -81
c-22.6807 41.7803 -72.5742 76 -134 76c-90.8408 0 -146 -67.0723 -146 -158c0 -92.8066 59.6953 -157 152 -157c61.0547 0 104.932 29.7266 138 65v5h-120v103h240v-297h-120v50z" />
    <glyph glyph-name="H.sc" horiz-adv-x="663" 
d="M602 563v-563h-144v225h-253v-225h-144v563h144v-212h253v212h144z" />
    <glyph glyph-name="I.sc" horiz-adv-x="266" 
d="M61 0v563h144v-563h-144z" />
    <glyph glyph-name="J.sc" horiz-adv-x="446" 
d="M42 143c21.0557 -11.6992 66.7314 -24 105.001 -24c93.5469 0 100 63.7539 100 158v286h143v-286c0 -133.959 -18.7197 -225.438 -113.5 -265.5c-32.333 -13.667 -75.5 -20.5 -129.5 -20.5c-52.667 0 -98.334 11.667 -137.001 35z" />
    <glyph glyph-name="K.sc" horiz-adv-x="607" 
d="M61 0v563h144v-241l245 241h149l-236 -251l251 -312h-151l-185 231l-73 -63v-168h-144z" />
    <glyph glyph-name="L.sc" horiz-adv-x="487" 
d="M61 0v563h144v-438h268v-125h-412z" />
    <glyph glyph-name="caron.alt" horiz-adv-x="269" 
d="M148 572l-102 28l52 130h145z" />
    <glyph glyph-name="M.sc" horiz-adv-x="763" 
d="M558 0v314l-138 -224h-77l-138 224v-314h-144v563h157l164 -278l165 278h155v-563h-144z" />
    <glyph glyph-name="N.sc" horiz-adv-x="674" 
d="M205 0h-144v563h113l295 -306v306h143v-563h-115l-292 297v-297z" />
    <glyph glyph-name="O.sc" horiz-adv-x="655" 
d="M329 566c140.646 0 234.738 -81.4697 276.499 -181.502c14.333 -34.333 21.5 -69.5 21.5 -105.5c0 -83.8281 -39.2539 -152.254 -84.5 -197.5c-48.6396 -48.6387 -121.741 -86.5 -215.499 -86.5c-94.7734 0 -167.753 39.6357 -216.5 89
c-44.999 45.5693 -82.5 114.559 -82.5 198.001c0 132.448 84.6348 219.909 180.5 260.501c37 15.667 77.167 23.5 120.5 23.5zM173.999 280.998c0 -71.627 37.498 -120.815 87.5 -144.5c19 -9 41.167 -13.5 66.5 -13.5c93.9844 0 153 66.7764 153 159
c0 70.9395 -38.4326 120.162 -88.5 143c-19 8.66699 -40.833 13 -65.5 13c-93.7549 0 -153 -64.7686 -153 -157z" />
    <glyph glyph-name="P.sc" horiz-adv-x="553" 
d="M61 0v563h269c94.6699 0 159.843 -56.4893 189.5 -122.5c10.333 -23 15.5 -46.5 15.5 -70.5c0 -88.7969 -54.7725 -149.46 -118.5 -177.5c-25 -11 -52.5 -16.5 -82.5 -16.5h-129v-176h-144zM389 370c0 43.6104 -28.3555 68 -68 68h-116v-136h120
c39.6875 0 64 25.0078 64 68z" />
    <glyph glyph-name="Q.sc" horiz-adv-x="657" 
d="M479 35c-40.8711 -23.5322 -90.2832 -39 -152.001 -39c-139.854 0 -235.951 80.9756 -277.5 180.5c-14.333 34.333 -21.5 69.5 -21.5 105.5c0 85.0186 38.9092 152.986 85 198.5c48.7822 48.1719 122.955 86.5 216.001 86.5c140.212 0 234.857 -82.752 276.5 -182.5
c14.333 -34.333 21.5 -69.5 21.5 -105.5c0 -77.4414 -31.5752 -138.937 -71 -183l93 -96h-136zM327.999 124c20 0 38.667 3 56 9l-94 98h136l33 -34c14.667 26 22 54.333 22 85c0 70.7295 -38.5449 121.213 -88.5 144c-19 8.66699 -40.833 13 -65.5 13
c-93.9375 0 -153 -65.6572 -153 -158c0 -71.2471 37.207 -121.06 87.5 -144c19 -8.66699 41.167 -13 66.5 -13z" />
    <glyph glyph-name="R.sc" horiz-adv-x="605" 
d="M549 370c0 -77.5557 -48.0723 -133.393 -102.999 -162l145 -208h-163l-126 176h-97v-176h-144v563h283c93.9893 0 161.223 -56.3145 189.999 -122.5c10 -23 15 -46.5 15 -70.5zM403.001 370c0 39.4697 -30.4893 68 -68 68h-130v-136h135c37.4648 0 63 28.6631 63 68z" />
    <glyph glyph-name="S.sc" horiz-adv-x="538" 
d="M510 169c0 -127.689 -102.147 -175.999 -229 -175.999c-97.9229 0 -195.137 30.7637 -260.001 68l63 125c14.4014 -16.458 45.6895 -29.2676 72.001 -39.5c34.7168 -13.501 79.4023 -24.5 127 -24.5c47.333 0 71 11.333 71 34c0 34.9258 -55.0469 44.8076 -87 52.5
c-18 4.33301 -37.333 9.5 -58 15.5c-55.333 15.333 -96.333 35.166 -123 59.499c-26.667 24.334 -40 58.167 -40 101.5c0 123.139 102.289 183 225 183c84.3896 0 165.425 -32.5332 219.001 -62l-62 -119c-25.4414 21.2012 -67.9805 36.8057 -107.501 46.5
c-17.667 4.33301 -35.5 6.5 -53.5 6.5c-48 0 -72 -12 -72 -36c0 -31.8906 43.3047 -40.7012 71.5 -48.5c109.228 -30.2119 243.5 -49.4355 243.5 -186.5z" />
    <glyph glyph-name="T.sc" horiz-adv-x="559" 
d="M543 438h-191v-438h-144v438h-193v125h528v-125z" />
    <glyph glyph-name="U.sc" horiz-adv-x="650" 
d="M195 274c0 -88.3418 39.668 -151 129 -151c90.2598 0 130 61.8896 130 151v289h144v-289c0 -175.106 -97.3164 -279 -274 -279c-177.029 0 -273 104.727 -273 279v289h144v-289z" />
    <glyph glyph-name="V.sc" horiz-adv-x="598" 
d="M150 563l149 -360l148 360h152l-240 -563h-120l-242 563h153z" />
    <glyph glyph-name="W.alt" horiz-adv-x="1118" 
d="M1118 711l-221 -710h-170l-169 441l-166 -442h-170l-221 710h186l136 -463l146 463h178l149 -462l135 463h187z" />
    <glyph glyph-name="W.sc" horiz-adv-x="940" 
d="M273 562h132l64 -176l65 176h133l-106 -265l58 -124l166 390h157l-252 -563h-120l-100 210l-100 -210h-121l-252 563h156l168 -390l56 124z" />
    <glyph glyph-name="X.sc" horiz-adv-x="586" 
d="M155 563l138 -185l138 185h156l-218 -285l211 -278h-155l-132 177l-131 -177h-156l211 278l-218 285h156z" />
    <glyph glyph-name="Y.sc" horiz-adv-x="576" 
d="M360 0h-144v190l-221 373h156l137 -250l139 250h156l-223 -374v-189z" />
    <glyph glyph-name="Z.sc" horiz-adv-x="564" 
d="M42 438v125h484v-107l-315 -331h319v-125h-500v107l329 331h-317z" />
    <glyph glyph-name="a.alt" horiz-adv-x="640" 
d="M426 78c-29.3633 -52.6094 -74.96 -88 -152.999 -88c-121.724 0 -196.945 73.5986 -230 164.5c-12 33 -18 69.167 -18 108.5c0 121.595 57.3262 210.396 139.5 251c28.333 14 59.166 21 92.499 21c79.9375 0 139.686 -42.2568 169 -96v79h160v-518h-160v78zM426.001 307
c-17.7959 46.7139 -58.8643 92 -118 92c-73.4561 0 -118 -65.5918 -118 -139c0 -62.0342 31.8281 -104.791 75 -124.5c15.333 -7 32 -10.5 50 -10.5c56.2441 0 88.2852 34.3857 111 73v109z" />
    <glyph glyph-name="a.alt2" horiz-adv-x="573" 
d="M276 535c152.13 0 249 -72.0547 249 -220v-315h-154v69c-34.2559 -47.7129 -88.8115 -79 -167 -79c-84.2793 0 -141.189 42.0908 -168 100.5c-19.7227 42.9678 -18.1699 98.7549 3.50098 139c34.3438 63.7812 110.172 102.5 207.499 102.5
c45.3232 0 89.0957 -7.54688 118 -22v24c0 60.667 -35 91 -105 91c-70.291 0 -116.039 -25.6543 -164 -58l-47 100c61.9512 40.0859 131.064 68 227 68zM173 171c0 -40.3916 36.6133 -66 78.001 -66c36.1133 0 71.2666 14.4268 91 33c15.333 12 23 24.667 23 38v50
c-24.3066 9.25977 -59.4316 17 -91.001 17c-49.0459 0 -101 -24.165 -101 -72z" />
    <glyph glyph-name="c_t" horiz-adv-x="972" 
d="M965 28c-42.0898 -17.8564 -101.646 -38 -161 -38c-91.8887 0 -146 46.8486 -146 140v274h-67v121h67c0 75.5283 -3.33984 140 -78 140c-56.9492 0 -81 -35.7656 -81 -90c0 -69.8145 31.6709 -129.232 53 -179l-156 -47c-21.333 33.333 -52 50 -92 50
c-74.9316 0 -116 -61.6729 -116 -137c0 -62.499 28.6602 -107.074 71.5 -127c14.333 -6.66699 29.5 -10 45.5 -10c41.9971 0 76.7373 22.6484 92 52l156 -48c-39.0469 -81.9971 -126.77 -139 -247 -139c-135.777 0 -225.248 71.1465 -263 169.5
c-12.667 33 -19 67.5 -19 103.5c0 127.334 70.0566 210.622 162.5 249.5c35.667 15 76.834 22.5 123.501 22.5c66.4756 0 101.421 -13.7188 143.999 -39c-10.5498 25.7871 -21 54.5293 -21 88c0 107.249 79.9863 150 195 150c111.445 0 179.235 -37.4404 187 -134.5
c2 -25 3 -49.833 3 -74.5h107v-121h-107v-219c0 -31.6816 16.334 -49 46 -49c25.3408 0 53.0781 10.6367 71 19z" />
    <glyph glyph-name="d.alt" horiz-adv-x="639" 
d="M256 535c80.3643 0 138.642 -42.5664 169.001 -96v291h160v-730h-159v76c-32.667 -57.333 -83.667 -86 -153 -86c-121.23 0 -195.848 74.457 -229.5 164.5c-12.333 33 -18.5 69.167 -18.5 108.5c0 122.079 56.0283 210.249 138.5 251c28.333 14 59.166 21 92.499 21z
M426.001 308c-17.5137 44.8779 -62.0293 91 -119 91c-73.251 0 -117 -65.7334 -117 -139c0 -77.3818 48.0615 -135 125 -135c53.2617 0 92.6729 34.0547 111 73v110z" />
    <glyph glyph-name="eight.lnum" horiz-adv-x="608" 
d="M467 379c51.126 -31.2432 100.002 -82.0625 100.002 -163.999c0 -112.53 -75.8516 -179.284 -162 -208c-32 -10.667 -66 -16 -102 -16c-116.488 0 -201.838 56.2422 -241.001 135.5c-14 28.333 -21 59.833 -21 94.5c0 79.5908 51.3447 126.517 100 157.999
c-38.5957 21.0527 -79 70.0566 -79 127c0 104.791 77.2686 165.154 158 190.5c28.667 9 56.667 13.5 84 13.5c101.588 0 180.515 -49.1592 219.499 -115c15 -25.333 22.5 -54.333 22.5 -87c0 -61.874 -38.5664 -106.252 -79 -129zM304.002 136c55.2695 0 100 34.3359 100 89
c0 54.9297 -46.0449 88 -100 88c-55.0225 0 -100 -34.0234 -100 -89c0 -53.8242 45.959 -88 100 -88zM304.002 569c-42.1826 0 -79 -25.1338 -79 -66c0 -44.5488 35.1025 -70 79 -70c43.4883 0 80 26.1787 80 70c0 40.3652 -38.7031 66 -80 66z" />
    <glyph glyph-name="five.lnum" horiz-adv-x="573" 
d="M230 444c11.6016 13.5352 41.75 18 71 18c109.908 0 183.719 -57.3262 216.5 -136c11.667 -28 17.5 -59 17.5 -93c0 -118.896 -70.7314 -192.618 -160 -224.5c-32.667 -11.667 -68.667 -17.5 -108 -17.5c-108.955 0 -192.526 47.6201 -234 118l89 99
c31.3398 -37.8242 83.6475 -77 146 -77c61.3643 0 103 37.1885 103 98c0 56.0107 -37.582 96 -93 96c-40.9902 0 -71.2061 -19.6084 -88 -46h-138c0 18.7402 8.02441 45.2949 13 71c24.2861 125.478 42.9219 226.072 69 361h353v-146h-237z" />
    <glyph glyph-name="four.lnum" horiz-adv-x="590" 
d="M305 1v149h-280v143l330 418h110v-418h88v-143h-88v-149h-160zM323 293v178l-139 -178h139z" />
    <glyph glyph-name="j.alt" 
d="M54 517h160v-730h-160v730zM54 728h159v-143h-159v143z" />
    <glyph glyph-name="l.alt" horiz-adv-x="271" 
d="M56 730h160v-730h-160v730z" />
    <glyph glyph-name="nine.lnum" horiz-adv-x="607" 
d="M417 290c-25.417 -35.584 -70.3516 -57.999 -129.998 -57.999c-114.725 0 -194.334 61.2812 -230 142c-12.667 28.667 -19 59.667 -19 93c0 118.123 72.2256 194.812 158.5 229.499c32.333 13 67.166 19.5 104.499 19.5c187.152 0 264 -147.981 264 -337
c0 -172.729 -50.5566 -306.278 -164 -363c-34.667 -17.333 -73.667 -26 -117 -26c-100.514 0 -172.257 46.002 -222.001 105l90 102c28.4609 -36.4287 75.0986 -68 135 -68c87.6172 0 127.633 69.8545 130 161zM300.002 581.001c-63.6055 0 -109 -50.5352 -109 -114
c0 -63.1475 47.2178 -108 110 -108c62.3184 0 109 45.7637 109 108c0 51.7637 -31.5664 88.6045 -68 105c-13.333 6 -27.333 9 -42 9z" />
    <glyph glyph-name="one.lnum" horiz-adv-x="517" 
d="M495 144l0.000976562 -144h-430v144h140v415c-22.084 -33.126 -76.624 -62.1045 -118 -77c-16.667 -6 -31.667 -9 -45 -9v147c40.9912 0 81.8896 27.4365 107.499 46.5c15.667 11.667 28.667 22.5 39 32.5s15.833 15.667 16.5 17h163v-572h127z" />
    <glyph glyph-name="q.alt" horiz-adv-x="638" 
d="M269 535c85.7402 0 140.498 -42.1357 176 -96v86h139v-739h-160v299c-36 -63.333 -93.333 -95 -172 -95c-114.203 0 -180.264 78.54 -210 166c-11.333 33.333 -17 69.333 -17 108c0 122.723 62.0547 210.149 146.5 250c29.667 14 62.167 21 97.5 21zM313 125
c53.4834 0 88.5781 35.126 111 71v111c-14.5166 45.9707 -57.2002 92 -116 92c-73.9834 0 -120 -65.002 -120 -139c0 -76.5869 49.1553 -135 125 -135z" />
    <glyph glyph-name="seven.lnum" horiz-adv-x="577" 
d="M34 565v146h551l-350 -710h-181l279 564h-299z" />
    <glyph glyph-name="six.lnum" horiz-adv-x="607" 
d="M191 416c25.876 34.9326 69.9668 56.999 130 56.999c114.769 0 193.072 -61.1367 229 -141.5c12.667 -28.333 19 -59.166 19 -92.499c0 -117.93 -72.1885 -194.64 -158 -229.501c-32 -13 -66.667 -19.5 -104 -19.5c-139.013 0 -214.17 83.9766 -246.001 194.5
c-12 41.667 -18 89.167 -18 142.5c0 172.026 50.0234 306.513 163 363.001c34.667 17.333 73.667 26 117 26c100.514 0 172.257 -46.002 222.001 -105l-90 -102c-28.4717 36.4434 -74.1279 68 -134 68c-87.6172 0 -127.633 -69.8545 -130 -161zM307 346.999
c-62.6943 0 -110 -45.3633 -110 -108c0 -51.7637 31.5664 -88.6045 68 -105c13.333 -6 27.333 -9 42 -9c63.2031 0 110 51.0801 110 114c0 61.8135 -48.5469 108 -110 108z" />
    <glyph glyph-name="t.alt" horiz-adv-x="387" 
d="M93 0v437h-79v144h79v151h164v-151h121v-144h-121v-437h-164z" />
    <glyph glyph-name="three.lnum" horiz-adv-x="587" 
d="M398 376c84.7432 -15.4082 145.001 -82.9922 145.001 -181.999c0 -143.038 -131.521 -203 -274 -203c-115.842 0 -192.759 47.0977 -230 128l83 109c17.291 -51.874 71.8301 -90 143.999 -90c55.7324 0 111 21.9727 111 77c0 76.1709 -103.83 86 -195 86h-33v133h32
c67.7529 0 132.373 9.48438 164 44.5c9.33301 10.333 14 22.833 14 37.5c0 42.9531 -39.0068 63 -81 63c-68.4443 0 -118.159 -31.417 -142.999 -74l-102 118c48.3447 58.5225 139.202 96 244 96c109.689 0 195.667 -45.8789 233.999 -117.5
c12.667 -23.667 19 -49.5 19 -77.5c0 -84.7852 -59.2373 -132.235 -132 -148.001z" />
    <glyph glyph-name="two.lnum" horiz-adv-x="622" 
d="M324 718c149.83 0 246 -77.1348 246 -222.001c0 -125.012 -74.7676 -174.194 -158 -216.999c-40.667 -20.667 -73.834 -41.167 -99.5 -61.5c-25.667 -20.333 -38.5 -44.833 -38.5 -73.5h297v-144h-530c0 132.531 19.7617 222.014 90.5 282.5
c67.3076 57.5527 193.158 79.0264 242 156.5c9.66699 15.334 14.5 33.667 14.5 55c0 53.6699 -33.1338 82 -86 82c-70.8379 0 -125.169 -41.4893 -160 -79l-99 106c41.502 49.2842 111.171 85.293 186 104c29.333 7.33301 61 11 95 11z" />
    <glyph glyph-name="u.alt" horiz-adv-x="612" 
d="M287 125c52.8477 0 87.8672 35.7686 111 76v324h160v-525h-153v81c-32.8652 -56.3398 -98.0439 -91 -181 -91c-124.813 0 -174 73.3887 -174 199v336h160v-301c0 -58.0078 19.4961 -99 77 -99z" />
    <glyph glyph-name="w.alt" horiz-adv-x="882" 
d="M526 0l-86 275l-85 -275h-173l-179 525h165l107 -335l91 335h150l90 -335l108 335h164l-178 -525h-174z" />
    <glyph glyph-name="y.alt" horiz-adv-x="545" 
d="M543 525l-240 -738h-186l5.5 14c21.2373 54.0576 45.5557 117.674 67 172c5 12.667 8.83301 21.667 11.5 27l-200 525h165l122 -388l105 388h150z" />
    <glyph glyph-name="zero.lnum" horiz-adv-x="708" 
d="M354 -10c-109.992 0 -186.701 54.6406 -235.5 119.5c-44.4971 59.1416 -79.5 145.646 -79.5 240.5c0 97.9561 38.0244 185.401 84.5 244.5c48.7236 61.957 124.99 115.5 230.5 115.5c110.346 0 185.842 -56.8652 235 -122c44.3965 -58.8271 80 -144.458 80 -238
c0 -155.099 -81.2979 -271.337 -184 -328c-38.667 -21.333 -82.334 -32 -131 -32zM205 350c0 -86.3721 30.1543 -158.394 82 -194.5c18.667 -13 41 -19.5 67 -19.5c104.504 0 148 110.563 148 214c0 86.6016 -31.0332 158.309 -83 194.5c-18.667 13 -40.334 19.5 -65 19.5
c-105.071 0 -149 -109.971 -149 -214z" />
    </font>
</defs>
</svg>
